<svg width="17" height="16" viewBox="0 0 17 16" fill="none" xmlns="http://www.w3.org/2000/svg">
<g clip-path="url(#clip0_1610_36326)">
<path d="M15.4902 7.31693L8.50016 11.5116L1.51016 7.31693C1.35855 7.22596 1.177 7.19895 1.00547 7.24183C0.833937 7.28471 0.686465 7.39398 0.595496 7.5456C0.504527 7.69721 0.477512 7.87876 0.520395 8.05029C0.563279 8.22182 0.672547 8.3693 0.824163 8.46026L8.1575 12.8603C8.26118 12.9226 8.37987 12.9555 8.50083 12.9555C8.62179 12.9555 8.74048 12.9226 8.84416 12.8603L16.1775 8.46026C16.3291 8.3693 16.4384 8.22182 16.4813 8.05029C16.5241 7.87876 16.4971 7.69721 16.4062 7.5456C16.3152 7.39398 16.1677 7.28471 15.9962 7.24183C15.8247 7.19895 15.6431 7.22596 15.4915 7.31693H15.4902Z" fill="white"/>
<mask id="path-2-inside-1_1610_36326" fill="white">
<path d="M15.4902 10.3619L8.50016 14.5559L1.51016 10.3619C1.43509 10.3168 1.35188 10.287 1.26528 10.2741C1.17869 10.2612 1.0904 10.2655 1.00547 10.2868C0.920534 10.308 0.840613 10.3457 0.77027 10.3979C0.699926 10.45 0.640537 10.5154 0.595494 10.5905C0.55045 10.6656 0.520635 10.7488 0.507749 10.8354C0.494863 10.922 0.49916 11.0103 0.520393 11.0952C0.563277 11.2667 0.672545 11.4142 0.82416 11.5052L8.15749 15.9052C8.26118 15.9675 8.37986 16.0004 8.50083 16.0004C8.62179 16.0004 8.74047 15.9675 8.84416 15.9052L16.1775 11.5052C16.3291 11.4142 16.4384 11.2667 16.4813 11.0952C16.5241 10.9237 16.4971 10.7421 16.4062 10.5905C16.3152 10.4389 16.1677 10.3296 15.9962 10.2868C15.8247 10.2439 15.6431 10.2709 15.4915 10.3619H15.4902Z"/>
</mask>
<path d="M15.4902 10.3619L8.50016 14.5559L1.51016 10.3619C1.43509 10.3168 1.35188 10.287 1.26528 10.2741C1.17869 10.2612 1.0904 10.2655 1.00547 10.2868C0.920534 10.308 0.840613 10.3457 0.77027 10.3979C0.699926 10.45 0.640537 10.5154 0.595494 10.5905C0.55045 10.6656 0.520635 10.7488 0.507749 10.8354C0.494863 10.922 0.49916 11.0103 0.520393 11.0952C0.563277 11.2667 0.672545 11.4142 0.82416 11.5052L8.15749 15.9052C8.26118 15.9675 8.37986 16.0004 8.50083 16.0004C8.62179 16.0004 8.74047 15.9675 8.84416 15.9052L16.1775 11.5052C16.3291 11.4142 16.4384 11.2667 16.4813 11.0952C16.5241 10.9237 16.4971 10.7421 16.4062 10.5905C16.3152 10.4389 16.1677 10.3296 15.9962 10.2868C15.8247 10.2439 15.6431 10.2709 15.4915 10.3619H15.4902Z" fill="white"/>
<path d="M15.4902 10.3619V-10.9715H9.58115L4.51422 -7.93131L15.4902 10.3619ZM8.50016 14.5559L-2.47578 32.849L8.50016 39.4346L19.4761 32.849L8.50016 14.5559ZM1.51016 10.3619L-9.46578 28.655L-9.46578 28.655L1.51016 10.3619ZM0.82416 11.5052L11.8001 -6.78798L11.8001 -6.78798L0.82416 11.5052ZM8.15749 15.9052L19.1442 -2.3815L19.1334 -2.38796L8.15749 15.9052ZM8.84416 15.9052L-2.13178 -2.38796L-2.14254 -2.3815L8.84416 15.9052ZM16.1775 11.5052L27.1534 29.7984L16.1775 11.5052ZM15.4915 10.3619V31.6952H21.4005L26.4674 28.655L15.4915 10.3619ZM4.51422 -7.93131L-2.47578 -3.7373L19.4761 32.849L26.4661 28.655L4.51422 -7.93131ZM19.4761 -3.7373L12.4861 -7.93131L-9.46578 28.655L-2.47578 32.849L19.4761 -3.7373ZM12.4861 -7.93131C10.0087 -9.41773 7.26286 -10.4017 4.40521 -10.8269L-1.87465 31.3751C-4.55911 30.9756 -7.13857 30.0513 -9.46578 28.655L12.4861 -7.93131ZM4.40521 -10.8269C1.5476 -11.2521 -1.3658 -11.1103 -4.16864 -10.4096L6.17958 30.9831C3.5466 31.6414 0.809774 31.7746 -1.87465 31.3751L4.40521 -10.8269ZM-4.16864 -10.4096C-6.97145 -9.70891 -9.60882 -8.46302 -11.9302 -6.74303L13.4707 27.5388C11.29 29.1545 8.81251 30.3249 6.17958 30.9831L-4.16864 -10.4096ZM-11.9302 -6.74303C-14.2515 -5.02306 -16.2113 -2.86272 -17.6977 -0.385361L18.8887 21.5664C17.4924 23.8936 15.6513 25.923 13.4707 27.5388L-11.9302 -6.74303ZM-17.6977 -0.385361C-19.1841 2.09201 -20.168 4.83789 -20.5932 7.69549L21.6087 13.9753C21.2093 16.6597 20.285 19.2392 18.8887 21.5664L-17.6977 -0.385361ZM-20.5932 7.69549C-21.0185 10.5531 -20.8767 13.4665 -20.176 16.2693L21.2168 5.92114C21.875 8.55408 22.0082 11.2909 21.6087 13.9753L-20.5932 7.69549ZM-20.176 16.2693C-18.7608 21.9299 -15.155 26.7964 -10.1518 29.7984L11.8001 -6.78798C16.5001 -3.96795 19.8874 0.603646 21.2168 5.92114L-20.176 16.2693ZM-10.1518 29.7984L-2.81844 34.1984L19.1334 -2.38796L11.8001 -6.78798L-10.1518 29.7984ZM-2.8292 34.1919C0.592438 36.2476 4.50898 37.3337 8.50083 37.3337V-5.33292C12.2507 -5.33292 15.9299 -4.31264 19.1442 -2.3815L-2.8292 34.1919ZM8.50083 37.3337C12.4927 37.3337 16.4092 36.2476 19.8309 34.1919L-2.14254 -2.3815C1.07171 -4.31263 4.75089 -5.33292 8.50083 -5.33292V37.3337ZM19.8201 34.1984L27.1534 29.7984L5.20156 -6.78798L-2.13178 -2.38796L19.8201 34.1984ZM27.1534 29.7984C32.1567 26.7964 35.7625 21.9298 37.1776 16.2693L-4.21512 5.92114C-2.88575 0.603654 0.50153 -3.96795 5.20156 -6.78798L27.1534 29.7984ZM37.1776 16.2693C38.5928 10.6087 37.7013 4.61784 34.6994 -0.38536L-1.88704 21.5664C-4.70701 16.8664 -5.5445 11.2387 -4.21512 5.92114L37.1776 16.2693ZM34.6994 -0.38536C31.6974 -5.38861 26.8309 -8.99446 21.1703 -10.4096L10.8221 30.9831C5.50455 29.6537 0.932962 26.2664 -1.88704 21.5664L34.6994 -0.38536ZM21.1703 -10.4096C15.5097 -11.8248 9.51882 -10.9333 4.51556 -7.93131L26.4674 28.655C21.7674 31.475 16.1396 32.3125 10.8221 30.9831L21.1703 -10.4096ZM15.4915 -10.9715H15.4902V31.6952H15.4915V-10.9715Z" fill="white" mask="url(#path-2-inside-1_1610_36326)"/>
<mask id="path-4-inside-2_1610_36326" fill="white">
<path d="M8.49979 9.84887C8.14018 9.84867 7.78738 9.75073 7.47912 9.56553L0.823122 5.57153C0.724554 5.51226 0.642996 5.4285 0.586376 5.32839C0.529756 5.22828 0.5 5.11522 0.5 5.0002C0.5 4.88519 0.529756 4.77213 0.586376 4.67201C0.642996 4.5719 0.724554 4.48814 0.823122 4.42887L7.47912 0.434867C7.78737 0.249686 8.14019 0.151855 8.49979 0.151855C8.85938 0.151855 9.21221 0.249686 9.52046 0.434867L16.1765 4.42887C16.275 4.48814 16.3566 4.5719 16.4132 4.67201C16.4698 4.77213 16.4996 4.88519 16.4996 5.0002C16.4996 5.11522 16.4698 5.22828 16.4132 5.32839C16.3566 5.4285 16.275 5.51226 16.1765 5.57153L9.52046 9.56553C9.2122 9.75073 8.8594 9.84867 8.49979 9.84887V9.84887ZM2.46246 5.0002L8.16646 8.4222C8.2672 8.48246 8.3824 8.51429 8.49979 8.51429C8.61718 8.51429 8.73238 8.48246 8.83312 8.4222L14.5371 5.0002L8.83312 1.5782C8.73238 1.51794 8.61718 1.48611 8.49979 1.48611C8.3824 1.48611 8.2672 1.51794 8.16646 1.5782V1.5782L2.46246 5.0002Z"/>
</mask>
<path d="M8.49979 9.84887C8.14018 9.84867 7.78738 9.75073 7.47912 9.56553L0.823122 5.57153C0.724554 5.51226 0.642996 5.4285 0.586376 5.32839C0.529756 5.22828 0.5 5.11522 0.5 5.0002C0.5 4.88519 0.529756 4.77213 0.586376 4.67201C0.642996 4.5719 0.724554 4.48814 0.823122 4.42887L7.47912 0.434867C7.78737 0.249686 8.14019 0.151855 8.49979 0.151855C8.85938 0.151855 9.21221 0.249686 9.52046 0.434867L16.1765 4.42887C16.275 4.48814 16.3566 4.5719 16.4132 4.67201C16.4698 4.77213 16.4996 4.88519 16.4996 5.0002C16.4996 5.11522 16.4698 5.22828 16.4132 5.32839C16.3566 5.4285 16.275 5.51226 16.1765 5.57153L9.52046 9.56553C9.2122 9.75073 8.8594 9.84867 8.49979 9.84887V9.84887ZM2.46246 5.0002L8.16646 8.4222C8.2672 8.48246 8.3824 8.51429 8.49979 8.51429C8.61718 8.51429 8.73238 8.48246 8.83312 8.4222L14.5371 5.0002L8.83312 1.5782C8.73238 1.51794 8.61718 1.48611 8.49979 1.48611C8.3824 1.48611 8.2672 1.51794 8.16646 1.5782V1.5782L2.46246 5.0002Z" fill="white"/>
<path d="M7.47912 9.56553L18.4658 -8.7212L18.4558 -8.72716L7.47912 9.56553ZM0.823122 5.57153L-10.1703 23.8542L-10.1619 23.8592L-10.1536 23.8642L0.823122 5.57153ZM0.5 5.0002L-20.8333 5.0002L0.5 5.0002ZM0.823122 4.42887L-10.1536 -13.8638L-10.1619 -13.8588L-10.1703 -13.8538L0.823122 4.42887ZM7.47912 0.434867L18.4558 18.7276L18.4651 18.722L7.47912 0.434867ZM8.49979 0.151855L8.49979 -21.1815L8.49979 0.151855ZM9.52046 0.434867L-1.46553 18.722L-1.45627 18.7276L9.52046 0.434867ZM16.1765 4.42887L27.1699 -13.8538L27.1615 -13.8588L27.1532 -13.8638L16.1765 4.42887ZM16.1765 5.57153L27.1532 23.8642L27.1615 23.8592L27.1699 23.8542L16.1765 5.57153ZM9.52046 9.56553L-1.45627 -8.72717L-1.46619 -8.7212L9.52046 9.56553ZM2.46246 5.0002L-8.51251 -13.2935L-39.0056 5.0002L-8.51251 23.2939L2.46246 5.0002ZM8.16646 8.4222L-2.80851 26.7159L-2.79674 26.723L-2.78495 26.7301L8.16646 8.4222ZM8.83312 8.4222L19.7845 26.7301L19.7963 26.723L19.8081 26.7159L8.83312 8.4222ZM14.5371 5.0002L25.5121 23.2939L56.0052 5.0002L25.5121 -13.2935L14.5371 5.0002ZM8.83312 1.5782L19.8081 -16.7155L19.7963 -16.7226L19.7845 -16.7297L8.83312 1.5782ZM8.51153 -11.4845C12.0187 -11.4825 15.4594 -10.5274 18.4658 -8.7212L-3.50753 27.8523C0.115315 30.0289 4.26163 31.1799 8.48805 31.1822L8.51153 -11.4845ZM18.4558 -8.72716L11.7998 -12.7212L-10.1536 23.8642L-3.4976 27.8582L18.4558 -8.72716ZM11.8165 -12.7111C14.8721 -10.8738 17.4004 -8.27717 19.1557 -5.17363L-17.9829 15.8304C-16.1144 19.1342 -13.423 21.8983 -10.1703 23.8542L11.8165 -12.7111ZM19.1557 -5.17363C20.9109 -2.07011 21.8333 1.43473 21.8333 5.0002L-20.8333 5.0002C-20.8333 8.79571 -19.8514 12.5267 -17.9829 15.8304L19.1557 -5.17363ZM21.8333 5.0002C21.8333 8.56568 20.9109 12.0705 19.1557 15.174L-17.9829 -5.83001C-19.8514 -2.52626 -20.8333 1.20469 -20.8333 5.0002L21.8333 5.0002ZM19.1557 15.174C17.4004 18.2776 14.8721 20.8742 11.8165 22.7115L-10.1703 -13.8538C-13.423 -11.8979 -16.1144 -9.13377 -17.9829 -5.83001L19.1557 15.174ZM11.7998 22.7216L18.4558 18.7276L-3.4976 -17.8578L-10.1536 -13.8638L11.7998 22.7216ZM18.4651 18.722C15.4555 20.53 12.0107 21.4852 8.49979 21.4852L8.49979 -21.1815C4.26966 -21.1815 0.119237 -20.0306 -3.50687 -17.8523L18.4651 18.722ZM8.49979 21.4852C4.98886 21.4852 1.54407 20.53 -1.46553 18.722L20.5064 -17.8523C16.8803 -20.0306 12.7299 -21.1815 8.49979 -21.1815V21.4852ZM-1.45627 18.7276L5.19973 22.7216L27.1532 -13.8638L20.4972 -17.8578L-1.45627 18.7276ZM5.18304 22.7115C2.12746 20.8742 -0.40085 18.2776 -2.15609 15.174L34.9825 -5.83001C33.114 -9.1338 30.4226 -11.8979 27.1699 -13.8538L5.18304 22.7115ZM-2.15609 15.174C-3.91132 12.0705 -4.83376 8.56567 -4.83376 5.0002H37.8329C37.8329 1.2047 36.851 -2.52625 34.9825 -5.83001L-2.15609 15.174ZM-4.83376 5.0002C-4.83376 1.43473 -3.91132 -2.0701 -2.15609 -5.17363L34.9825 15.8304C36.851 12.5267 37.8329 8.7957 37.8329 5.0002H-4.83376ZM-2.15609 -5.17363C-0.40085 -8.27719 2.12746 -10.8738 5.18304 -12.7111L27.1699 23.8542C30.4226 21.8983 33.114 19.1342 34.9825 15.8304L-2.15609 -5.17363ZM5.19974 -12.7212L-1.45626 -8.72716L20.4972 27.8582L27.1532 23.8642L5.19974 -12.7212ZM-1.46619 -8.7212C1.54013 -10.5274 4.98085 -11.4825 8.48805 -11.4845L8.51153 31.1822C12.7379 31.1799 16.8843 30.0289 20.5071 27.8523L-1.46619 -8.7212ZM-8.51251 23.2939L-2.80851 26.7159L19.1414 -9.87155L13.4374 -13.2935L-8.51251 23.2939ZM-2.78495 26.7301C0.625693 28.7702 4.52559 29.8476 8.49979 29.8476V-12.819C12.2392 -12.819 15.9087 -11.8053 19.1179 -9.88566L-2.78495 26.7301ZM8.49979 29.8476C12.474 29.8476 16.3739 28.7702 19.7845 26.7301L-2.11828 -9.88566C1.09087 -11.8053 4.76038 -12.819 8.49979 -12.819V29.8476ZM19.8081 26.7159L25.5121 23.2939L3.56215 -13.2935L-2.14185 -9.87155L19.8081 26.7159ZM25.5121 -13.2935L19.8081 -16.7155L-2.14185 19.8719L3.56215 23.2939L25.5121 -13.2935ZM19.7845 -16.7297C16.3739 -18.7698 12.474 -19.8472 8.49979 -19.8472V22.8194C4.76034 22.8194 1.09084 21.8057 -2.11828 19.8861L19.7845 -16.7297ZM8.49979 -19.8472C4.52555 -19.8472 0.625659 -18.7698 -2.78495 -16.7297L19.1179 19.8861C15.9087 21.8057 12.2392 22.8194 8.49979 22.8194V-19.8472ZM-2.80851 -16.7155L-8.51251 -13.2935L13.4374 23.2939L19.1414 19.8719L-2.80851 -16.7155Z" fill="white" mask="url(#path-4-inside-2_1610_36326)"/>
</g>
<defs>
<clipPath id="clip0_1610_36326">
<rect width="16" height="16" fill="white" transform="translate(0.5)"/>
</clipPath>
</defs>
</svg>
