<svg width="17" height="16" viewBox="0 0 17 16" fill="none" xmlns="http://www.w3.org/2000/svg">
<g clip-path="url(#clip0_1610_36359)">
<path d="M15.682 5.1475C15.3694 4.78724 14.983 4.49836 14.5491 4.30041C14.1151 4.10246 13.6436 4.00007 13.1667 4.00017H10.5073L10.7313 2.6395C10.8106 2.16034 10.715 1.66866 10.4619 1.25413C10.2088 0.8396 9.81521 0.529845 9.3528 0.381365C8.89038 0.232884 8.39 0.255571 7.94292 0.445287C7.49584 0.635003 7.13184 0.979107 6.91733 1.41484L5.64133 4.00017H3.83333C2.9496 4.00123 2.10237 4.35276 1.47748 4.97765C0.852588 5.60254 0.501059 6.44977 0.5 7.3335L0.5 10.6668C0.501059 11.5506 0.852588 12.3978 1.47748 13.0227C2.10237 13.6476 2.9496 13.9991 3.83333 14.0002H12.7C13.5023 13.9969 14.2768 13.7057 14.8825 13.1796C15.4883 12.6535 15.8851 11.9274 16.0007 11.1335L16.4707 7.80017C16.5369 7.32733 16.5007 6.84578 16.3646 6.38812C16.2286 5.93047 15.9958 5.50738 15.682 5.1475ZM1.83333 10.6668V7.3335C1.83333 6.80307 2.04405 6.29436 2.41912 5.91929C2.79419 5.54422 3.3029 5.3335 3.83333 5.3335H5.16667V12.6668H3.83333C3.3029 12.6668 2.79419 12.4561 2.41912 12.0811C2.04405 11.706 1.83333 11.1973 1.83333 10.6668ZM15.1473 7.61284L14.6767 10.9462C14.6079 11.4222 14.3705 11.8576 14.0077 12.1734C13.645 12.4892 13.1809 12.6643 12.7 12.6668H6.5V5.15617C6.56283 5.10143 6.61484 5.03541 6.65333 4.9615L8.11267 2.00484C8.16739 1.90612 8.24476 1.8218 8.33842 1.75881C8.43207 1.69582 8.53934 1.65595 8.6514 1.64248C8.76346 1.62901 8.87712 1.64232 8.98304 1.68132C9.08896 1.72033 9.1841 1.78391 9.26067 1.86684C9.32617 1.943 9.37405 2.03268 9.4009 2.12948C9.42775 2.22628 9.43291 2.32782 9.416 2.42684L9.064 4.56017C9.04855 4.65549 9.05399 4.75303 9.07995 4.84604C9.10591 4.93905 9.15176 5.02531 9.21433 5.09886C9.27691 5.1724 9.35472 5.23147 9.44237 5.27199C9.53003 5.3125 9.62544 5.33349 9.722 5.3335H13.1667C13.4529 5.33347 13.7359 5.39488 13.9964 5.5136C14.2569 5.63232 14.4888 5.80558 14.6766 6.02166C14.8644 6.23774 15.0036 6.49162 15.0848 6.76613C15.166 7.04063 15.1873 7.32938 15.1473 7.61284Z" fill="white"/>
</g>
<defs>
<clipPath id="clip0_1610_36359">
<rect width="16" height="16" fill="white" transform="translate(0.5)"/>
</clipPath>
</defs>
</svg>
