<svg width="15" height="16" viewBox="0 0 15 16" fill="none" xmlns="http://www.w3.org/2000/svg">
<path d="M10.8335 0H4.16683C3.2831 0.00105857 2.43587 0.352588 1.81098 0.977479C1.18608 1.60237 0.834555 2.4496 0.833496 3.33333V12.6667C0.834555 13.5504 1.18608 14.3976 1.81098 15.0225C2.43587 15.6474 3.2831 15.9989 4.16683 16H10.8335C11.7172 15.9989 12.5645 15.6474 13.1893 15.0225C13.8142 14.3976 14.1658 13.5504 14.1668 12.6667V3.33333C14.1658 2.4496 13.8142 1.60237 13.1893 0.977479C12.5645 0.352588 11.7172 0.00105857 10.8335 0V0ZM4.16683 1.33333H10.8335C11.3639 1.33333 11.8726 1.54405 12.2477 1.91912C12.6228 2.29419 12.8335 2.8029 12.8335 3.33333V7.33333H2.16683V3.33333C2.16683 2.8029 2.37754 2.29419 2.75262 1.91912C3.12769 1.54405 3.6364 1.33333 4.16683 1.33333V1.33333ZM10.8335 14.6667H4.16683C3.6364 14.6667 3.12769 14.4559 2.75262 14.0809C2.37754 13.7058 2.16683 13.1971 2.16683 12.6667V8.66666H12.8335V12.6667C12.8335 13.1971 12.6228 13.7058 12.2477 14.0809C11.8726 14.4559 11.3639 14.6667 10.8335 14.6667Z" fill="#22B27E"/>
</svg>
