<svg width="16" height="16" viewBox="0 0 16 16" fill="none" xmlns="http://www.w3.org/2000/svg">
<mask id="path-1-inside-1_1941_40063" fill="white">
<path d="M6.80461 0.0456866H6.79995C6.6506 0.0119462 6.49419 0.0306398 6.35701 0.098626C6.21982 0.166612 6.11022 0.279747 6.04661 0.41902L0.249944 13.173C0.11153 13.4777 0.051758 13.8121 0.0761012 14.1459C0.100444 14.4796 0.208125 14.8019 0.389282 15.0832C0.570439 15.3645 0.819282 15.5959 1.11302 15.7561C1.40676 15.9163 1.73601 16.0003 2.07061 16.0004H6.66661C6.84342 16.0004 7.01299 15.9301 7.13802 15.8051C7.26304 15.6801 7.33328 15.5105 7.33328 15.3337V0.697687C7.33201 0.545204 7.27902 0.397669 7.18298 0.279225C7.08694 0.160781 6.95354 0.0784434 6.80461 0.0456866ZM5.99995 14.667H2.07061C1.95901 14.6671 1.84917 14.6392 1.75117 14.5858C1.65317 14.5324 1.57015 14.4552 1.5097 14.3614C1.44926 14.2676 1.41334 14.1601 1.40523 14.0488C1.39711 13.9375 1.41707 13.8259 1.46328 13.7244L5.99995 3.74435V14.667Z"/>
<path d="M15.7498 13.172L9.95317 0.417969C9.88654 0.277898 9.77412 0.164753 9.63447 0.0972349C9.49483 0.0297166 9.33633 0.0118666 9.18517 0.0466352C9.03786 0.0801758 8.9063 0.16276 8.81207 0.280855C8.71784 0.39895 8.66651 0.545551 8.6665 0.696635V15.3326C8.6665 15.5094 8.73674 15.679 8.86177 15.804C8.98679 15.9291 9.15636 15.9993 9.33317 15.9993H13.9292C14.2638 15.9993 14.593 15.9153 14.8868 15.7551C15.1805 15.5948 15.4293 15.3634 15.6105 15.0821C15.7916 14.8008 15.8993 14.4785 15.9237 14.1448C15.948 13.8111 15.8882 13.4766 15.7498 13.172Z"/>
</mask>
<path d="M6.80461 0.0456866H6.79995C6.6506 0.0119462 6.49419 0.0306398 6.35701 0.098626C6.21982 0.166612 6.11022 0.279747 6.04661 0.41902L0.249944 13.173C0.11153 13.4777 0.051758 13.8121 0.0761012 14.1459C0.100444 14.4796 0.208125 14.8019 0.389282 15.0832C0.570439 15.3645 0.819282 15.5959 1.11302 15.7561C1.40676 15.9163 1.73601 16.0003 2.07061 16.0004H6.66661C6.84342 16.0004 7.01299 15.9301 7.13802 15.8051C7.26304 15.6801 7.33328 15.5105 7.33328 15.3337V0.697687C7.33201 0.545204 7.27902 0.397669 7.18298 0.279225C7.08694 0.160781 6.95354 0.0784434 6.80461 0.0456866ZM5.99995 14.667H2.07061C1.95901 14.6671 1.84917 14.6392 1.75117 14.5858C1.65317 14.5324 1.57015 14.4552 1.5097 14.3614C1.44926 14.2676 1.41334 14.1601 1.40523 14.0488C1.39711 13.9375 1.41707 13.8259 1.46328 13.7244L5.99995 3.74435V14.667Z" fill="#22B27E"/>
<path d="M15.7498 13.172L9.95317 0.417969C9.88654 0.277898 9.77412 0.164753 9.63447 0.0972349C9.49483 0.0297166 9.33633 0.0118666 9.18517 0.0466352C9.03786 0.0801758 8.9063 0.16276 8.81207 0.280855C8.71784 0.39895 8.66651 0.545551 8.6665 0.696635V15.3326C8.6665 15.5094 8.73674 15.679 8.86177 15.804C8.98679 15.9291 9.15636 15.9993 9.33317 15.9993H13.9292C14.2638 15.9993 14.593 15.9153 14.8868 15.7551C15.1805 15.5948 15.4293 15.3634 15.6105 15.0821C15.7916 14.8008 15.8993 14.4785 15.9237 14.1448C15.948 13.8111 15.8882 13.4766 15.7498 13.172Z" fill="#22B27E"/>
<path d="M6.80461 0.0456866L11.3874 -20.7896L9.12305 -21.2876H6.80461V0.0456866ZM6.79995 0.0456866L2.09875 20.8546L4.42009 21.379H6.79995V0.0456866ZM6.04661 0.41902L-13.3589 -8.4432L-13.3669 -8.42561L-13.3749 -8.40801L6.04661 0.41902ZM0.249944 13.173L-19.1716 4.34599L-19.1725 4.34813L0.249944 13.173ZM2.07061 16.0004L2.06858 37.3337H2.07061V16.0004ZM7.33328 0.697687H28.6666V0.608751L28.6659 0.519819L7.33328 0.697687ZM5.99995 14.667V36.0004H27.3333V14.667H5.99995ZM2.07061 14.667V-6.66631H2.0629L2.05518 -6.66631L2.07061 14.667ZM1.46328 13.7244L20.8825 22.5564L20.8842 22.5526L1.46328 13.7244ZM5.99995 3.74435H27.3333L-13.421 -5.08393L5.99995 3.74435ZM15.7498 13.172L35.1723 4.34709L35.1713 4.34495L15.7498 13.172ZM9.95317 0.417969L29.3747 -8.40905L29.2979 -8.57802L29.2182 -8.74562L9.95317 0.417969ZM9.18517 0.0466352L13.9212 20.8476L13.9442 20.8424L13.9672 20.8371L9.18517 0.0466352ZM8.6665 0.696635L-12.6668 0.69564V0.696635H8.6665ZM13.9292 15.9993L13.9292 37.3326L13.9312 37.3326L13.9292 15.9993ZM6.80461 -21.2876H6.79995V21.379H6.80461V-21.2876ZM11.5011 -20.7632C6.57277 -21.8766 1.41133 -21.2597 -3.11583 -19.0162L15.8298 19.2135C11.5771 21.321 6.72844 21.9005 2.09875 20.8546L11.5011 -20.7632ZM-3.11583 -19.0162C-7.64296 -16.7727 -11.2599 -13.0392 -13.3589 -8.4432L25.4521 9.28124C23.4803 13.5987 20.0826 17.1059 15.8298 19.2135L-3.11583 -19.0162ZM-13.3749 -8.40801L-19.1716 4.34599L19.6714 22.0001L25.4681 9.24605L-13.3749 -8.40801ZM-19.1725 4.34813C-20.7874 7.90216 -21.4847 11.8046 -21.2007 15.6979L21.3529 12.5938C21.5882 15.8197 21.0104 19.0531 19.6724 21.9979L-19.1725 4.34813ZM-21.2007 15.6979C-20.9167 19.5913 -19.6604 23.3512 -17.5469 26.6332L18.3255 3.53312C20.0767 6.25255 21.1176 9.36788 21.3529 12.5938L-21.2007 15.6979ZM-17.5469 26.6332C-15.4334 29.9153 -12.5303 32.6147 -9.1033 34.4841L11.3293 -2.9719C14.1688 -1.42293 16.5743 0.813691 18.3255 3.53312L-17.5469 26.6332ZM-9.1033 34.4841C-5.67634 36.3535 -1.83512 37.3333 2.06858 37.3337L2.07264 -5.33298C5.30714 -5.33267 8.48987 -4.52086 11.3293 -2.9719L-9.1033 34.4841ZM2.07061 37.3337H6.66661V-5.33298H2.07061V37.3337ZM6.66661 37.3337C12.5014 37.3337 18.0971 35.0158 22.223 30.89L-7.94693 0.720147C-4.07116 -3.15562 1.18549 -5.33298 6.66661 -5.33298V37.3337ZM22.223 30.89C26.3488 26.7642 28.6666 21.1684 28.6666 15.3337H-14.0001C-14.0001 9.85258 -11.8227 4.59592 -7.94693 0.720147L22.223 30.89ZM28.6666 15.3337V0.697687H-14.0001V15.3337H28.6666ZM28.6659 0.519819C28.6243 -4.46378 26.8924 -9.2857 23.7535 -13.1568L-9.38759 13.7153C-12.3344 10.081 -13.9603 5.55419 -13.9993 0.875554L28.6659 0.519819ZM23.7535 -13.1568C20.6147 -17.0279 16.2548 -19.719 11.3874 -20.7896L2.22186 20.881C-2.34773 19.8759 -6.44082 17.3495 -9.38759 13.7153L23.7535 -13.1568ZM5.99995 -6.66631H2.07061V36.0004H5.99995V-6.66631ZM2.05518 -6.66631C5.51497 -6.66881 8.91986 -5.80268 11.9577 -4.14756L-8.45536 33.3191C-5.22151 35.081 -1.59695 36.003 2.08604 36.0003L2.05518 -6.66631ZM11.9577 -4.14756C14.9956 -2.4924 17.5695 -0.101051 19.4433 2.80731L-16.4239 25.9155C-14.4292 29.0115 -11.6893 31.5572 -8.45536 33.3191L11.9577 -4.14756ZM19.4433 2.80731C21.317 5.71561 22.4307 9.04776 22.6821 12.4982L-19.8717 15.5994C-19.604 19.2725 -18.4185 22.8196 -16.4239 25.9155L19.4433 2.80731ZM22.6821 12.4982C22.9336 15.9487 22.3148 19.4071 20.8825 22.5564L-17.956 4.89235C-19.4807 8.24476 -20.1394 11.9263 -19.8717 15.5994L22.6821 12.4982ZM20.8842 22.5526L25.4209 12.5726L-13.421 -5.08393L-17.9577 4.89607L20.8842 22.5526ZM-15.3334 3.74435V14.667H27.3333V3.74435H-15.3334ZM35.1713 4.34495L29.3747 -8.40905L-9.46834 9.24499L-3.67168 21.999L35.1713 4.34495ZM29.2182 -8.74562C27.0654 -13.2715 23.4328 -16.9273 18.9208 -19.1089L0.348164 19.3034C-3.88456 17.2568 -7.2923 13.8273 -9.31182 9.58156L29.2182 -8.74562ZM18.9208 -19.1089C14.4088 -21.2905 9.28742 -21.8673 4.40318 -20.7438L13.9672 20.8371C9.38525 21.891 4.5809 21.3499 0.348164 19.3034L18.9208 -19.1089ZM4.44916 -20.7544C-0.412178 -19.6475 -4.75342 -16.9222 -7.86315 -13.0251L25.4873 13.5868C22.566 17.2478 18.4879 19.8079 13.9212 20.8476L4.44916 -20.7544ZM-7.86315 -13.0251C-10.9729 -9.12794 -12.6666 -4.2901 -12.6668 0.69564L29.9998 0.697631C29.9996 5.3812 28.4085 9.92584 25.4873 13.5868L-7.86315 -13.0251ZM-12.6668 0.696635V15.3326H29.9998V0.696635H-12.6668ZM-12.6668 15.3326C-12.6668 21.1674 -10.349 26.7632 -6.22319 30.889L23.9467 0.719106C27.8225 4.59487 29.9998 9.85152 29.9998 15.3326H-12.6668ZM-6.22319 30.889C-2.09732 35.0148 3.4985 37.3326 9.33317 37.3326V-5.33403C14.8142 -5.33403 20.0709 -3.15672 23.9467 0.719106L-6.22319 30.889ZM9.33317 37.3326H13.9292V-5.33403H9.33317V37.3326ZM13.9312 37.3326C17.8349 37.3323 21.6761 36.3525 25.1031 34.483L4.67042 -2.97294C7.50994 -4.52193 10.6927 -5.33372 13.9271 -5.33403L13.9312 37.3326ZM25.1031 34.483C28.5301 32.6136 31.4332 29.9142 33.5467 26.6322L-2.32572 3.53208C-0.574567 0.812689 1.8309 -1.42395 4.67042 -2.97294L25.1031 34.483ZM33.5467 26.6322C35.6602 23.3501 36.9165 19.5902 37.2005 15.6969L-5.35313 12.5928C-5.11781 9.36681 -4.07688 6.25148 -2.32572 3.53208L33.5467 26.6322ZM37.2005 15.6969C37.4845 11.8035 36.7871 7.90111 35.1723 4.34709L-3.67265 21.9969C-5.01064 19.0521 -5.58845 15.8187 -5.35313 12.5928L37.2005 15.6969Z" fill="#22B27E" mask="url(#path-1-inside-1_1941_40063)"/>
</svg>
