<svg width="16" height="16" viewBox="0 0 16 16" fill="none" xmlns="http://www.w3.org/2000/svg">
<g clip-path="url(#clip0_1892_2972)">
<path d="M6.80461 0.0456866H6.79995C6.6506 0.0119462 6.49419 0.0306398 6.35701 0.098626C6.21982 0.166612 6.11022 0.279747 6.04661 0.41902L0.249944 13.173C0.11153 13.4777 0.051758 13.8121 0.0761012 14.1459C0.100444 14.4796 0.208125 14.8019 0.389282 15.0832C0.570439 15.3645 0.819282 15.5959 1.11302 15.7561C1.40676 15.9163 1.73601 16.0003 2.07061 16.0004H6.66661C6.84342 16.0004 7.01299 15.9301 7.13802 15.8051C7.26304 15.6801 7.33328 15.5105 7.33328 15.3337V0.697687C7.33201 0.545204 7.27902 0.397669 7.18298 0.279225C7.08694 0.160781 6.95354 0.0784434 6.80461 0.0456866V0.0456866ZM5.99995 14.667H2.07061C1.95901 14.6671 1.84917 14.6392 1.75117 14.5858C1.65317 14.5324 1.57015 14.4552 1.5097 14.3614C1.44926 14.2676 1.41334 14.1601 1.40523 14.0488C1.39711 13.9375 1.41707 13.8259 1.46328 13.7244L5.99995 3.74435V14.667Z" fill="#22B27E"/>
<path d="M8.6665 7.11326L8.6665 10.6105L8.6665 10.6734C8.70248 10.6758 8.73847 10.678 8.77447 10.6801C8.96042 10.6906 9.14672 10.6959 9.33317 10.696C10.0755 10.6963 10.8202 10.6139 11.5532 10.4471C11.5536 10.447 11.554 10.4469 11.5544 10.4469C11.56 10.4456 11.5656 10.4443 11.5711 10.443M8.6665 7.11326L9.52722 15.9993L10.9945 15.3326L13.929 13.9993L13.9287 10.7371L13.9286 9.57825M8.6665 7.11326C8.88104 6.94931 9.10348 6.79519 9.33317 6.65153C9.47878 6.56046 9.62731 6.47358 9.77859 6.39106C10.0286 6.2547 10.2845 6.13108 10.5453 6.02046C10.5495 6.01867 10.5537 6.01688 10.558 6.0151C10.9343 5.85623 11.3208 5.72438 11.7146 5.6203M8.6665 7.11326L11.7146 5.6203M11.5711 10.443C11.5724 10.4427 11.5736 10.4425 11.5748 10.4422L11.5647 10.4445L11.5552 10.4467C11.5605 10.4455 11.5658 10.4442 11.5711 10.443ZM11.5711 10.443C11.5728 10.4426 11.5745 10.4423 11.5762 10.4419C11.6978 10.4139 11.8187 10.3836 11.9389 10.3512C12.6313 10.1643 13.298 9.90453 13.9286 9.57825M13.9286 9.57825L13.9285 9.16465L12.4069 5.81673C12.1788 5.74304 11.9479 5.67751 11.7146 5.6203M13.9286 9.57825C13.9288 9.57815 13.929 9.57804 13.9292 9.57794M11.7146 5.6203L13.9291 15.3326L13.929 13.9995L13.9291 13.9995L13.9292 13.9995L13.9292 13.9994L13.9294 13.9993L15.7467 13.1734L13.9292 13.9992V10.7366V9.57794M13.9292 9.57794V9.16608L14.0801 9.49818C14.03 9.52519 13.9797 9.55178 13.9292 9.57794ZM9.34004 0.696635H9.33468L9.33317 0.696665L9.33317 0.696666L9.33468 0.696666L9.33997 0.696667L9.33564 0.698635L9.33518 0.698842L9.33381 0.699467L8.6665 1.00275V0.696635C8.66651 0.545551 8.71784 0.39895 8.81207 0.280855C8.9063 0.16276 9.03786 0.0801758 9.18517 0.0466352C9.33633 0.0118666 9.49483 0.0297166 9.63448 0.0972349C9.77412 0.164753 9.88654 0.277898 9.95317 0.417969L9.34004 0.696635Z" fill="#22B27E" stroke="#22B27E" stroke-width="21.3333"/>
</g>
<defs>
<clipPath id="clip0_1892_2972">
<rect width="16" height="16" fill="white"/>
</clipPath>
</defs>
</svg>
