<svg width="16" height="16" viewBox="0 0 16 16" fill="none" xmlns="http://www.w3.org/2000/svg">
<g clip-path="url(#clip0_960_34045)">
<path d="M6.80461 0.0456866H6.79995C6.6506 0.0119462 6.49419 0.0306398 6.35701 0.098626C6.21982 0.166612 6.11022 0.279747 6.04661 0.41902L0.249944 13.173C0.11153 13.4777 0.051758 13.8121 0.0761012 14.1459C0.100444 14.4796 0.208125 14.8019 0.389282 15.0832C0.570439 15.3645 0.819282 15.5959 1.11302 15.7561C1.40676 15.9163 1.73601 16.0003 2.07061 16.0004H6.66661C6.84342 16.0004 7.01299 15.9301 7.13802 15.8051C7.26304 15.6801 7.33328 15.5105 7.33328 15.3337V0.697687C7.33201 0.545204 7.27902 0.397669 7.18298 0.279225C7.08694 0.160781 6.95354 0.0784434 6.80461 0.0456866ZM5.99995 14.667H2.07061C1.95901 14.6671 1.84917 14.6392 1.75117 14.5858C1.65317 14.5324 1.57015 14.4552 1.5097 14.3614C1.44926 14.2676 1.41334 14.1601 1.40523 14.0488C1.39711 13.9375 1.41707 13.8259 1.46328 13.7244L5.99995 3.74435V14.667Z" fill="white"/>
<path d="M15.75 13.1725L9.95329 0.418457C9.88667 0.278386 9.77424 0.165241 9.6346 0.0977232C9.49495 0.0302049 9.33645 0.0123549 9.18529 0.0471235C9.03798 0.0806641 8.90643 0.163248 8.81219 0.281343C8.71796 0.399438 8.66663 0.546039 8.66663 0.697123V15.3331C8.66663 15.5099 8.73686 15.6795 8.86189 15.8045C8.98691 15.9296 9.15648 15.9998 9.33329 15.9998H13.9293C14.2639 15.9998 14.5931 15.9158 14.8869 15.7555C15.1806 15.5953 15.4295 15.3639 15.6106 15.0826C15.7918 14.8013 15.8995 14.479 15.9238 14.1453C15.9481 13.8116 15.8884 13.4771 15.75 13.1725Z" fill="white"/>
</g>
<defs>
<clipPath id="clip0_960_34045">
<rect width="16" height="16" fill="white"/>
</clipPath>
</defs>
</svg>
