<svg width="17" height="16" viewBox="0 0 17 16" fill="none" xmlns="http://www.w3.org/2000/svg">
<path d="M16.5 16H8.5C6.91775 16 5.37104 15.5308 4.05544 14.6518C2.73985 13.7727 1.71447 12.5233 1.10897 11.0615C0.503466 9.59966 0.34504 7.99113 0.653721 6.43928C0.962403 4.88743 1.72433 3.46197 2.84315 2.34315C3.96197 1.22433 5.38743 0.462403 6.93928 0.153721C8.49113 -0.15496 10.0997 0.00346629 11.5615 0.608967C13.0233 1.21447 14.2727 2.23985 15.1518 3.55544C16.0308 4.87104 16.5 6.41775 16.5 8V16ZM8.5 1.33334C6.73189 1.33334 5.0362 2.03572 3.78596 3.28596C2.53572 4.5362 1.83334 6.23189 1.83334 8C1.83334 9.76811 2.53572 11.4638 3.78596 12.7141C5.0362 13.9643 6.73189 14.6667 8.5 14.6667H15.1667V8C15.1647 6.23249 14.4617 4.53792 13.2119 3.2881C11.9621 2.03828 10.2675 1.33528 8.5 1.33334V1.33334ZM8.43934 10.946L12.9667 6.47467L12.0333 5.52534L7.496 9.992L4.96667 7.52334L4.03334 8.47667L6.55667 10.9433C6.80657 11.1923 7.14493 11.3321 7.49767 11.3321C7.85041 11.3321 8.18877 11.1923 8.43867 10.9433L8.43934 10.946Z" fill="white"/>
</svg>
