<svg width="15" height="16" viewBox="0 0 15 16" fill="none" xmlns="http://www.w3.org/2000/svg">
<path d="M12.7995 3.69093L10.4768 1.36693C10.0444 0.932352 9.53007 0.587813 8.96365 0.353232C8.39722 0.118651 7.78991 -0.00131844 7.17683 0.000259506H4.16683C3.2831 0.00131808 2.43587 0.352847 1.81098 0.977739C1.18608 1.60263 0.834555 2.44986 0.833496 3.33359V12.6669C0.834555 13.5507 1.18608 14.3979 1.81098 15.0228C2.43587 15.6477 3.2831 15.9992 4.16683 16.0003H10.8335C11.7172 15.9992 12.5645 15.6477 13.1894 15.0228C13.8142 14.3979 14.1658 13.5507 14.1668 12.6669V6.99026C14.1685 6.37721 14.0485 5.76992 13.8138 5.20358C13.5791 4.63723 13.2343 4.12309 12.7995 3.69093V3.69093ZM11.8568 4.63359C12.0604 4.84302 12.2355 5.07839 12.3775 5.33359H9.50016C9.32335 5.33359 9.15378 5.26335 9.02876 5.13833C8.90373 5.01331 8.8335 4.84374 8.8335 4.66693V1.78959C9.08879 1.93154 9.32435 2.10637 9.53416 2.30959L11.8568 4.63359ZM12.8335 12.6669C12.8335 13.1974 12.6228 13.7061 12.2477 14.0811C11.8726 14.4562 11.3639 14.6669 10.8335 14.6669H4.16683C3.6364 14.6669 3.12769 14.4562 2.75262 14.0811C2.37754 13.7061 2.16683 13.1974 2.16683 12.6669V3.33359C2.16683 2.80316 2.37754 2.29445 2.75262 1.91938C3.12769 1.54431 3.6364 1.33359 4.16683 1.33359H7.17683C7.28616 1.33359 7.39216 1.35493 7.50016 1.36493V4.66693C7.50016 5.19736 7.71088 5.70607 8.08595 6.08114C8.46102 6.45621 8.96973 6.66693 9.50016 6.66693H12.8022C12.8122 6.77493 12.8335 6.88026 12.8335 6.99026V12.6669Z" fill="#22B27E"/>
</svg>
