<svg width="16" height="16" viewBox="0 0 16 16" fill="none" xmlns="http://www.w3.org/2000/svg">
<g clip-path="url(#clip0_1892_3618)">
<path d="M3 11.666H1.33333C0.979711 11.666 0.640573 11.8065 0.390524 12.0565C0.140476 12.3066 0 12.6457 0 12.9993L0 14.666C0 15.0196 0.140476 15.3588 0.390524 15.6088C0.640573 15.8589 0.979711 15.9993 1.33333 15.9993H3C3.35362 15.9993 3.69276 15.8589 3.94281 15.6088C4.19286 15.3588 4.33333 15.0196 4.33333 14.666V12.9993C4.33333 12.6457 4.19286 12.3066 3.94281 12.0565C3.69276 11.8065 3.35362 11.666 3 11.666ZM3 14.666H1.33333V12.9993H3V14.666Z" fill="#22B27E"/>
<mask id="path-2-inside-1_1892_3618" fill="white">
<path d="M14.6665 11.666H12.9998C12.6462 11.666 12.3071 11.8065 12.057 12.0565C11.807 12.3066 11.6665 12.6457 11.6665 12.9993V14.666C11.6665 15.0196 11.807 15.3588 12.057 15.6088C12.3071 15.8589 12.6462 15.9993 12.9998 15.9993H14.6665C15.0201 15.9993 15.3593 15.8589 15.6093 15.6088C15.8594 15.3588 15.9998 15.0196 15.9998 14.666V12.9993C15.9998 12.6457 15.8594 12.3066 15.6093 12.0565C15.3593 11.8065 15.0201 11.666 14.6665 11.666ZM14.6665 14.666H12.9998V12.9993H14.6665V14.666Z"/>
</mask>
<path d="M14.6665 11.666H12.9998C12.6462 11.666 12.3071 11.8065 12.057 12.0565C11.807 12.3066 11.6665 12.6457 11.6665 12.9993V14.666C11.6665 15.0196 11.807 15.3588 12.057 15.6088C12.3071 15.8589 12.6462 15.9993 12.9998 15.9993H14.6665C15.0201 15.9993 15.3593 15.8589 15.6093 15.6088C15.8594 15.3588 15.9998 15.0196 15.9998 14.666V12.9993C15.9998 12.6457 15.8594 12.3066 15.6093 12.0565C15.3593 11.8065 15.0201 11.666 14.6665 11.666ZM14.6665 14.666H12.9998V12.9993H14.6665V14.666Z" fill="#22B27E"/>
<path d="M14.6665 14.666V35.9993H35.9998V14.666H14.6665ZM12.9998 14.666H-8.3335V35.9993H12.9998V14.666ZM12.9998 12.9993V-8.33399H-8.3335V12.9993H12.9998ZM14.6665 12.9993H35.9998V-8.33399H14.6665V12.9993ZM14.6665 -9.66732H12.9998V32.9993H14.6665V-9.66732ZM12.9998 -9.66732C6.98824 -9.66732 1.22289 -7.27922 -3.02792 -3.0284L27.142 27.1415C23.3913 30.8922 18.3042 32.9993 12.9998 32.9993V-9.66732ZM-3.02792 -3.0284C-7.27873 1.22241 -9.66683 6.98776 -9.66683 12.9993H32.9998C32.9998 18.3037 30.8927 23.3908 27.142 27.1415L-3.02792 -3.0284ZM-9.66683 12.9993V14.666H32.9998V12.9993H-9.66683ZM-9.66683 14.666C-9.66683 20.6776 -7.27873 26.4429 -3.02792 30.6938L27.142 0.523871C30.8927 4.27459 32.9998 9.36166 32.9998 14.666H-9.66683ZM-3.02792 30.6938C1.22289 34.9446 6.98824 37.3327 12.9998 37.3327V-5.334C18.3042 -5.334 23.3913 -3.22685 27.142 0.523871L-3.02792 30.6938ZM12.9998 37.3327H14.6665V-5.334H12.9998V37.3327ZM14.6665 37.3327C20.6781 37.3327 26.4434 34.9446 30.6943 30.6938L0.524357 0.523871C4.27507 -3.22685 9.36215 -5.334 14.6665 -5.334V37.3327ZM30.6943 30.6938C34.9451 26.4429 37.3332 20.6776 37.3332 14.666H-5.33351C-5.33351 9.36166 -3.22636 4.27459 0.524357 0.523871L30.6943 30.6938ZM37.3332 14.666V12.9993H-5.33351V14.666H37.3332ZM37.3332 12.9993C37.3332 6.98776 34.9451 1.22241 30.6943 -3.0284L0.524357 27.1415C-3.22636 23.3908 -5.33351 18.3037 -5.33351 12.9993H37.3332ZM30.6943 -3.0284C26.4434 -7.27922 20.6781 -9.66732 14.6665 -9.66732V32.9993C9.36215 32.9993 4.27507 30.8922 0.524357 27.1415L30.6943 -3.0284ZM14.6665 -6.66733H12.9998V35.9993H14.6665V-6.66733ZM34.3332 14.666V12.9993H-8.3335V14.666H34.3332ZM12.9998 34.3327H14.6665V-8.33399H12.9998V34.3327ZM-6.66684 12.9993V14.666H35.9998V12.9993H-6.66684Z" fill="#22B27E" mask="url(#path-2-inside-1_1892_3618)"/>
<mask id="path-4-inside-2_1892_3618" fill="white">
<path d="M3 5.83398H1.33333C0.979711 5.83398 0.640573 5.97446 0.390524 6.22451C0.140476 6.47456 0 6.81369 0 7.16731L0 8.83398C0 9.1876 0.140476 9.52674 0.390524 9.77678C0.640573 10.0268 0.979711 10.1673 1.33333 10.1673H3C3.35362 10.1673 3.69276 10.0268 3.94281 9.77678C4.19286 9.52674 4.33333 9.1876 4.33333 8.83398V7.16731C4.33333 6.81369 4.19286 6.47456 3.94281 6.22451C3.69276 5.97446 3.35362 5.83398 3 5.83398ZM3 8.83398H1.33333V7.16731H3V8.83398Z"/>
</mask>
<path d="M3 5.83398H1.33333C0.979711 5.83398 0.640573 5.97446 0.390524 6.22451C0.140476 6.47456 0 6.81369 0 7.16731L0 8.83398C0 9.1876 0.140476 9.52674 0.390524 9.77678C0.640573 10.0268 0.979711 10.1673 1.33333 10.1673H3C3.35362 10.1673 3.69276 10.0268 3.94281 9.77678C4.19286 9.52674 4.33333 9.1876 4.33333 8.83398V7.16731C4.33333 6.81369 4.19286 6.47456 3.94281 6.22451C3.69276 5.97446 3.35362 5.83398 3 5.83398ZM3 8.83398H1.33333V7.16731H3V8.83398Z" fill="white"/>
<path d="M0 7.16731H-21.3333H0ZM0 8.83398H-21.3333H0ZM4.33333 8.83398H25.6667H4.33333ZM4.33333 7.16731H25.6667H4.33333ZM3 8.83398V30.1673H24.3333V8.83398H3ZM1.33333 8.83398H-20V30.1673H1.33333V8.83398ZM1.33333 7.16731V-14.166H-20V7.16731H1.33333ZM3 7.16731H24.3333V-14.166H3V7.16731ZM3 -15.4993H1.33333V27.1673H3V-15.4993ZM1.33333 -15.4993C-4.67824 -15.4993 -10.4436 -13.1113 -14.6944 -8.86045L15.4755 21.3095C11.7247 25.0602 6.63766 27.1673 1.33333 27.1673V-15.4993ZM-14.6944 -8.86045C-18.9452 -4.60964 -21.3333 1.15572 -21.3333 7.16731H21.3333C21.3333 12.4717 19.2262 17.5588 15.4755 21.3095L-14.6944 -8.86045ZM-21.3333 7.16731V8.83398H21.3333V7.16731H-21.3333ZM-21.3333 8.83398C-21.3333 14.8456 -18.9452 20.6109 -14.6944 24.8617L15.4755 -5.30818C19.2262 -1.55746 21.3333 3.52963 21.3333 8.83398H-21.3333ZM-14.6944 24.8617C-10.4436 29.1126 -4.67824 31.5006 1.33333 31.5006V-11.166C6.63766 -11.166 11.7247 -9.05889 15.4755 -5.30818L-14.6944 24.8617ZM1.33333 31.5006H3V-11.166H1.33333V31.5006ZM3 31.5006C9.01157 31.5006 14.7769 29.1126 19.0277 24.8617L-11.1421 -5.30818C-7.39139 -9.05889 -2.30432 -11.166 3 -11.166V31.5006ZM19.0277 24.8617C23.2786 20.6109 25.6667 14.8456 25.6667 8.83398H-17C-17 3.52963 -14.8928 -1.55746 -11.1421 -5.30818L19.0277 24.8617ZM25.6667 8.83398V7.16731H-17V8.83398H25.6667ZM25.6667 7.16731C25.6667 1.15572 23.2786 -4.60964 19.0277 -8.86045L-11.1421 21.3095C-14.8928 17.5587 -17 12.4717 -17 7.16731H25.6667ZM19.0277 -8.86045C14.7769 -13.1113 9.01157 -15.4993 3 -15.4993V27.1673C-2.30432 27.1673 -7.39139 25.0602 -11.1421 21.3095L19.0277 -8.86045ZM3 -12.4994H1.33333V30.1673H3V-12.4994ZM22.6667 8.83398V7.16731H-20V8.83398H22.6667ZM1.33333 28.5006H3V-14.166H1.33333V28.5006ZM-18.3333 7.16731V8.83398H24.3333V7.16731H-18.3333Z" fill="#22B27E" mask="url(#path-4-inside-2_1892_3618)"/>
<mask id="path-6-inside-3_1892_3618" fill="white">
<path d="M14.6665 5.83398H12.9998C12.6462 5.83398 12.3071 5.97446 12.057 6.22451C11.807 6.47456 11.6665 6.81369 11.6665 7.16731V8.83398C11.6665 9.1876 11.807 9.52674 12.057 9.77678C12.3071 10.0268 12.6462 10.1673 12.9998 10.1673H14.6665C15.0201 10.1673 15.3593 10.0268 15.6093 9.77678C15.8594 9.52674 15.9998 9.1876 15.9998 8.83398V7.16731C15.9998 6.81369 15.8594 6.47456 15.6093 6.22451C15.3593 5.97446 15.0201 5.83398 14.6665 5.83398ZM14.6665 8.83398H12.9998V7.16731H14.6665V8.83398Z"/>
</mask>
<path d="M14.6665 5.83398H12.9998C12.6462 5.83398 12.3071 5.97446 12.057 6.22451C11.807 6.47456 11.6665 6.81369 11.6665 7.16731V8.83398C11.6665 9.1876 11.807 9.52674 12.057 9.77678C12.3071 10.0268 12.6462 10.1673 12.9998 10.1673H14.6665C15.0201 10.1673 15.3593 10.0268 15.6093 9.77678C15.8594 9.52674 15.9998 9.1876 15.9998 8.83398V7.16731C15.9998 6.81369 15.8594 6.47456 15.6093 6.22451C15.3593 5.97446 15.0201 5.83398 14.6665 5.83398ZM14.6665 8.83398H12.9998V7.16731H14.6665V8.83398Z" fill="#22B27E"/>
<path d="M14.6665 8.83398V30.1673H35.9998V8.83398H14.6665ZM12.9998 8.83398H-8.3335V30.1673H12.9998V8.83398ZM12.9998 7.16731V-14.166H-8.3335V7.16731H12.9998ZM14.6665 7.16731H35.9998V-14.166H14.6665V7.16731ZM14.6665 -15.4993H12.9998V27.1673H14.6665V-15.4993ZM12.9998 -15.4993C6.98824 -15.4993 1.22289 -13.1112 -3.02792 -8.86044L27.142 21.3095C23.3913 25.0602 18.3042 27.1673 12.9998 27.1673V-15.4993ZM-3.02792 -8.86044C-7.27873 -4.60962 -9.66683 1.15573 -9.66683 7.16731H32.9998C32.9998 12.4717 30.8927 17.5587 27.142 21.3095L-3.02792 -8.86044ZM-9.66683 7.16731V8.83398H32.9998V7.16731H-9.66683ZM-9.66683 8.83398C-9.66683 14.8456 -7.27873 20.6109 -3.02792 24.8617L27.142 -5.30816C30.8927 -1.55744 32.9998 3.52963 32.9998 8.83398H-9.66683ZM-3.02792 24.8617C1.22289 29.1125 6.98824 31.5006 12.9998 31.5006V-11.166C18.3042 -11.166 23.3913 -9.05888 27.142 -5.30816L-3.02792 24.8617ZM12.9998 31.5006H14.6665V-11.166H12.9998V31.5006ZM14.6665 31.5006C20.6781 31.5006 26.4434 29.1125 30.6943 24.8617L0.524357 -5.30816C4.27507 -9.05888 9.36215 -11.166 14.6665 -11.166V31.5006ZM30.6943 24.8617C34.9451 20.6109 37.3332 14.8456 37.3332 8.83398H-5.33351C-5.33351 3.52963 -3.22636 -1.55744 0.524357 -5.30816L30.6943 24.8617ZM37.3332 8.83398V7.16731H-5.33351V8.83398H37.3332ZM37.3332 7.16731C37.3332 1.15573 34.9451 -4.60962 30.6943 -8.86044L0.524357 21.3095C-3.22636 17.5587 -5.33351 12.4717 -5.33351 7.16731H37.3332ZM30.6943 -8.86044C26.4434 -13.1112 20.6781 -15.4993 14.6665 -15.4993V27.1673C9.36215 27.1673 4.27507 25.0602 0.524357 21.3095L30.6943 -8.86044ZM14.6665 -12.4994H12.9998V30.1673H14.6665V-12.4994ZM34.3332 8.83398V7.16731H-8.3335V8.83398H34.3332ZM12.9998 28.5006H14.6665V-14.166H12.9998V28.5006ZM-6.66684 7.16731V8.83398H35.9998V7.16731H-6.66684Z" fill="#22B27E" mask="url(#path-6-inside-3_1892_3618)"/>
<mask id="path-8-inside-4_1892_3618" fill="white">
<path d="M3 0H1.33333C0.979711 0 0.640573 0.140476 0.390524 0.390524C0.140476 0.640573 0 0.979711 0 1.33333L0 3C0 3.35362 0.140476 3.69276 0.390524 3.94281C0.640573 4.19286 0.979711 4.33333 1.33333 4.33333H3C3.35362 4.33333 3.69276 4.19286 3.94281 3.94281C4.19286 3.69276 4.33333 3.35362 4.33333 3V1.33333C4.33333 0.979711 4.19286 0.640573 3.94281 0.390524C3.69276 0.140476 3.35362 0 3 0V0ZM3 3H1.33333V1.33333H3V3Z"/>
</mask>
<path d="M3 0H1.33333C0.979711 0 0.640573 0.140476 0.390524 0.390524C0.140476 0.640573 0 0.979711 0 1.33333L0 3C0 3.35362 0.140476 3.69276 0.390524 3.94281C0.640573 4.19286 0.979711 4.33333 1.33333 4.33333H3C3.35362 4.33333 3.69276 4.19286 3.94281 3.94281C4.19286 3.69276 4.33333 3.35362 4.33333 3V1.33333C4.33333 0.979711 4.19286 0.640573 3.94281 0.390524C3.69276 0.140476 3.35362 0 3 0V0ZM3 3H1.33333V1.33333H3V3Z" fill="#22B27E"/>
<path d="M3 0V21.3333H24.3333V0H3ZM0 1.33333H-21.3333H0ZM0 3H-21.3333H0ZM1.33333 4.33333V25.6667V4.33333ZM3 4.33333V25.6667V4.33333ZM4.33333 3H25.6667H4.33333ZM4.33333 1.33333H25.6667H4.33333ZM3 0V-21.3333H-18.3333V0H3ZM3 3V24.3333H24.3333V3H3ZM1.33333 3H-20V24.3333H1.33333V3ZM1.33333 1.33333V-20H-20V1.33333H1.33333ZM3 1.33333H24.3333V-20H3V1.33333ZM3 -21.3333H1.33333V21.3333H3V-21.3333ZM1.33333 -21.3333C-4.67824 -21.3333 -10.4436 -18.9452 -14.6944 -14.6944L15.4755 15.4755C11.7247 19.2262 6.63766 21.3333 1.33333 21.3333V-21.3333ZM-14.6944 -14.6944C-18.9452 -10.4436 -21.3333 -4.67824 -21.3333 1.33333H21.3333C21.3333 6.63766 19.2262 11.7247 15.4755 15.4755L-14.6944 -14.6944ZM-21.3333 1.33333V3H21.3333V1.33333H-21.3333ZM-21.3333 3C-21.3333 9.01157 -18.9452 14.7769 -14.6944 19.0278L15.4755 -11.1421C19.2262 -7.39141 21.3333 -2.30433 21.3333 3H-21.3333ZM-14.6944 19.0278C-10.4436 23.2786 -4.67824 25.6667 1.33333 25.6667V-17C6.63766 -17 11.7247 -14.8929 15.4755 -11.1421L-14.6944 19.0278ZM1.33333 25.6667H3V-17H1.33333V25.6667ZM3 25.6667C9.01157 25.6667 14.7769 23.2786 19.0278 19.0278L-11.1421 -11.1421C-7.39141 -14.8929 -2.30433 -17 3 -17V25.6667ZM19.0278 19.0278C23.2786 14.7769 25.6667 9.01157 25.6667 3H-17C-17 -2.30433 -14.8929 -7.39141 -11.1421 -11.1421L19.0278 19.0278ZM25.6667 3V1.33333H-17V3H25.6667ZM25.6667 1.33333C25.6667 -4.67824 23.2786 -10.4436 19.0278 -14.6944L-11.1421 15.4755C-14.8929 11.7247 -17 6.63766 -17 1.33333H25.6667ZM19.0278 -14.6944C14.7769 -18.9452 9.01157 -21.3333 3 -21.3333V21.3333C-2.30433 21.3333 -7.39141 19.2262 -11.1421 15.4755L19.0278 -14.6944ZM-18.3333 0V0H24.3333V0H-18.3333ZM3 -18.3333H1.33333V24.3333H3V-18.3333ZM22.6667 3V1.33333H-20V3H22.6667ZM1.33333 22.6667H3V-20H1.33333V22.6667ZM-18.3333 1.33333V3H24.3333V1.33333H-18.3333Z" fill="#22B27E" mask="url(#path-8-inside-4_1892_3618)"/>
<path d="M8.83349 11.666H7.16683C6.81321 11.666 6.47407 11.8065 6.22402 12.0565C5.97397 12.3066 5.8335 12.6457 5.8335 12.9993V14.666C5.8335 15.0196 5.97397 15.3588 6.22402 15.6088C6.47407 15.8589 6.81321 15.9993 7.16683 15.9993H8.83349C9.18711 15.9993 9.52625 15.8589 9.7763 15.6088C10.0263 15.3588 10.1668 15.0196 10.1668 14.666V12.9993C10.1668 12.6457 10.0263 12.3066 9.7763 12.0565C9.52625 11.8065 9.18711 11.666 8.83349 11.666ZM8.83349 14.666H7.16683V12.9993H8.83349V14.666Z" fill="#22B27E"/>
<path d="M8.83349 5.83398H7.16683C6.81321 5.83398 6.47407 5.97446 6.22402 6.22451C5.97397 6.47456 5.8335 6.81369 5.8335 7.16731V8.83398C5.8335 9.1876 5.97397 9.52674 6.22402 9.77678C6.47407 10.0268 6.81321 10.1673 7.16683 10.1673H8.83349C9.18711 10.1673 9.52625 10.0268 9.7763 9.77678C10.0263 9.52674 10.1668 9.1876 10.1668 8.83398V7.16731C10.1668 6.81369 10.0263 6.47456 9.7763 6.22451C9.52625 5.97446 9.18711 5.83398 8.83349 5.83398ZM8.83349 8.83398H7.16683V7.16731H8.83349V8.83398Z" fill="#22B27E"/>
<path d="M8.83349 0H7.16683C6.81321 0 6.47407 0.140476 6.22402 0.390524C5.97397 0.640573 5.8335 0.979711 5.8335 1.33333V3C5.8335 3.35362 5.97397 3.69276 6.22402 3.94281C6.47407 4.19286 6.81321 4.33333 7.16683 4.33333H8.83349C9.18711 4.33333 9.52625 4.19286 9.7763 3.94281C10.0263 3.69276 10.1668 3.35362 10.1668 3V1.33333C10.1668 0.979711 10.0263 0.640573 9.7763 0.390524C9.52625 0.140476 9.18711 0 8.83349 0V0ZM8.83349 3H7.16683V1.33333H8.83349V3Z" fill="#22B27E"/>
<path d="M14.6665 0H12.9998C12.6462 0 12.3071 0.140476 12.057 0.390524C11.807 0.640573 11.6665 0.979711 11.6665 1.33333V3C11.6665 3.35362 11.807 3.69276 12.057 3.94281C12.3071 4.19286 12.6462 4.33333 12.9998 4.33333H14.6665C15.0201 4.33333 15.3593 4.19286 15.6093 3.94281C15.8594 3.69276 15.9998 3.35362 15.9998 3V1.33333C15.9998 0.979711 15.8594 0.640573 15.6093 0.390524C15.3593 0.140476 15.0201 0 14.6665 0V0ZM14.6665 3H12.9998V1.33333H14.6665V3Z" fill="#22B27E"/>
</g>
<defs>
<clipPath id="clip0_1892_3618">
<rect width="16" height="16" fill="white"/>
</clipPath>
</defs>
</svg>
