<svg width="17" height="16" viewBox="0 0 17 16" fill="none" xmlns="http://www.w3.org/2000/svg">
<path d="M5.29987 6.97339L3.16653 9.10672L1.0332 6.97339" stroke="#22B27E" stroke-width="1.5" stroke-linecap="round" stroke-linejoin="round"/>
<path d="M12.3132 4.23335C11.5723 3.47562 10.6224 2.95578 9.58482 2.74018C8.54722 2.52459 7.4689 2.62303 6.48747 3.0229C5.50604 3.42277 4.66599 4.10596 4.0745 4.9853C3.48301 5.86464 3.1669 6.90015 3.1665 7.95991V9.1134" stroke="#22B27E" stroke-width="1.5" stroke-linecap="round" stroke-linejoin="round"/>
<path d="M11.6997 9.02672L13.833 6.88672L15.9664 9.02672" stroke="#22B27E" stroke-width="1.5" stroke-linecap="round" stroke-linejoin="round"/>
<path d="M4.68701 11.7734C5.42792 12.5311 6.37776 13.0508 7.41536 13.2664C8.45297 13.4819 9.53129 13.3837 10.5127 12.9838C11.4941 12.5839 12.3342 11.9007 12.9257 11.0214C13.5172 10.1421 13.8333 9.10639 13.8337 8.04663V6.89331" stroke="#22B27E" stroke-width="1.5" stroke-linecap="round" stroke-linejoin="round"/>
</svg>
