<svg width="16" height="16" viewBox="0 0 16 16" fill="none" xmlns="http://www.w3.org/2000/svg">
<g clip-path="url(#clip0_960_34035)">
<path d="M12.3874 1.42732L8.21071 0.0346488C8.07396 -0.0108986 7.92613 -0.0108986 7.78938 0.0346488L3.61271 1.42732C2.94865 1.6479 2.37099 2.07215 1.9618 2.63979C1.55262 3.20742 1.33273 3.88957 1.33338 4.58932V8.00065C1.33338 13.0426 7.46671 15.8273 7.72938 15.9433C7.81459 15.9812 7.9068 16.0007 8.00004 16.0007C8.09329 16.0007 8.18549 15.9812 8.27071 15.9433C8.53338 15.8273 14.6667 13.0426 14.6667 8.00065V4.58932C14.6674 3.88957 14.4475 3.20742 14.0383 2.63979C13.6291 2.07215 13.0514 1.6479 12.3874 1.42732ZM13.3334 8.00065C13.3334 11.6373 9.12071 14.0226 8.00004 14.5933C6.87804 14.0246 2.66671 11.6466 2.66671 8.00065V4.58932C2.66675 4.1695 2.79889 3.76034 3.04442 3.41981C3.28995 3.07928 3.6364 2.82464 4.03471 2.69198L8.00004 1.36998L11.9654 2.69198C12.3637 2.82464 12.7101 3.07928 12.9557 3.41981C13.2012 3.76034 13.3333 4.1695 13.3334 4.58932V8.00065Z" fill="white"/>
<path d="M10.1999 5.53338L7.4079 8.33339L5.9119 6.77339C5.85187 6.70774 5.7793 6.65478 5.69848 6.61762C5.61765 6.58045 5.53021 6.55984 5.4413 6.55699C5.35239 6.55415 5.26381 6.56912 5.18077 6.60104C5.09774 6.63296 5.02193 6.68117 4.95782 6.74283C4.8937 6.8045 4.84258 6.87838 4.80746 6.96011C4.77234 7.04184 4.75393 7.12977 4.75331 7.21872C4.7527 7.30768 4.76989 7.39586 4.80389 7.47806C4.83788 7.56027 4.88798 7.63484 4.95124 7.69739L6.48857 9.29739C6.60322 9.42123 6.74179 9.52052 6.89591 9.58928C7.05003 9.65803 7.2165 9.69481 7.38524 9.69739H7.40724C7.57261 9.69794 7.73644 9.66563 7.88922 9.60234C8.042 9.53906 8.18069 9.44605 8.29724 9.32873L11.1452 6.48072C11.2074 6.41865 11.2568 6.34493 11.2905 6.26378C11.3242 6.18263 11.3416 6.09563 11.3417 6.00776C11.3418 5.91988 11.3246 5.83285 11.2911 5.75163C11.2575 5.67041 11.2083 5.59659 11.1462 5.53438C11.0842 5.47218 11.0104 5.42281 10.9293 5.3891C10.8481 5.35538 10.7612 5.33798 10.6733 5.33789C10.5854 5.3378 10.4984 5.35501 10.4171 5.38856C10.3359 5.4221 10.2621 5.47131 10.1999 5.53338Z" fill="white"/>
</g>
<defs>
<clipPath id="clip0_960_34035">
<rect width="16" height="16" fill="white"/>
</clipPath>
</defs>
</svg>
