<svg width="17" height="16" viewBox="0 0 17 16" fill="none" xmlns="http://www.w3.org/2000/svg">
<path d="M11.8333 1.33325C12.5406 1.33325 13.2189 1.61416 13.719 2.11426C14.2191 2.61435 14.5 3.29267 14.5 3.99992V11.9999C14.5 12.7072 14.2191 13.3854 13.719 13.8855C13.2189 14.3856 12.5406 14.6666 11.8333 14.6666H5.16667C4.45942 14.6666 3.78118 14.3856 3.28109 13.8855C2.78099 13.3854 2.5 12.7072 2.5 11.9999V3.99992C2.5 3.29267 2.78099 2.61435 3.28109 2.11426C3.78118 1.61416 4.45942 1.33325 5.16667 1.33325" stroke="#22B27E" stroke-width="1.5" stroke-linecap="round" stroke-linejoin="round"/>
<path d="M14.5 8.66675H13.7334C13.3622 8.66726 12.9985 8.77102 12.6829 8.96647C12.3674 9.16192 12.1125 9.44127 11.9467 9.77336L11.72 10.2267C11.5542 10.5588 11.2993 10.8382 10.9838 11.0337C10.6682 11.2291 10.3045 11.3329 9.93335 11.3334H7.06669C6.69552 11.3329 6.33182 11.2291 6.01628 11.0337C5.70074 10.8382 5.44582 10.5588 5.28003 10.2267L5.05334 9.77336C4.88756 9.44127 4.63264 9.16192 4.3171 8.96647C4.00156 8.77102 3.63785 8.66726 3.26668 8.66675H2.5" stroke="#22B27E" stroke-width="1.5" stroke-linecap="round" stroke-linejoin="round"/>
<path d="M8.50732 7.33936L8.50732 1.33936" stroke="#22B27E" stroke-width="1.5" stroke-linecap="round" stroke-linejoin="round"/>
<path d="M6.15401 3.33936L7.82731 1.61938C7.91325 1.52902 8.01666 1.45704 8.13127 1.40788C8.24587 1.35871 8.36927 1.33341 8.49398 1.33341C8.61868 1.33341 8.74209 1.35871 8.85669 1.40788C8.97129 1.45704 9.07471 1.52902 9.16064 1.61938L10.834 3.33936" stroke="#22B27E" stroke-width="1.5" stroke-linecap="round" stroke-linejoin="round"/>
</svg>
