<svg width="16" height="16" viewBox="0 0 16 16" fill="none" xmlns="http://www.w3.org/2000/svg">
<path d="M11.5352 5.24255L12.5918 4.18723C12.8985 4.35745 13.2394 4.45957 13.5802 4.45957C14.1255 4.45957 14.6027 4.25532 14.9776 3.88085C15.3525 3.50638 15.557 2.99574 15.557 2.48511C15.557 1.94043 15.3525 1.46383 14.9776 1.08936C14.1937 0.306383 12.9326 0.306383 12.1487 1.08936C11.5011 1.73617 11.3989 2.7234 11.842 3.50638L10.7854 4.5617L6.4228 0.13617C6.32055 0.0340425 6.18422 0 6.04789 0C5.91155 0 5.77522 0.0680851 5.67297 0.170213C2.98043 2.9617 3.04859 7.48936 5.77522 10.2128C7.17262 11.6085 9.01309 12.2894 10.8536 12.2894C12.66 12.2894 14.4323 11.6426 15.8297 10.3149C15.9319 10.2128 16.0001 10.0766 16.0001 9.94043C16.0001 9.80426 15.9319 9.66809 15.8637 9.56596L11.5352 5.24255ZM12.8985 1.77021C13.103 1.56596 13.3416 1.49787 13.5802 1.49787C13.8188 1.49787 14.0914 1.6 14.2618 1.77021C14.6368 2.14468 14.6368 2.75745 14.2618 3.13191C13.8869 3.50638 13.2734 3.50638 12.8985 3.13191C12.5236 2.75745 12.5236 2.14468 12.8985 1.77021ZM6.52504 9.49787C4.30966 7.28511 4.13925 3.6766 6.08197 1.25957L14.7731 9.94043C12.3532 11.8809 8.77451 11.7106 6.52504 9.49787Z" fill="#22B27E"/>
<path d="M4.83194 11.1802L4.83716 11.1751C4.83939 11.1762 4.84108 11.1775 4.84239 11.1788L5.18789 10.8329L4.8424 11.1788L9.16058 15.4919C9.16057 15.4927 9.16056 15.4935 9.16052 15.4944C9.1569 15.4963 9.15342 15.4977 9.15043 15.4987C9.14895 15.4991 9.14789 15.4994 9.14726 15.4995H0.529658C0.527975 15.4989 0.525584 15.4978 0.52319 15.4961C0.522534 15.4957 0.521984 15.4953 0.521534 15.4949L0.510688 15.4624L4.83194 11.1802ZM4.82083 11.2077L4.46748 11.5607L1.40003 14.6245L0.545255 15.4783H1.75337H7.88828H9.0964L8.24163 14.6245L5.17417 11.5607L4.82083 11.2077Z" fill="white" stroke="#22B27E"/>
</svg>
