<svg width="16" height="16" viewBox="0 0 16 16" fill="none" xmlns="http://www.w3.org/2000/svg">
<path d="M11.2814 5.29984L12.3148 4.2665C12.6148 4.43317 12.9481 4.53317 13.2814 4.53317C13.8148 4.53317 14.2814 4.33317 14.6481 3.9665C15.0148 3.59984 15.2148 3.09984 15.2148 2.59984C15.2148 2.0665 15.0148 1.59984 14.6481 1.23317C13.8814 0.466504 12.6481 0.466504 11.8814 1.23317C11.2481 1.8665 11.1481 2.83317 11.5814 3.59984L10.5481 4.63317L6.28143 0.299837C6.18143 0.199837 6.0481 0.166504 5.91477 0.166504C5.78143 0.166504 5.6481 0.233171 5.5481 0.333171C2.91477 3.0665 2.98143 7.49984 5.6481 10.1665C7.01477 11.5332 8.81476 12.1998 10.6148 12.1998C12.3814 12.1998 14.1148 11.5665 15.4814 10.2665C15.5814 10.1665 15.6481 10.0332 15.6481 9.89984C15.6481 9.7665 15.5814 9.63317 15.5148 9.53317L11.2814 5.29984ZM12.6148 1.89984C12.8148 1.69984 13.0481 1.63317 13.2814 1.63317C13.5148 1.63317 13.7814 1.73317 13.9481 1.89984C14.3148 2.2665 14.3148 2.8665 13.9481 3.23317C13.5814 3.59984 12.9814 3.59984 12.6148 3.23317C12.2481 2.8665 12.2481 2.2665 12.6148 1.89984ZM6.38143 9.4665C4.21477 7.29984 4.0481 3.7665 5.9481 1.39984L14.4481 9.89984C12.0814 11.7998 8.58143 11.6332 6.38143 9.4665Z" fill="white"/>
<path d="M0.514815 15.8334H8.94815C9.14815 15.8334 9.34815 15.7 9.41481 15.5334C9.48148 15.3334 9.44815 15.1334 9.31481 15L5.08148 10.7667C4.88148 10.5667 4.54815 10.5667 4.38148 10.7667L0.148148 14.9667C0.0148148 15.1 -0.0518518 15.3334 0.0481482 15.5C0.114815 15.7 0.314815 15.8334 0.514815 15.8334ZM4.71481 11.8334L7.71481 14.8334H1.71481L4.71481 11.8334Z" fill="white"/>
</svg>
