<svg width="15" height="16" viewBox="0 0 15 16" fill="none" xmlns="http://www.w3.org/2000/svg">
<path d="M11.8059 6.7062C11.5877 6.7038 11.3738 6.64431 11.1857 6.53363C10.9976 6.42294 10.8418 6.26491 10.7337 6.07529C10.6256 5.88567 10.5691 5.67103 10.5697 5.45277C10.5703 5.23451 10.628 5.02022 10.7372 4.8312L10.8122 4.69994C10.894 4.56109 10.9463 4.40681 10.9657 4.24679C10.985 4.08677 10.9711 3.92448 10.9247 3.77011C10.8784 3.61573 10.8006 3.47262 10.6962 3.34976C10.5919 3.22691 10.4633 3.12694 10.3184 3.05619V3.05619C10.0147 2.91028 9.66735 2.88328 9.34469 2.98043C9.02203 3.07757 8.74737 3.29186 8.57467 3.5812V3.5812C8.46325 3.76489 8.30636 3.91675 8.11916 4.02214C7.93195 4.12754 7.72076 4.18293 7.50593 4.18293C7.29109 4.18293 7.07988 4.12754 6.89267 4.02214C6.70547 3.91675 6.54858 3.76489 6.43716 3.5812C6.26446 3.29186 5.98981 3.07757 5.66715 2.98043C5.34449 2.88328 4.99717 2.91028 4.69343 3.05619V3.05619C4.5486 3.12694 4.41996 3.22691 4.31562 3.34976C4.21127 3.47262 4.13347 3.61573 4.0871 3.77011C4.04073 3.92448 4.02679 4.08677 4.04617 4.24679C4.06554 4.40681 4.1178 4.56109 4.19967 4.69994L4.27467 4.8312C4.38381 5.02022 4.44156 5.23451 4.44217 5.45277C4.44278 5.67103 4.38624 5.88567 4.27816 6.07529C4.17007 6.26491 4.01421 6.42294 3.8261 6.53363C3.63798 6.64431 3.42417 6.7038 3.20592 6.7062C2.90184 6.69873 2.60485 6.79864 2.36711 6.98838C2.12937 7.17811 1.96607 7.44552 1.90591 7.74369C1.87467 7.9247 1.8837 8.11039 1.93237 8.28751C1.98103 8.46463 2.06815 8.62887 2.18749 8.7685C2.30684 8.90814 2.45548 9.01973 2.62286 9.09538C2.79025 9.17104 2.97224 9.20888 3.15591 9.2062H3.23093C3.44918 9.2086 3.66299 9.26809 3.8511 9.37878C4.03922 9.48947 4.19506 9.64749 4.30314 9.83711C4.41123 10.0267 4.46779 10.2414 4.46718 10.4596C4.46656 10.6779 4.40882 10.8922 4.29967 11.0812L4.26841 11.1312C4.10477 11.4209 4.06024 11.7629 4.14422 12.0848C4.22821 12.4067 4.43411 12.6834 4.71841 12.8562V12.8562C5.00185 13.0194 5.33794 13.0649 5.65458 12.9831C5.97122 12.9013 6.2432 12.6987 6.41218 12.4187L6.42467 12.3312C6.53609 12.1475 6.69296 11.9957 6.88016 11.8903C7.06737 11.7849 7.27858 11.7295 7.49341 11.7295C7.70825 11.7295 7.91946 11.7849 8.10666 11.8903C8.29387 11.9957 8.45076 12.1475 8.56218 12.3312L8.60591 12.4187C8.77494 12.7004 9.04807 12.9042 9.3662 12.9861C9.68433 13.0679 10.0219 13.0213 10.3059 12.8562C10.5859 12.6872 10.7885 12.4153 10.8703 12.0986C10.9521 11.782 10.9066 11.4459 10.7434 11.1625L10.7059 11.0937C10.5968 10.9047 10.539 10.6904 10.5384 10.4721C10.5378 10.2538 10.5943 10.0392 10.7024 9.84963C10.8105 9.66 10.9664 9.50198 11.1545 9.39129C11.3426 9.2806 11.5564 9.22111 11.7747 9.21871H11.8497C12.0333 9.22139 12.2153 9.18355 12.3827 9.1079C12.5501 9.03224 12.6988 8.92061 12.8181 8.78098C12.9374 8.64134 13.0245 8.47714 13.0732 8.30002C13.1219 8.1229 13.1309 7.93721 13.0997 7.7562C13.0423 7.45681 12.881 7.1873 12.6443 6.9952C12.4076 6.8031 12.1107 6.70075 11.8059 6.7062V6.7062Z" stroke="#22B27E" stroke-width="1.5" stroke-linecap="round" stroke-linejoin="round"/>
<path d="M7.5 9.5437C8.36294 9.5437 9.0625 8.84415 9.0625 7.9812C9.0625 7.11826 8.36294 6.4187 7.5 6.4187C6.63705 6.4187 5.9375 7.11826 5.9375 7.9812C5.9375 8.84415 6.63705 9.5437 7.5 9.5437Z" stroke="#22B27E" stroke-width="1.5" stroke-linecap="round" stroke-linejoin="round"/>
</svg>
