<svg width="16" height="14" viewBox="0 0 16 14" fill="none" xmlns="http://www.w3.org/2000/svg">
<path d="M6.8335 9.1C6.67879 9.1 6.53041 9.17375 6.42102 9.30502C6.31162 9.4363 6.25016 9.61435 6.25016 9.8V12.6H1.00016V1.4H6.25016V4.2C6.25016 4.38565 6.31162 4.5637 6.42102 4.69497C6.53041 4.82625 6.67879 4.9 6.8335 4.9C6.98821 4.9 7.13658 4.82625 7.24598 4.69497C7.35537 4.5637 7.41683 4.38565 7.41683 4.2V0.7C7.41683 0.514348 7.35537 0.336301 7.24598 0.205025C7.13658 0.0737499 6.98821 0 6.8335 0H0.416829C0.26212 0 0.113747 0.0737499 0.00435045 0.205025C-0.105046 0.336301 -0.166504 0.514348 -0.166504 0.7V13.3C-0.166504 13.4857 -0.105046 13.6637 0.00435045 13.795C0.113747 13.9263 0.26212 14 0.416829 14H6.8335C6.98821 14 7.13658 13.9263 7.24598 13.795C7.35537 13.6637 7.41683 13.4857 7.41683 13.3V9.8C7.41683 9.61435 7.35537 9.4363 7.24598 9.30502C7.13658 9.17375 6.98821 9.1 6.8335 9.1Z" fill="white"/>
<path d="M9.75016 0.9H9.25016V1.4V4.2C9.25016 4.27954 9.22305 4.34146 9.1952 4.37488L9.57284 4.68959L9.1952 4.37488C9.18218 4.3905 9.17178 4.39685 9.16751 4.39898C9.16727 4.3991 9.16704 4.39921 9.16683 4.39931C9.16662 4.39921 9.16639 4.3991 9.16615 4.39898C9.16188 4.39685 9.15148 4.3905 9.13846 4.37488L8.75599 4.69361L9.13846 4.37488C9.11061 4.34146 9.0835 4.27954 9.0835 4.2V0.7C9.0835 0.620463 9.11061 0.558536 9.13846 0.525118C9.15148 0.509497 9.16188 0.503146 9.16615 0.501024C9.16721 0.500498 9.16797 0.500182 9.16846 0.5H15.5819C15.5824 0.500182 15.5831 0.500498 15.5842 0.501024C15.5884 0.503146 15.5988 0.509496 15.6119 0.525117C15.6397 0.558536 15.6668 0.620463 15.6668 0.7V13.3C15.6668 13.3795 15.6397 13.4415 15.6119 13.4749C15.5988 13.4905 15.5884 13.4969 15.5842 13.499C15.5831 13.4995 15.5824 13.4998 15.5819 13.5H9.16846C9.16797 13.4998 9.16721 13.4995 9.16615 13.499C9.16188 13.4969 9.15148 13.4905 9.13846 13.4749C9.11061 13.4415 9.0835 13.3795 9.0835 13.3V9.8C9.0835 9.72046 9.11061 9.65854 9.13846 9.62512C9.15148 9.6095 9.16188 9.60314 9.16615 9.60102C9.16639 9.6009 9.16662 9.60079 9.16683 9.60069C9.16704 9.60079 9.16727 9.6009 9.16751 9.60102C9.17178 9.60314 9.18218 9.6095 9.1952 9.62512C9.22305 9.65854 9.25016 9.72046 9.25016 9.8V12.6V13.1H9.75016H15.0002H15.5002V12.6V1.4V0.9H15.0002H9.75016Z" fill="white" stroke="white"/>
<path d="M12.2229 8.02582L12.9353 7.19935H11.8442H3.33496C3.33447 7.19917 3.33371 7.19885 3.33265 7.19832C3.32838 7.1962 3.31798 7.18985 3.30497 7.17423C3.27712 7.14081 3.25 7.07888 3.25 6.99935C3.25 6.91981 3.27712 6.85789 3.30497 6.82447C3.31798 6.80884 3.32839 6.80249 3.33265 6.80037C3.33371 6.79985 3.33447 6.79953 3.33496 6.79935H11.8442H12.9353L12.2229 5.97288L12.0515 5.77413C12.0239 5.73972 11.9976 5.678 11.9976 5.59935C11.9976 5.56126 12.0039 5.52509 12.0148 5.49352C12.0257 5.46192 12.04 5.43837 12.0533 5.42244C12.0665 5.40655 12.0772 5.39999 12.0817 5.39773C12.0823 5.39743 12.0828 5.39719 12.0833 5.39701L12.0849 5.39773C12.0896 5.40003 12.1002 5.40665 12.1134 5.42244L12.4975 5.10235L12.1134 5.42244L13.2801 6.82244L13.2814 6.82399C13.2944 6.83956 13.3086 6.86278 13.3195 6.89413L13.7919 6.73014L13.3195 6.89413C13.3304 6.92546 13.3367 6.96144 13.3367 6.99935C13.3367 7.03726 13.3304 7.07324 13.3195 7.10456C13.3086 7.13592 13.2944 7.15914 13.2813 7.17471L13.2801 7.17626L12.1134 8.57625L12.1121 8.5778C12.0991 8.59359 12.0885 8.60014 12.0841 8.60235C12.0838 8.60248 12.0836 8.6026 12.0833 8.60271C12.0831 8.6026 12.0828 8.60248 12.0826 8.60235C12.0782 8.60014 12.0676 8.59359 12.0546 8.5778L12.0546 8.57779L12.052 8.57471C12.0389 8.55914 12.0247 8.53592 12.0138 8.50457C12.0029 8.47324 11.9966 8.43726 11.9966 8.39935C11.9966 8.36144 12.0029 8.32546 12.0138 8.29413C12.0243 8.26383 12.038 8.24112 12.0507 8.22557L12.2229 8.02582Z" fill="#22B27E" stroke="white"/>
</svg>
