<svg width="16" height="16" viewBox="0 0 16 16" fill="none" xmlns="http://www.w3.org/2000/svg">
<path d="M1.3335 13.3335H14.6668" stroke="#777C8C" stroke-width="1.5" stroke-linecap="round" stroke-linejoin="round"/>
<path d="M4.6665 6.6665H7.33317" stroke="#777C8C" stroke-width="1.5" stroke-linecap="round" stroke-linejoin="round"/>
<path d="M13.3335 13.3333V14.0833C13.7477 14.0833 14.0835 13.7475 14.0835 13.3333H13.3335ZM9.3335 13.3333H8.5835C8.5835 13.7475 8.91928 14.0833 9.3335 14.0833V13.3333ZM10.0002 6.75H12.6668V5.25H10.0002V6.75ZM12.5835 6.66667V13.3333H14.0835V6.66667H12.5835ZM13.3335 12.5833H9.3335V14.0833H13.3335V12.5833ZM10.0835 13.3333V6.66667H8.5835V13.3333H10.0835ZM12.6668 6.75C12.6208 6.75 12.5835 6.71269 12.5835 6.66667H14.0835C14.0835 5.88426 13.4492 5.25 12.6668 5.25V6.75ZM10.0002 5.25C9.21776 5.25 8.5835 5.88426 8.5835 6.66667H10.0835C10.0835 6.71269 10.0462 6.75 10.0002 6.75V5.25Z" fill="#4E5461"/>
<path d="M4.6665 4.6665L7.33317 4.6665" stroke="#4E5461" stroke-width="1.5" stroke-linecap="round" stroke-linejoin="round"/>
<path d="M9.33317 13.3333V14.0833C9.74738 14.0833 10.0832 13.7475 10.0832 13.3333H9.33317ZM2.6665 13.3333H1.9165C1.9165 13.7475 2.25229 14.0833 2.6665 14.0833V13.3333ZM3.33317 2.75H8.6665V1.25H3.33317V2.75ZM8.58317 2.66667V13.3333H10.0832V2.66667H8.58317ZM9.33317 12.5833H2.6665V14.0833H9.33317V12.5833ZM3.4165 13.3333V2.66667H1.9165V13.3333H3.4165ZM8.6665 2.75C8.62048 2.75 8.58317 2.71269 8.58317 2.66667H10.0832C10.0832 1.88426 9.44891 1.25 8.6665 1.25V2.75ZM3.33317 1.25C2.55077 1.25 1.9165 1.88426 1.9165 2.66667H3.4165C3.4165 2.71269 3.37919 2.75 3.33317 2.75V1.25Z" fill="#4E5461"/>
</svg>
