<svg width="13" height="14" viewBox="0 0 13 14" fill="none" xmlns="http://www.w3.org/2000/svg">
<path d="M1.63623 3.8721H2.72706M2.72706 3.8721H11.4537M2.72706 3.8721V11.5079C2.72706 11.7972 2.84199 12.0747 3.04656 12.2793C3.25113 12.4838 3.52859 12.5988 3.8179 12.5988H9.27206C9.56137 12.5988 9.83883 12.4838 10.0434 12.2793C10.248 12.0747 10.3629 11.7972 10.3629 11.5079V3.8721H2.72706ZM4.36331 3.8721V2.78126C4.36331 2.49196 4.47824 2.2145 4.68281 2.00993C4.88738 1.80536 5.16484 1.69043 5.45415 1.69043H7.63581C7.92512 1.69043 8.20258 1.80536 8.40715 2.00993C8.61172 2.2145 8.72665 2.49196 8.72665 2.78126V3.8721M5.45415 6.59918V9.87168M7.63581 6.59918V9.87168" stroke="#667085" stroke-width="1.5" stroke-linecap="round" stroke-linejoin="round"/>
</svg>
