<svg width="24" height="24" viewBox="0 0 24 24" fill="none" xmlns="http://www.w3.org/2000/svg">
<path d="M11.167 17C11.167 16.5398 11.5401 16.1667 12.0003 16.1667C12.4606 16.1667 12.8337 16.5398 12.8337 17C12.8337 17.4602 12.4606 17.8333 12.0003 17.8333C11.5401 17.8333 11.167 17.4602 11.167 17Z" fill="#777C8C" stroke="#777C8C" stroke-width="1.5" stroke-linecap="round" stroke-linejoin="round"/>
<path d="M11.167 12C11.167 11.5398 11.5401 11.1667 12.0003 11.1667C12.4606 11.1667 12.8337 11.5398 12.8337 12C12.8337 12.4602 12.4606 12.8333 12.0003 12.8333C11.5401 12.8333 11.167 12.4602 11.167 12Z" fill="#777C8C" stroke="#777C8C" stroke-width="1.5" stroke-linecap="round" stroke-linejoin="round"/>
<path d="M11.167 6.99999C11.167 6.53975 11.5401 6.16666 12.0003 6.16666C12.4606 6.16666 12.8337 6.53975 12.8337 6.99999C12.8337 7.46023 12.4606 7.83332 12.0003 7.83332C11.5401 7.83332 11.167 7.46023 11.167 6.99999Z" fill="#777C8C" stroke="#777C8C" stroke-width="1.5" stroke-linecap="round" stroke-linejoin="round"/>
</svg>
