<svg width="15" height="4" viewBox="0 0 15 4" fill="none" xmlns="http://www.w3.org/2000/svg">
<path d="M3.3 2.00015C3.3 1.22695 2.6732 0.600146 1.9 0.600146C1.1268 0.600146 0.5 1.22695 0.5 2.00015C0.5 2.77335 1.1268 3.40015 1.9 3.40015C2.6732 3.40015 3.3 2.77335 3.3 2.00015Z" fill="#667085"/>
<path d="M8.9001 2.00015C8.9001 1.22695 8.2733 0.600146 7.5001 0.600146C6.7269 0.600146 6.1001 1.22695 6.1001 2.00015C6.1001 2.77335 6.7269 3.40015 7.5001 3.40015C8.2733 3.40015 8.9001 2.77335 8.9001 2.00015Z" fill="#667085"/>
<path d="M14.5 2.00015C14.5 1.22695 13.8731 0.600146 13.1 0.600146C12.3268 0.600146 11.7 1.22695 11.7 2.00015C11.7 2.77335 12.3268 3.40015 13.1 3.40015C13.8731 3.40015 14.5 2.77335 14.5 2.00015Z" fill="#667085"/>
</svg>
