<svg width="7" height="5" viewBox="0 0 7 5" fill="none" xmlns="http://www.w3.org/2000/svg">
<path d="M0.154081 0.553351C0.252768 0.455411 0.3866 0.400391 0.526144 0.400391C0.665688 0.400391 0.79952 0.455411 0.898207 0.553351L3.50318 3.13936L6.10815 0.55335C6.2074 0.458186 6.34033 0.405528 6.47832 0.406719C6.6163 0.407909 6.74829 0.462852 6.84586 0.559714C6.94344 0.656576 6.99878 0.787608 6.99998 0.924586C7.00118 1.06156 6.94814 1.19353 6.85227 1.29206L3.87524 4.24743C3.77655 4.34537 3.64272 4.40039 3.50318 4.40039C3.36363 4.40039 3.2298 4.34537 3.13111 4.24743L0.154081 1.29206C0.0554228 1.19409 -1.45959e-07 1.06124 -1.52014e-07 0.922706C-1.5807e-07 0.784177 0.0554228 0.65132 0.154081 0.553351Z" fill="#101828"/>
</svg>
