<svg width="14" height="13" viewBox="0 0 14 13" fill="none" xmlns="http://www.w3.org/2000/svg">
<path d="M6.4545 2.23619H2.63632C2.34699 2.23619 2.06952 2.35112 1.86493 2.55571C1.66034 2.76029 1.54541 3.03777 1.54541 3.32709V10.9635C1.54541 11.2528 1.66034 11.5303 1.86493 11.7348C2.06952 11.9394 2.34699 12.0544 2.63632 12.0544H10.2727C10.562 12.0544 10.8395 11.9394 11.0441 11.7348C11.2487 11.5303 11.3636 11.2528 11.3636 10.9635V7.14528M10.5454 1.418C10.7624 1.20101 11.0567 1.0791 11.3636 1.0791C11.6705 1.0791 11.9648 1.20101 12.1818 1.418C12.3988 1.635 12.5207 1.92931 12.5207 2.23619C12.5207 2.54306 12.3988 2.83737 12.1818 3.05437L6.99996 8.23619L4.81814 8.78164L5.36359 6.59982L10.5454 1.418Z" stroke="#667085" stroke-width="1.5" stroke-linecap="round" stroke-linejoin="round"/>
</svg>
