<svg width="11" height="10" viewBox="0 0 11 10" fill="none" xmlns="http://www.w3.org/2000/svg">
<path d="M5.50016 6.46664C6.31021 6.46664 6.96688 5.80997 6.96688 4.99992C6.96688 4.18987 6.31021 3.5332 5.50016 3.5332C4.69012 3.5332 4.03345 4.18987 4.03345 4.99992C4.03345 5.80997 4.69012 6.46664 5.50016 6.46664Z" fill="#667085"/>
<path d="M10.9782 4.87536C10.547 3.75979 9.79825 2.79504 8.82464 2.10036C7.85104 1.40567 6.69522 1.0115 5.50004 0.966553C4.30485 1.0115 3.14903 1.40567 2.17543 2.10036C1.20183 2.79504 0.453119 3.75979 0.0218448 4.87536C-0.00728159 4.95592 -0.00728159 5.04413 0.0218448 5.1247C0.453119 6.24026 1.20183 7.20501 2.17543 7.8997C3.14903 8.59438 4.30485 8.98855 5.50004 9.0335C6.69522 8.98855 7.85104 8.59438 8.82464 7.8997C9.79825 7.20501 10.547 6.24026 10.9782 5.1247C11.0074 5.04413 11.0074 4.95592 10.9782 4.87536V4.87536ZM5.50004 7.38344C5.02864 7.38344 4.56783 7.24366 4.17588 6.98176C3.78393 6.71987 3.47844 6.34763 3.29805 5.91212C3.11765 5.47661 3.07045 4.99738 3.16242 4.53504C3.25438 4.07271 3.48138 3.64802 3.81471 3.3147C4.14803 2.98137 4.57272 2.75437 5.03505 2.66241C5.49739 2.57044 5.97662 2.61764 6.41213 2.79804C6.84764 2.97843 7.21988 3.28392 7.48177 3.67587C7.74367 4.06782 7.88345 4.52863 7.88345 5.00003C7.88248 5.63185 7.63106 6.23752 7.18429 6.68428C6.73753 7.13105 6.13186 7.38247 5.50004 7.38344V7.38344Z" fill="#667085"/>
</svg>
