<svg width="16" height="16" viewBox="0 0 16 16" fill="none" xmlns="http://www.w3.org/2000/svg">
<path d="M8 14C11.3137 14 14 11.3137 14 8C14 4.68629 11.3137 2 8 2C4.68629 2 2 4.68629 2 8C2 11.3137 4.68629 14 8 14Z" stroke="#4E5461" stroke-width="1.5" stroke-linecap="round" stroke-linejoin="round"/>
<path d="M11.4775 12.8883C10.623 11.934 9.3815 11.3335 7.99973 11.3335C6.61796 11.3335 5.37645 11.934 4.52197 12.8883" stroke="#4E5461" stroke-width="1.5" stroke-linecap="round" stroke-linejoin="round"/>
<path d="M8 9.3335C9.10457 9.3335 10 8.43807 10 7.3335C10 6.22893 9.10457 5.3335 8 5.3335C6.89543 5.3335 6 6.22893 6 7.3335C6 8.43807 6.89543 9.3335 8 9.3335Z" stroke="#4E5461" stroke-width="1.5" stroke-linecap="round" stroke-linejoin="round"/>
</svg>
