<svg width="409" height="481" viewBox="0 0 409 481" fill="none" xmlns="http://www.w3.org/2000/svg">
<line x1="295" y1="480.458" x2="-637" y2="480.458" stroke="#95B5E8" stroke-width="0.5"/>
<path d="M133 139.5C110.5 94.5 51.5 89 10.4996 120.5C-50.689 167.51 -133.14 54.6393 -254.581 127.636C-357.5 189.5 -528.962 51.6513 -520.5 113C-514.5 156.5 -333.035 72.2368 -418 19.5C-476 -16.5 -570.5 -0.500061 -611.5 84C-631.5 153 -599 181 -581 189.5" stroke="#6E99D6" stroke-dasharray="2 2"/>
<path d="M94.9855 267.841C96.2185 267.841 97.218 266.841 97.218 265.608C97.218 264.375 96.2185 263.375 94.9855 263.375C93.7525 263.375 92.7529 264.375 92.7529 265.608C92.7529 266.841 93.7525 267.841 94.9855 267.841Z" fill="#6E99D6"/>
<path d="M94.9855 317.121C96.2185 317.121 97.218 316.121 97.218 314.888C97.218 313.655 96.2185 312.656 94.9855 312.656C93.7525 312.656 92.7529 313.655 92.7529 314.888C92.7529 316.121 93.7525 317.121 94.9855 317.121Z" fill="#6E99D6"/>
<path d="M94.9855 366.403C96.2185 366.403 97.218 365.404 97.218 364.171C97.218 362.938 96.2185 361.938 94.9855 361.938C93.7525 361.938 92.7529 362.938 92.7529 364.171C92.7529 365.404 93.7525 366.403 94.9855 366.403Z" fill="#6E99D6"/>
<path d="M94.9849 359.204C94.8128 359.204 94.6477 359.135 94.526 359.013C94.4043 358.892 94.3359 358.727 94.3359 358.555V320.93C94.3359 320.758 94.4043 320.593 94.526 320.471C94.6477 320.35 94.8128 320.281 94.9849 320.281C95.1571 320.281 95.3221 320.35 95.4438 320.471C95.5655 320.593 95.6339 320.758 95.6339 320.93V358.555C95.6339 358.727 95.5655 358.892 95.4438 359.013C95.3221 359.135 95.1571 359.204 94.9849 359.204Z" fill="#D7E8F7"/>
<path d="M94.9849 309.487C94.8128 309.487 94.6477 309.418 94.526 309.296C94.4043 309.175 94.3359 309.01 94.3359 308.838V271.215C94.3359 271.043 94.4043 270.878 94.526 270.756C94.6477 270.635 94.8128 270.566 94.9849 270.566C95.1571 270.566 95.3221 270.635 95.4438 270.756C95.5655 270.878 95.6339 271.043 95.6339 271.215V308.838C95.6339 309.01 95.5655 309.175 95.4438 309.296C95.3221 309.418 95.1571 309.487 94.9849 309.487Z" fill="#D7E8F7"/>
<path d="M161.935 344.024C161.762 344.024 161.597 343.955 161.476 343.834C161.354 343.712 161.286 343.547 161.286 343.375V319.215C161.286 318.24 160.898 317.304 160.208 316.614C159.519 315.925 158.583 315.537 157.608 315.537H101.362C101.19 315.537 101.025 315.469 100.903 315.347C100.781 315.225 100.713 315.06 100.713 314.888C100.713 314.716 100.781 314.551 100.903 314.429C101.025 314.308 101.19 314.239 101.362 314.239H157.608C158.928 314.239 160.193 314.763 161.126 315.697C162.059 316.63 162.584 317.895 162.584 319.215V343.375C162.584 343.547 162.515 343.712 162.393 343.834C162.272 343.955 162.107 344.024 161.935 344.024Z" fill="#D7E8F7"/>
<path d="M127.664 479.704H132.855V381.25H127.664L127.664 479.704Z" fill="#6E99D6"/>
<path d="M183.732 474.08H192.327V417.479H183.732V474.08Z" fill="#6E99D6"/>
<path d="M201.524 376.25H210.419L202.445 423.489H193.55L201.524 376.25Z" fill="#6E99D6"/>
<path d="M163.114 425.868H212.948C213.235 425.868 213.467 425.636 213.467 425.349V421.63C213.467 421.343 213.235 421.111 212.948 421.111H163.114C162.827 421.111 162.595 421.343 162.595 421.63V425.349C162.595 425.636 162.827 425.868 163.114 425.868Z" fill="#95B5E8"/>
<path d="M162.411 421.109H213.653C215.087 421.109 216.249 419.947 216.249 418.513V415.826C216.249 414.392 215.087 413.23 213.653 413.23H162.411C160.977 413.23 159.815 414.392 159.815 415.826V418.513C159.815 419.947 160.977 421.109 162.411 421.109Z" fill="#B7CFE2"/>
<path d="M184.353 382.455C197.132 383.773 210.013 383.779 222.793 382.474C223.357 382.399 223.883 382.151 224.299 381.763C224.715 381.375 225 380.868 225.114 380.311L230.079 353.425C230.324 352.106 229.372 351.083 228.054 351.262C215.252 353.017 202.777 353.011 190.629 351.243C189.381 351.061 188.05 352.084 187.817 353.406L182.841 380.292C182.629 381.399 183.282 382.351 184.353 382.455Z" fill="#B7CFE2"/>
<path d="M228.673 351.262H231.319C232.502 351.262 233.281 352.24 233.05 353.447L228.119 380.201C227.903 381.406 226.756 382.383 225.573 382.383H222.811L228.673 351.262Z" fill="#95B5E8"/>
<path d="M164.96 479.642H211.103L192.328 474.08H183.733L164.96 479.642Z" fill="#6E99D6"/>
<path d="M169.916 456.933H206.147C206.992 456.933 207.676 456.249 207.676 455.404C207.676 454.559 206.992 453.874 206.147 453.874H169.916C169.071 453.874 168.386 454.559 168.386 455.404C168.386 456.249 169.071 456.933 169.916 456.933Z" fill="#B7CFE2"/>
<path d="M132.741 347.941L131.075 348.75L128.858 349.183L125.961 348.631L125.667 350.202C125.645 350.322 125.58 350.43 125.486 350.507C125.391 350.584 125.272 350.624 125.15 350.621C125.028 350.618 124.911 350.572 124.82 350.49C124.729 350.408 124.671 350.297 124.655 350.176L124.494 348.988L123.99 350.572C123.948 350.706 123.855 350.819 123.732 350.887C123.608 350.954 123.463 350.971 123.327 350.935C123.192 350.898 123.075 350.81 123.003 350.689C122.93 350.568 122.907 350.424 122.939 350.286L123.274 348.805L124.529 346.362L122.781 348.437L121.862 350.964C121.812 351.096 121.72 351.208 121.601 351.283C121.481 351.359 121.34 351.393 121.2 351.381C121.103 351.371 121.01 351.339 120.928 351.287C120.845 351.236 120.775 351.167 120.723 351.086C120.671 351.004 120.637 350.911 120.625 350.815C120.614 350.719 120.624 350.621 120.655 350.529L121.36 348.082L122.708 345.919L132.741 347.941Z" fill="#F49D98"/>
<path d="M131.879 343.556L132.745 347.941L123.265 346.027C122.913 345.956 122.546 346.028 122.246 346.226L119.724 347.896L118.026 350.708C117.978 350.79 117.913 350.86 117.836 350.915C117.759 350.969 117.671 351.006 117.578 351.024C117.456 351.049 117.329 351.039 117.212 350.997C117.095 350.954 116.992 350.88 116.914 350.783C116.836 350.686 116.786 350.57 116.77 350.446C116.754 350.323 116.772 350.197 116.823 350.083L118.303 346.73C118.364 346.592 118.461 346.472 118.584 346.384L122.361 343.688C122.649 343.483 122.996 343.376 123.35 343.383L131.879 343.556Z" fill="#FFD6D2"/>
<path d="M127.631 346.282L125.505 348.156L123.071 349.75C122.93 349.826 122.823 349.952 122.769 350.102C122.715 350.253 122.719 350.418 122.78 350.566C122.84 350.714 122.954 350.835 123.098 350.905C123.242 350.974 123.406 350.988 123.56 350.944L126.532 350.362L131.075 348.751L132.734 347.941L127.631 346.282Z" fill="#FFD6D2"/>
<path d="M132.157 344.991L132.737 347.941L131.075 348.751L126.532 350.364L123.566 350.946C123.194 349.899 125.206 350.064 125.206 350.064C127.022 349.574 128.698 348.664 130.097 347.407C130.188 347.329 130.275 347.247 130.359 347.169C131.054 346.527 131.659 345.795 132.157 344.991Z" fill="#F49D98"/>
<path d="M181.974 328.219L180.512 342.33L179.508 352.041L172.875 361.627C170.992 364.346 168.12 366.222 164.873 366.853C161.626 367.484 158.26 366.821 155.495 365.006L152.436 362.994H152.423L133.563 350.602L131.945 349.542C130.885 345.216 131.578 342.836 131.578 342.836L133.157 343.468L159.437 353.994L169.41 336.705C171.46 333.157 174.762 330.504 178.668 329.266L181.974 328.219Z" fill="#65BAAA"/>
<path d="M133.563 350.602L131.945 349.542C130.885 345.216 131.578 342.836 131.578 342.836L133.157 343.468C133.023 345.359 132.971 348.27 133.563 350.602Z" fill="#E8F1F9"/>
<path d="M180.511 342.33L179.507 352.041L172.875 361.627C170.991 364.346 168.119 366.222 164.872 366.853C161.625 367.484 158.26 366.821 155.494 365.006L152.436 362.994C152.816 363.085 161.971 365.304 165.601 362.994C169.309 360.627 179.507 340.51 179.507 340.51L180.511 342.33Z" fill="#3E9E8B"/>
<path d="M143.818 459.116L140.867 469.697L139.857 471.975L130.97 470.766L131.701 467.168L133.207 456.15L143.818 459.116Z" fill="#FFD6D2"/>
<path d="M118.165 474.586C117.836 474.869 117.601 475.247 117.494 475.667C117.466 475.779 117.45 475.894 117.445 476.009C117.406 476.474 117.525 476.937 117.782 477.326C118.039 477.714 118.419 478.005 118.862 478.151L120.203 478.584C122.378 479.297 124.653 479.659 126.942 479.654L141.652 479.628C141.979 479.628 142.302 479.554 142.596 479.411C142.89 479.268 143.147 479.06 143.349 478.803C143.552 478.546 143.693 478.247 143.763 477.927C143.833 477.608 143.829 477.277 143.753 476.959L143.536 476.068L142.706 472.606C142.429 471.461 141.78 470.44 140.86 469.703C138.186 473.128 133.812 470.086 133.812 470.086C133.877 468.115 131.694 467.174 131.694 467.174L122.476 472.894L118.799 474.218C118.567 474.302 118.352 474.426 118.165 474.586Z" fill="#D67636"/>
<path d="M117.447 476.003C117.408 476.467 117.527 476.931 117.784 477.32C118.041 477.708 118.421 477.999 118.864 478.145L120.205 478.577C122.38 479.291 124.655 479.652 126.944 479.648L141.654 479.622C141.981 479.622 142.304 479.547 142.598 479.404C142.892 479.261 143.149 479.054 143.351 478.797C143.554 478.54 143.695 478.24 143.765 477.921C143.835 477.602 143.831 477.271 143.755 476.953L143.538 476.061L142.316 475.904C141.617 475.814 140.907 475.922 140.266 476.217C139.625 476.511 139.08 476.979 138.692 477.567C138.55 477.783 138.358 477.962 138.132 478.089C137.906 478.216 137.653 478.287 137.394 478.296L127.404 478.705C127.124 478.716 126.845 478.664 126.588 478.551C126.331 478.439 126.102 478.269 125.92 478.056L125.838 477.961C125.673 477.766 125.47 477.608 125.24 477.496C125.011 477.384 124.761 477.321 124.505 477.312C123.071 477.262 119.904 477.028 117.447 476.003Z" fill="#C15316"/>
<path d="M132.153 463.854L141.767 466.474L143.818 459.116L133.207 456.15L132.153 463.854Z" fill="#F49D98"/>
<path d="M182.422 458.463L182.904 471.975L174.019 470.766L172.524 456.871L182.422 458.463Z" fill="#FFD6D2"/>
<path d="M160.063 474.586C159.734 474.869 159.501 475.247 159.395 475.667C159.367 475.78 159.35 475.894 159.343 476.009C159.305 476.474 159.424 476.938 159.681 477.326C159.939 477.715 160.319 478.005 160.762 478.151L162.101 478.584C164.276 479.297 166.551 479.658 168.84 479.654L183.55 479.628C183.877 479.628 184.2 479.554 184.494 479.411C184.788 479.268 185.046 479.06 185.248 478.803C185.45 478.546 185.591 478.247 185.661 477.927C185.731 477.608 185.728 477.277 185.651 476.959L185.435 476.068L184.602 472.606C184.326 471.461 183.678 470.44 182.759 469.703C180.085 473.128 175.711 470.086 175.711 470.086C175.773 468.115 173.593 467.174 173.593 467.174L164.39 472.888L160.712 474.212C160.475 474.296 160.255 474.423 160.063 474.586Z" fill="#D67636"/>
<path d="M159.341 476.003C159.303 476.468 159.422 476.931 159.679 477.32C159.937 477.708 160.317 477.999 160.76 478.145L162.099 478.577C164.274 479.291 166.549 479.652 168.838 479.648L183.549 479.622C183.875 479.622 184.198 479.547 184.492 479.404C184.786 479.261 185.044 479.054 185.246 478.797C185.448 478.54 185.589 478.24 185.659 477.921C185.729 477.602 185.726 477.271 185.649 476.953L185.433 476.061L184.208 475.904C183.509 475.814 182.799 475.923 182.159 476.217C181.518 476.511 180.973 476.979 180.585 477.567C180.443 477.784 180.25 477.963 180.025 478.09C179.799 478.217 179.546 478.287 179.287 478.296L169.297 478.705C169.016 478.716 168.737 478.663 168.48 478.551C168.223 478.438 167.995 478.269 167.813 478.056L167.733 477.961C167.568 477.766 167.364 477.607 167.134 477.495C166.904 477.384 166.653 477.321 166.398 477.312C164.961 477.262 161.794 477.028 159.341 476.003Z" fill="#C15316"/>
<path d="M173.446 465.444L182.733 467.168L182.422 458.463L172.524 456.871L173.446 465.444Z" fill="#F49D98"/>
<path d="M199.601 383.911L198.519 413.232H155.718L144.019 461.528C143.962 461.764 143.827 461.974 143.636 462.125C143.446 462.275 143.21 462.357 142.967 462.357H132.607C132.453 462.358 132.3 462.326 132.16 462.264C132.019 462.201 131.893 462.109 131.791 461.994C131.688 461.879 131.612 461.743 131.566 461.596C131.52 461.449 131.506 461.294 131.525 461.141L137.693 409.566C137.902 407.418 138.708 405.373 140.02 403.66C141.332 401.947 143.097 400.636 145.115 399.874L175.136 388.869L176.126 383.915L199.601 383.911Z" fill="#5A3C2A"/>
<g style="mix-blend-mode:overlay" opacity="0.3">
<path d="M188.894 396.343L198.512 408.638L197.236 413.232H155.717L155.356 412.813C155.176 412.605 155.04 412.363 154.956 412.101C154.871 411.839 154.841 411.563 154.867 411.289C154.892 411.015 154.973 410.749 155.104 410.507C155.235 410.265 155.413 410.052 155.629 409.881L174.789 394.663C175.751 393.988 176.859 393.552 178.023 393.391C179.187 393.231 180.372 393.35 181.48 393.739L188.894 396.343Z" fill="black"/>
</g>
<path d="M215.228 383.911L216.996 397.674C217.246 399.618 217.078 401.594 216.505 403.469C215.931 405.344 214.965 407.075 213.67 408.547C212.375 410.019 210.782 411.198 208.995 412.006C207.209 412.814 205.271 413.232 203.311 413.232H176.189L184.713 461.096C184.74 461.251 184.734 461.411 184.693 461.564C184.653 461.717 184.579 461.859 184.477 461.98C184.376 462.101 184.249 462.199 184.106 462.266C183.963 462.333 183.806 462.368 183.648 462.368H171.506C171.267 462.368 171.035 462.289 170.846 462.143C170.657 461.997 170.522 461.794 170.461 461.563L158.409 416.231C157.526 412.911 157.907 409.381 159.478 406.326C161.049 403.27 163.699 400.907 166.913 399.694L195.607 388.865L196.596 383.911H215.228Z" fill="#5A3C2A"/>
<path d="M158.087 415.623C157.976 415.622 157.869 415.582 157.786 415.509C157.702 415.436 157.647 415.336 157.63 415.227C157.173 411.995 157.827 408.704 159.483 405.892C161.14 403.079 163.702 400.913 166.751 399.746L180.473 394.565C180.586 394.528 180.709 394.536 180.817 394.588C180.924 394.639 181.007 394.73 181.049 394.842C181.091 394.953 181.089 395.076 181.042 395.186C180.996 395.296 180.909 395.383 180.799 395.43L167.078 400.609C164.224 401.702 161.826 403.731 160.276 406.364C158.726 408.997 158.116 412.078 158.545 415.104C158.554 415.164 158.551 415.225 158.536 415.284C158.521 415.343 158.495 415.398 158.459 415.447C158.422 415.495 158.377 415.536 158.324 415.567C158.272 415.598 158.214 415.619 158.154 415.627C158.131 415.628 158.109 415.626 158.087 415.623Z" fill="#2B160E"/>
<g style="mix-blend-mode:overlay" opacity="0.3">
<path d="M190.091 383.911L216.585 394.535L215.22 383.911H190.091Z" fill="black"/>
</g>
<path d="M174.258 385.89C174.332 386.26 174.44 386.622 174.58 386.972C174.941 387.912 175.512 388.757 176.25 389.442C176.987 390.127 177.872 390.635 178.835 390.927C191.242 394.68 204.165 392.83 211.811 391.03C213.024 390.747 214.154 390.184 215.111 389.387C216.069 388.589 216.827 387.58 217.325 386.438C217.478 386.093 217.605 385.737 217.706 385.373C217.978 384.388 218.061 383.36 217.948 382.345L217.749 380.584L217.641 379.597L217.121 374.899L217.013 373.914L216.488 369.213L216.379 368.229L215.86 363.53L215.75 362.546L215.229 357.841L215.118 356.857L212.044 329.199L204.323 326.97L201.472 326.144L191.826 325.194L187.61 326.492L181.974 328.223L177.178 346.414L176.313 357.185L176.235 358.18L175.856 362.918L175.772 363.913L175.391 368.653L175.311 369.646L174.93 374.382L174.85 375.377L174.47 380.106L174.39 381.105L174.154 384.049C174.103 384.665 174.138 385.284 174.258 385.89Z" fill="#65BAAA"/>
<g style="mix-blend-mode:overlay" opacity="0.5">
<path d="M176.232 358.178C181.221 359.232 186.832 359.608 192.325 359.608C201.298 359.608 209.973 358.598 215.226 357.841L215.115 356.856C206.694 358.074 189.322 359.963 176.31 357.183L176.232 358.178Z" fill="white"/>
<path d="M175.767 363.913C180.84 365.021 186.583 365.427 192.197 365.427C201.616 365.427 210.717 364.313 215.859 363.548L215.749 362.563C207.593 363.779 189.307 365.901 175.851 362.929L175.767 363.913Z" fill="white"/>
<path d="M175.306 369.646C180.463 370.81 186.328 371.221 192.067 371.221C201.967 371.221 211.513 369.988 216.487 369.226L216.379 368.242C208.591 369.445 189.303 371.829 175.386 368.653L175.306 369.646Z" fill="white"/>
<path d="M174.845 375.376C180.083 376.592 186.075 377.029 191.935 377.029C202.367 377.029 212.409 375.658 217.121 374.911L217.012 373.927C209.742 375.089 189.342 377.791 174.925 374.381L174.845 375.376Z" fill="white"/>
<path d="M174.384 381.105C179.695 382.381 185.817 382.836 191.805 382.836C202.838 382.836 213.439 381.308 217.748 380.601L217.64 379.615C211.087 380.696 189.43 383.772 174.464 380.11L174.384 381.105Z" fill="white"/>
<path d="M174.257 385.89C174.331 386.26 174.439 386.622 174.579 386.972C179.814 388.194 185.809 388.629 191.669 388.629C202.464 388.629 212.833 387.165 217.322 386.438C217.475 386.093 217.602 385.737 217.703 385.373C211.384 386.44 189.376 389.62 174.257 385.89Z" fill="white"/>
</g>
<path d="M187.611 326.49C187.789 329.413 188.074 334.343 196.061 334.568C202.767 334.754 204.202 329.495 204.325 326.972L201.472 326.148L191.828 325.198L187.611 326.49Z" fill="#E8F1F9"/>
<path d="M176.446 355.723H176.429C176.4 355.721 176.373 355.713 176.347 355.7C176.322 355.687 176.299 355.669 176.281 355.647C176.262 355.626 176.248 355.601 176.239 355.573C176.231 355.546 176.227 355.518 176.23 355.489L177.556 338.778C177.558 338.749 177.566 338.721 177.579 338.696C177.592 338.671 177.61 338.648 177.631 338.63C177.653 338.611 177.678 338.597 177.705 338.588C177.732 338.58 177.761 338.576 177.79 338.579C177.846 338.584 177.899 338.611 177.935 338.654C177.972 338.697 177.991 338.753 177.986 338.81L176.66 355.526C176.655 355.58 176.631 355.629 176.591 355.666C176.552 355.702 176.5 355.723 176.446 355.723Z" fill="#1B6D5D"/>
<path d="M201.318 323.128C201.318 323.128 208.053 313.642 207.592 306.133C207.131 298.625 201.801 300.338 201.801 300.338L195.224 303.416L196.522 315.684L201.318 323.128Z" fill="#492C1E"/>
<path d="M200.712 317.491L202.291 327.349V327.392C202.074 328.922 201.311 330.322 200.144 331.335C198.976 332.347 197.483 332.905 195.938 332.904C194.593 332.904 193.282 332.482 192.19 331.696C191.098 330.911 190.281 329.803 189.852 328.528L189.604 327.784V321.575L200.712 317.491Z" fill="#FFD6D2"/>
<path d="M196.473 324.736L189.598 327.784V321.575L196.473 324.736Z" fill="#F49D98"/>
<path d="M182.1 305.216C182.1 305.216 183.095 313.166 184.828 319.574C186.193 324.617 191.865 327.187 196.473 324.733C198.932 323.435 201.048 321.173 201.448 317.296C201.448 317.296 204.1 317.512 203.988 313.331C203.875 309.149 200.364 310.096 199.826 311.226L199.798 312.013C199.788 312.296 199.698 312.57 199.539 312.804C199.379 313.038 199.157 313.222 198.898 313.335C198.825 313.366 198.746 313.381 198.667 313.376C198.588 313.372 198.511 313.349 198.443 313.31C198.374 313.271 198.315 313.216 198.272 313.15C198.228 313.084 198.2 313.009 198.19 312.93L196.879 302.008L182.1 305.216Z" fill="#FFD6D2"/>
<path d="M191.847 318.131C191.902 318.124 191.953 318.099 191.992 318.06C192.031 318.021 192.056 317.97 192.063 317.915C192.071 317.849 192.052 317.783 192.012 317.73C191.972 317.678 191.913 317.643 191.847 317.633L189.467 317.385L189.316 312.149C189.313 312.082 189.284 312.019 189.235 311.973C189.186 311.927 189.121 311.902 189.054 311.903C188.988 311.907 188.925 311.937 188.879 311.985C188.834 312.034 188.808 312.098 188.808 312.165L188.966 317.623C188.967 317.683 188.989 317.74 189.029 317.785C189.068 317.83 189.123 317.859 189.182 317.867L191.778 318.14L191.847 318.131Z" fill="#F49D98"/>
<path d="M192.309 313.168C192.342 313.485 192.626 313.715 192.944 313.681C193.261 313.648 193.491 313.363 193.457 313.046L193.394 312.448C193.36 312.131 193.076 311.901 192.759 311.934C192.442 311.968 192.212 312.252 192.245 312.569L192.309 313.168Z" fill="#492C1E"/>
<path d="M185.847 314.224C185.88 314.541 186.165 314.771 186.482 314.738C186.799 314.704 187.029 314.42 186.995 314.102L186.932 313.504C186.899 313.187 186.614 312.957 186.297 312.991C185.98 313.024 185.75 313.309 185.783 313.626L185.847 314.224Z" fill="#492C1E"/>
<path d="M191.378 320.457C191.65 321.014 192.132 321.441 192.719 321.643C193.306 321.845 193.948 321.806 194.506 321.534C195.064 321.262 195.491 320.78 195.693 320.193C195.895 319.606 195.855 318.963 195.583 318.406L191.378 320.457Z" fill="white"/>
<path d="M190.687 310.986C190.742 310.979 190.794 310.956 190.835 310.919C192.699 309.188 194.651 310.116 194.729 310.157C194.789 310.187 194.859 310.191 194.923 310.17C194.987 310.148 195.04 310.103 195.07 310.042C195.085 310.013 195.094 309.98 195.096 309.947C195.098 309.914 195.094 309.88 195.083 309.849C195.073 309.817 195.056 309.788 195.034 309.763C195.012 309.738 194.986 309.718 194.956 309.703C194.21 309.384 193.387 309.293 192.59 309.444C191.794 309.594 191.06 309.978 190.482 310.547C190.458 310.57 190.439 310.598 190.427 310.629C190.414 310.66 190.407 310.693 190.407 310.726C190.407 310.759 190.414 310.793 190.427 310.823C190.439 310.854 190.458 310.882 190.482 310.906C190.508 310.933 190.54 310.955 190.576 310.969C190.611 310.982 190.649 310.988 190.687 310.986Z" fill="#492C1E"/>
<path d="M183.813 312.323C183.867 312.316 183.919 312.292 183.96 312.255C185.822 310.525 187.776 311.453 187.854 311.494C187.912 311.514 187.977 311.512 188.034 311.488C188.092 311.464 188.138 311.42 188.165 311.364C188.192 311.307 188.197 311.243 188.18 311.183C188.162 311.124 188.123 311.072 188.07 311.04C187.325 310.721 186.501 310.631 185.705 310.781C184.908 310.931 184.174 311.315 183.596 311.883C183.547 311.929 183.518 311.993 183.516 312.06C183.513 312.128 183.538 312.193 183.583 312.242C183.612 312.273 183.648 312.297 183.688 312.31C183.728 312.324 183.771 312.329 183.813 312.323Z" fill="#492C1E"/>
<path d="M196.269 304.783C196.269 304.783 189.466 311.769 181.598 310.408C180.939 310.291 180.316 310.025 179.774 309.633C179.233 309.24 178.787 308.73 178.471 308.141C178.155 307.551 177.976 306.898 177.948 306.23C177.92 305.561 178.043 304.895 178.309 304.282C179.993 300.388 183.748 295.529 191.806 297.45C191.806 297.45 198.671 294.095 201.797 300.336L196.269 304.783Z" fill="#492C1E"/>
<path d="M200.832 314.973C200.884 314.966 200.933 314.941 200.968 314.901C201.003 314.861 201.022 314.809 201.022 314.756C201.022 314.568 201.087 313.986 201.336 313.787C201.378 313.754 201.428 313.732 201.481 313.722C201.535 313.712 201.589 313.715 201.641 313.731C201.669 313.739 201.699 313.741 201.728 313.737C201.757 313.733 201.785 313.723 201.81 313.708C201.836 313.693 201.858 313.673 201.875 313.649C201.892 313.625 201.904 313.598 201.91 313.569C201.917 313.54 201.917 313.511 201.912 313.482C201.906 313.453 201.895 313.425 201.878 313.401C201.862 313.377 201.84 313.356 201.815 313.34C201.791 313.324 201.763 313.314 201.734 313.309C201.62 313.28 201.5 313.277 201.385 313.301C201.269 313.325 201.161 313.375 201.067 313.448C200.982 313.514 200.909 313.595 200.851 313.688C200.814 313.121 200.879 312.532 201.236 312.39C201.987 312.089 202.478 312.892 202.5 312.926C202.511 312.955 202.529 312.98 202.552 313.002C202.574 313.023 202.601 313.039 202.63 313.049C202.66 313.059 202.691 313.062 202.722 313.059C202.752 313.056 202.782 313.046 202.809 313.03C202.836 313.015 202.859 312.994 202.876 312.968C202.894 312.943 202.906 312.914 202.912 312.884C202.918 312.854 202.917 312.822 202.91 312.792C202.902 312.762 202.889 312.734 202.87 312.71C202.627 312.312 201.941 311.648 201.074 311.996C200.005 312.429 200.525 314.572 200.587 314.808C200.6 314.861 200.632 314.908 200.677 314.938C200.723 314.969 200.778 314.981 200.832 314.973Z" fill="#F49D98"/>
<path d="M165.647 365.555C165.93 366.479 166.218 367.262 166.478 367.902C166.72 368.5 167.166 368.994 167.735 369.297C168.305 369.601 168.963 369.694 169.595 369.562L176.288 368.166C177.101 367.991 177.85 367.595 178.452 367.022L179.068 366.431L180.407 366.152L179.284 360.156L159.382 360.616C159.294 360.618 159.207 360.639 159.127 360.677C159.048 360.715 158.977 360.769 158.92 360.837C158.863 360.905 158.822 360.984 158.798 361.069C158.774 361.154 158.769 361.243 158.783 361.33C158.805 361.472 158.876 361.601 158.983 361.697C159.089 361.792 159.226 361.847 159.369 361.854L164.844 362.431C164.907 362.747 164.821 362.327 164.844 362.431C165.061 363.513 165.32 364.471 165.576 365.322C165.597 365.402 165.621 365.48 165.647 365.555Z" fill="#FFD6D2"/>
<path d="M177.773 360.188L174.043 358.263C173.416 357.939 172.7 357.829 172.005 357.951L171.224 358.09C170.538 358.212 169.909 358.553 169.433 359.063L168.196 360.387L169.451 360.361L171.092 360.327L175.144 363.928L177.773 360.188Z" fill="#FFD6D2"/>
<path d="M167.514 368.562C167.551 368.535 167.578 368.496 167.591 368.452C167.604 368.408 167.603 368.361 167.588 368.318C166.617 365.304 167.002 361.663 167.006 361.627C167.012 361.567 166.993 361.507 166.955 361.46C166.917 361.414 166.862 361.385 166.802 361.379C166.742 361.373 166.682 361.392 166.635 361.43C166.589 361.468 166.56 361.523 166.554 361.583C166.537 361.737 166.154 365.356 167.155 368.461C167.163 368.489 167.177 368.516 167.196 368.539C167.215 368.562 167.238 368.581 167.264 368.594C167.291 368.608 167.32 368.616 167.349 368.618C167.379 368.62 167.409 368.616 167.437 368.606C167.465 368.596 167.491 368.581 167.514 368.562Z" fill="#F49D98"/>
<path d="M171.093 360.326L172.596 360.296L171.874 359.545L169.219 360.367L171.093 360.326Z" fill="#F49D98"/>
<path d="M169.198 369.614C169.332 369.608 169.465 369.59 169.596 369.562L176.289 368.166C177.103 367.993 177.852 367.596 178.452 367.02L179.071 366.431L180.41 366.152L179.287 360.156C179.287 360.156 178.794 367.409 169.198 369.614Z" fill="#F49D98"/>
<path d="M222.943 358.916C222.963 359.701 222.89 360.485 222.726 361.252C222.603 361.845 222.423 362.425 222.19 362.983C221.539 364.556 220.495 365.935 219.158 366.988C217.822 368.041 216.237 368.733 214.555 368.997C207.224 370.152 195.417 370.929 181.061 367.943C180.628 367.855 180.196 367.766 179.763 367.669C179.49 367.606 179.242 367.461 179.055 367.252C178.868 367.043 178.75 366.781 178.718 366.503L178.705 366.401L177.937 359.749L179.869 359.571L208.916 356.854L205.759 349.757C205.759 349.757 204.678 335.531 212.033 329.205L212.918 329.504C214.772 330.127 216.425 331.239 217.701 332.721C218.978 334.204 219.832 336.003 220.173 337.93C220.996 342.516 222.683 350.31 222.943 358.916Z" fill="#65BAAA"/>
<path d="M222.196 362.987C221.545 364.56 220.502 365.939 219.165 366.992C217.828 368.045 216.243 368.737 214.562 369.001C207.23 370.157 195.423 370.933 181.067 367.948C180.635 367.859 180.202 367.77 179.769 367.673C179.496 367.611 179.249 367.465 179.062 367.256C178.875 367.047 178.757 366.786 178.724 366.507L178.711 366.405C212.468 370.758 220.37 365.834 222.196 362.987Z" fill="#3E9E8B"/>
<path d="M181.068 367.948C180.635 367.859 180.202 367.77 179.77 367.673C179.496 367.61 179.249 367.465 179.062 367.256C178.875 367.047 178.757 366.785 178.725 366.507L177.944 359.753L179.876 359.576L181.068 367.948Z" fill="#E8F1F9"/>
<path d="M208.922 356.859L212.734 356.636L208.321 355.507L208.922 356.859Z" fill="#3E9E8B"/>
<path d="M193.128 358.449C193.07 358.452 193.014 358.431 192.972 358.393C192.929 358.354 192.904 358.301 192.901 358.243C192.898 358.186 192.918 358.13 192.956 358.087C192.995 358.044 193.049 358.019 193.106 358.016L208.602 356.67L205.573 349.849C205.562 349.823 205.556 349.795 205.555 349.767C205.554 349.739 205.559 349.71 205.569 349.684C205.58 349.657 205.595 349.633 205.615 349.613C205.634 349.592 205.658 349.575 205.684 349.564C205.71 349.552 205.738 349.546 205.766 349.545C205.795 349.545 205.823 349.55 205.849 349.56C205.876 349.57 205.9 349.586 205.921 349.605C205.941 349.625 205.958 349.648 205.969 349.674L209.123 356.77C209.139 356.8 209.147 356.834 209.147 356.868C209.147 356.903 209.139 356.936 209.123 356.967C209.106 356.997 209.082 357.022 209.053 357.041C209.024 357.06 208.991 357.072 208.957 357.075L193.165 358.446L193.128 358.449Z" fill="#1B6D5D"/>
<path d="M154.411 367.619H184.185C184.295 367.617 184.402 367.587 184.498 367.532C184.593 367.477 184.673 367.399 184.729 367.304C184.786 367.21 184.818 367.103 184.822 366.993C184.825 366.883 184.801 366.774 184.751 366.676L175.395 349.153C175.34 349.051 175.258 348.965 175.158 348.906C175.058 348.846 174.945 348.814 174.828 348.813H145.053C144.942 348.815 144.834 348.845 144.739 348.9C144.643 348.955 144.563 349.034 144.506 349.128C144.45 349.223 144.418 349.331 144.414 349.441C144.411 349.551 144.435 349.66 144.486 349.759L153.844 367.281C153.9 367.383 153.982 367.468 154.082 367.528C154.181 367.587 154.295 367.618 154.411 367.619Z" fill="#B7CFE2"/>
<path d="M152.925 367.619H182.703C182.813 367.617 182.92 367.587 183.016 367.532C183.111 367.477 183.191 367.399 183.247 367.304C183.304 367.21 183.336 367.103 183.34 366.993C183.344 366.883 183.319 366.774 183.27 366.676L173.911 349.153C173.856 349.051 173.774 348.965 173.674 348.906C173.574 348.846 173.46 348.814 173.344 348.813H143.568C143.458 348.815 143.351 348.846 143.255 348.901C143.16 348.956 143.08 349.035 143.024 349.129C142.967 349.224 142.936 349.331 142.932 349.441C142.929 349.551 142.953 349.661 143.004 349.759L152.36 367.281C152.416 367.383 152.497 367.468 152.597 367.527C152.696 367.586 152.809 367.618 152.925 367.619Z" fill="#D7E8F7"/>
<path d="M173.972 352.988H171.778C171.698 352.989 171.619 352.966 171.551 352.924C171.482 352.882 171.427 352.822 171.391 352.75L170.242 350.453C170.209 350.387 170.193 350.314 170.196 350.24C170.199 350.166 170.221 350.094 170.26 350.031C170.299 349.968 170.353 349.916 170.418 349.88C170.483 349.844 170.555 349.826 170.629 349.826H172.827C172.908 349.826 172.987 349.848 173.055 349.891C173.123 349.933 173.179 349.994 173.214 350.066L174.363 352.363C174.396 352.43 174.412 352.503 174.408 352.577C174.404 352.651 174.382 352.723 174.342 352.785C174.303 352.848 174.248 352.9 174.184 352.935C174.119 352.971 174.046 352.989 173.972 352.988Z" fill="#95B5E8"/>
<path d="M198.961 370.598H164.62V371.532H198.961V370.598Z" fill="#95B5E8"/>
<path d="M175.642 371.533H144.41L148.231 359.55H179.462L175.642 371.533Z" fill="#95B5E8"/>
<path d="M175.642 371.533H174.928L178.751 359.55H179.463L175.642 371.533Z" fill="#6E99D6"/>
<path d="M135.086 347.998L136.462 371.511H130.63L135.086 347.998Z" fill="#B7CFE2"/>
<path d="M118.011 371.511H133.747L135.086 347.998H120.159C119.938 347.997 119.725 348.081 119.564 348.233C119.404 348.385 119.307 348.592 119.294 348.813L118.011 371.511Z" fill="#D7E8F7"/>
<path d="M87.6483 381.207H242.07C242.98 381.207 243.718 380.469 243.718 379.558V373.153C243.718 372.242 242.98 371.504 242.07 371.504H87.6483C86.7379 371.504 85.9999 372.242 85.9999 373.153V379.558C85.9999 380.469 86.7379 381.207 87.6483 381.207Z" fill="#B7CFE2"/>
<path d="M194.131 381.207H242.28C243.23 381.207 244 380.437 244 379.487V373.224C244 372.274 243.23 371.504 242.28 371.504H194.131C193.182 371.504 192.412 372.274 192.412 373.224V379.487C192.412 380.437 193.182 381.207 194.131 381.207Z" fill="#95B5E8"/>
<path d="M234.125 479.704H239.317V381.25H234.125V479.704Z" fill="#95B5E8"/>
<path d="M197.215 479.704H202.407V381.25H197.215V479.704Z" fill="#95B5E8"/>
<path d="M90.1562 479.704H95.3481L95.3481 381.25H90.1562L90.1562 479.704Z" fill="#95B5E8"/>
<path d="M234.125 383.244H239.317V381.252H234.125V383.244Z" fill="#6E99D6"/>
<path d="M197.215 383.244H202.407V381.252H197.215V383.244Z" fill="#6E99D6"/>
<path d="M90.1562 383.244H95.3481V381.252H90.1562V383.244Z" fill="#6E99D6"/>
<path d="M104.023 227.102H149.715C150.832 227.102 151.738 228.007 151.738 229.124V235.198C151.738 236.315 150.832 237.221 149.715 237.221H104.023C102.905 237.221 102 236.315 102 235.198V229.124C102 228.007 102.905 227.102 104.023 227.102Z" fill="#BACFDF"/>
<path d="M104.806 148H165.629C167.033 148 168.171 149.009 168.171 150.253V219.258C168.171 220.502 167.033 221.511 165.629 221.511H104.806C103.403 221.511 102.265 220.502 102.265 219.258V150.253C102.265 149.009 103.403 148 104.806 148Z" fill="#BACFDF"/>
<path d="M142.583 162.867H133.604C133.382 162.867 133.165 162.926 132.974 163.038C132.784 163.151 132.627 163.312 132.52 163.506L131.719 164.958C131.611 165.151 131.454 165.312 131.264 165.425C131.073 165.537 130.856 165.596 130.635 165.596H120.147C119.819 165.596 119.504 165.727 119.272 165.958C119.04 166.19 118.909 166.505 118.909 166.833V183.645C118.909 183.974 119.039 184.289 119.271 184.521C119.504 184.754 119.819 184.884 120.147 184.884H142.583C142.912 184.884 143.227 184.754 143.459 184.521C143.692 184.289 143.822 183.974 143.822 183.645V164.106C143.822 163.777 143.692 163.462 143.459 163.23C143.227 162.997 142.912 162.867 142.583 162.867Z" fill="#95B5E8"/>
<path d="M146.697 162.298V178.583C146.697 178.891 146.574 179.187 146.357 179.404C146.139 179.622 145.843 179.745 145.535 179.745H128.945C128.637 179.745 128.342 179.622 128.124 179.404C127.906 179.187 127.784 178.891 127.784 178.583V158.281C127.784 157.973 127.906 157.678 128.124 157.46C128.342 157.242 128.637 157.12 128.945 157.12H141.77L146.697 162.298Z" fill="#D7E8F7"/>
<path d="M141.77 157.12V161.137C141.77 161.445 141.893 161.74 142.11 161.958C142.328 162.176 142.624 162.298 142.932 162.298H146.697L141.77 157.12Z" fill="white"/>
<path d="M143.903 166.107H130.575C130.393 166.107 130.246 165.96 130.246 165.778V164.793C130.246 164.611 130.393 164.464 130.575 164.464H143.903C144.084 164.464 144.232 164.611 144.232 164.793V165.778C144.232 165.96 144.084 166.107 143.903 166.107Z" fill="#D7E8F7"/>
<path d="M143.903 169.637H130.575C130.393 169.637 130.246 169.49 130.246 169.308V168.324C130.246 168.142 130.393 167.994 130.575 167.994H143.903C144.084 167.994 144.232 168.142 144.232 168.324V169.308C144.232 169.49 144.084 169.637 143.903 169.637Z" fill="#D7E8F7"/>
<path d="M137.006 173.17H130.478C130.35 173.17 130.246 173.066 130.246 172.938V171.759C130.246 171.631 130.35 171.527 130.478 171.527H137.006C137.135 171.527 137.239 171.631 137.239 171.759V172.938C137.239 173.066 137.135 173.17 137.006 173.17Z" fill="white"/>
<path d="M138.344 169.386H114.67C114.474 169.386 114.281 169.433 114.107 169.522C113.933 169.611 113.783 169.74 113.668 169.898C113.553 170.056 113.478 170.24 113.447 170.433C113.417 170.626 113.433 170.824 113.494 171.009L117.728 184.025C117.809 184.274 117.966 184.49 118.177 184.644C118.388 184.797 118.643 184.88 118.904 184.879H142.581C142.777 184.879 142.97 184.833 143.144 184.744C143.318 184.656 143.469 184.527 143.584 184.369C143.698 184.211 143.774 184.028 143.805 183.835C143.836 183.642 143.82 183.444 143.76 183.258L139.523 170.242C139.442 169.993 139.285 169.776 139.073 169.623C138.861 169.469 138.606 169.386 138.344 169.386Z" fill="white"/>
<path d="M121.508 172.198H113.881L112.935 169.294C112.874 169.108 112.858 168.91 112.888 168.717C112.919 168.523 112.995 168.34 113.11 168.181C113.225 168.023 113.375 167.894 113.55 167.805C113.724 167.716 113.917 167.67 114.113 167.67H119.134C119.396 167.671 119.65 167.754 119.862 167.907C120.074 168.061 120.231 168.278 120.312 168.527L121.508 172.198Z" fill="white"/>
<path d="M117.787 187.466C115.107 187.466 112.935 185.294 112.935 182.615C112.935 179.935 115.107 177.763 117.787 177.763C120.466 177.763 122.638 179.935 122.638 182.615C122.638 185.294 120.466 187.466 117.787 187.466Z" fill="#6E99D6"/>
<path d="M114.841 181.634L117.261 179.215C117.331 179.147 117.413 179.093 117.503 179.057C117.673 178.991 117.863 178.991 118.033 179.057C118.123 179.093 118.206 179.147 118.275 179.215L120.695 181.634C120.823 181.772 120.893 181.954 120.89 182.142C120.886 182.33 120.81 182.51 120.677 182.643C120.544 182.776 120.365 182.852 120.177 182.855C119.988 182.858 119.806 182.789 119.669 182.66L118.476 181.467V185.506C118.476 185.699 118.399 185.883 118.263 186.019C118.127 186.155 117.943 186.232 117.75 186.232C117.557 186.232 117.373 186.155 117.237 186.019C117.101 185.883 117.024 185.699 117.024 185.506V181.477L115.831 182.67C115.695 182.806 115.511 182.883 115.318 182.883C115.175 182.883 115.034 182.84 114.915 182.76C114.796 182.681 114.703 182.567 114.648 182.435C114.593 182.302 114.579 182.156 114.607 182.016C114.635 181.875 114.704 181.746 114.805 181.644L114.841 181.634Z" fill="white"/>
<path d="M131.175 193.334H150.7C151.273 193.334 151.738 193.799 151.738 194.372V197.489C151.738 198.062 151.273 198.527 150.7 198.527H131.175C130.601 198.527 130.137 198.062 130.137 197.489V194.372C130.137 193.799 130.601 193.334 131.175 193.334Z" fill="#D7E8F7"/>
<path d="M109.574 201.266H150.7C151.273 201.266 151.738 201.731 151.738 202.304V205.421C151.738 205.994 151.273 206.459 150.7 206.459H109.574C109 206.459 108.536 205.994 108.536 205.421V202.304C108.536 201.731 109 201.266 109.574 201.266Z" fill="#95B5E8"/>
<path d="M109.574 209.2H150.7C151.273 209.2 151.738 209.665 151.738 210.238V213.355C151.738 213.928 151.273 214.393 150.7 214.393H109.574C109 214.393 108.536 213.928 108.536 213.355V210.238C108.536 209.665 109 209.2 109.574 209.2Z" fill="#95B5E8"/>
<path d="M152.751 172.541C152.191 172.541 151.737 172.087 151.737 171.527C151.737 170.967 152.191 170.513 152.751 170.513C153.311 170.513 153.765 170.967 153.765 171.527C153.765 172.087 153.311 172.541 152.751 172.541Z" fill="white"/>
<path d="M145.802 233.175C145.242 233.175 144.788 232.721 144.788 232.161C144.788 231.601 145.242 231.147 145.802 231.147C146.362 231.147 146.816 231.601 146.816 232.161C146.816 232.721 146.362 233.175 145.802 233.175Z" fill="white"/>
<path d="M104.023 242.508H149.715C150.832 242.508 151.738 243.414 151.738 244.531V250.605C151.738 251.722 150.832 252.628 149.715 252.628H104.023C102.905 252.628 102 251.722 102 250.605V244.531C102 243.414 102.905 242.508 104.023 242.508Z" fill="#BACFDF"/>
<path d="M145.802 248.582C145.242 248.582 144.788 248.128 144.788 247.568C144.788 247.008 145.242 246.554 145.802 246.554C146.362 246.554 146.816 247.008 146.816 247.568C146.816 248.128 146.362 248.582 145.802 248.582Z" fill="white"/>
<path d="M104.023 257.915H149.715C150.832 257.915 151.738 258.82 151.738 259.938V266.011C151.738 267.129 150.832 268.034 149.715 268.034H104.023C102.905 268.034 102 267.129 102 266.011V259.938C102 258.82 102.905 257.915 104.023 257.915Z" fill="#BACFDF"/>
<path d="M145.802 263.988C145.242 263.988 144.788 263.535 144.788 262.975C144.788 262.415 145.242 261.961 145.802 261.961C146.362 261.961 146.816 262.415 146.816 262.975C146.816 263.535 146.362 263.988 145.802 263.988Z" fill="white"/>
<path d="M155.718 171.527H159.694C160.977 171.527 162.208 172.037 163.116 172.945C164.023 173.852 164.533 175.083 164.533 176.367V227.322C164.533 228.605 164.023 229.836 163.116 230.744C162.208 231.652 160.977 232.161 159.694 232.161H148.355" stroke="#95B5E8" stroke-width="2" stroke-linecap="round" stroke-linejoin="round"/>
<path d="M164.533 227.322V242.728C164.533 244.012 164.023 245.243 163.116 246.15C162.208 247.058 160.977 247.568 159.694 247.568H148.355" stroke="#95B5E8" stroke-width="2" stroke-linecap="round" stroke-linejoin="round"/>
<path d="M148.355 262.975H159.694C160.977 262.975 162.208 262.465 163.116 261.557C164.023 260.65 164.533 259.419 164.533 258.135V239.346" stroke="#95B5E8" stroke-width="2" stroke-linecap="round" stroke-linejoin="round"/>
<path d="M409 250.243C403.74 255.053 389.922 260.731 383.75 242.225C379.016 228.03 396.375 234.207 390.062 242.225C383.75 250.243 374.331 261.467 364.862 250.243C355.393 239.018 354.921 231 345.875 231C336.942 231 345.875 250.243 339.562 250.243C333.25 250.243 329.808 241.456 321.917 239.852C314.027 238.249 309.578 242.225 308 242.225" stroke="#6E99D6" stroke-width="0.75"/>
</svg>
