<svg width="1108" height="481" viewBox="0 0 1108 481" fill="none" xmlns="http://www.w3.org/2000/svg">
<line x1="993" y1="480.458" x2="61" y2="480.458" stroke="#95B5E8" stroke-width="0.5"/>
<path d="M831 139.5C808.5 94.5 749.5 89 708.5 120.5C647.311 167.51 564.86 54.6393 443.419 127.636C340.5 189.5 169.038 51.6513 177.5 113C183.5 156.5 364.965 72.2368 280 19.5C222 -16.5 127.5 -0.500061 86.4997 84C66.5 153 98.9998 181 117 189.5" stroke="#6E99D6" stroke-dasharray="2 2"/>
<path d="M113.146 168H164.489C165.674 168 166.635 168.961 166.635 170.146V235.854C166.635 237.039 165.674 238 164.489 238H113.146C111.961 238 111 237.039 111 235.854V170.146C111 168.961 111.961 168 113.146 168Z" fill="#BACFDF"/>
<path d="M151.121 179.827H142.234C142.016 179.827 141.801 179.885 141.612 179.996C141.424 180.108 141.269 180.267 141.163 180.458L140.371 181.894C140.265 182.085 140.109 182.244 139.921 182.355C139.733 182.466 139.518 182.525 139.299 182.525H128.929C128.604 182.525 128.293 182.654 128.063 182.884C127.833 183.114 127.704 183.425 127.704 183.75V200.369C127.704 200.529 127.736 200.689 127.798 200.837C127.859 200.986 127.949 201.121 128.063 201.235C128.177 201.348 128.312 201.439 128.46 201.5C128.609 201.562 128.768 201.593 128.929 201.593H151.121C151.282 201.593 151.442 201.562 151.59 201.5C151.739 201.439 151.874 201.348 151.987 201.235C152.101 201.121 152.191 200.986 152.253 200.837C152.315 200.689 152.346 200.529 152.346 200.369V181.052C152.346 180.727 152.217 180.415 151.987 180.186C151.758 179.956 151.446 179.827 151.121 179.827Z" fill="#95B5E8"/>
<path d="M155.188 179.265V195.364C155.188 195.515 155.158 195.664 155.101 195.804C155.043 195.943 154.958 196.069 154.852 196.176C154.745 196.283 154.618 196.367 154.479 196.425C154.34 196.483 154.191 196.512 154.04 196.512H137.639C137.488 196.512 137.339 196.483 137.2 196.425C137.06 196.367 136.934 196.283 136.827 196.176C136.72 196.069 136.636 195.943 136.578 195.804C136.52 195.664 136.491 195.515 136.491 195.364V175.294C136.491 175.143 136.52 174.994 136.578 174.854C136.636 174.715 136.72 174.588 136.827 174.482C136.934 174.375 137.06 174.291 137.2 174.233C137.339 174.175 137.488 174.146 137.639 174.146H150.318L155.188 179.265Z" fill="#D7E8F7"/>
<path d="M150.318 174.146V178.117C150.318 178.421 150.438 178.713 150.654 178.928C150.869 179.144 151.161 179.265 151.466 179.265H155.188L150.318 174.146Z" fill="white"/>
<path d="M152.425 183.03H139.249C139.069 183.03 138.924 182.884 138.924 182.705V181.731C138.924 181.551 139.069 181.406 139.249 181.406H152.425C152.605 181.406 152.751 181.551 152.751 181.731V182.705C152.751 182.884 152.605 183.03 152.425 183.03Z" fill="#D7E8F7"/>
<path d="M152.425 186.521H139.249C139.069 186.521 138.924 186.375 138.924 186.195V185.222C138.924 185.042 139.069 184.896 139.249 184.896H152.425C152.605 184.896 152.751 185.042 152.751 185.222V186.195C152.751 186.375 152.605 186.521 152.425 186.521Z" fill="#D7E8F7"/>
<path d="M145.608 190.013H139.153C139.027 190.013 138.924 189.91 138.924 189.783V188.618C138.924 188.491 139.027 188.389 139.153 188.389H145.608C145.734 188.389 145.837 188.491 145.837 188.618V189.783C145.837 189.91 145.734 190.013 145.608 190.013Z" fill="white"/>
<path d="M146.93 186.271H123.525C123.332 186.272 123.141 186.318 122.969 186.406C122.797 186.494 122.648 186.621 122.535 186.778C122.421 186.934 122.347 187.116 122.317 187.307C122.287 187.498 122.303 187.693 122.363 187.877L126.551 200.744C126.631 200.99 126.786 201.204 126.995 201.356C127.204 201.507 127.456 201.589 127.714 201.589H151.119C151.312 201.589 151.503 201.543 151.675 201.455C151.847 201.367 151.996 201.24 152.11 201.084C152.223 200.928 152.298 200.747 152.329 200.556C152.359 200.365 152.344 200.17 152.284 199.986L148.095 187.118C148.015 186.872 147.86 186.658 147.65 186.506C147.441 186.353 147.189 186.271 146.93 186.271Z" fill="white"/>
<path d="M130.274 189.056H122.734L121.798 186.185C121.738 186.002 121.723 185.806 121.753 185.615C121.783 185.424 121.858 185.242 121.971 185.086C122.085 184.929 122.234 184.802 122.407 184.714C122.579 184.626 122.77 184.58 122.963 184.58H127.939C128.198 184.581 128.45 184.663 128.659 184.815C128.868 184.967 129.024 185.181 129.104 185.427L130.274 189.056Z" fill="white"/>
<path d="M126.606 204.146C123.957 204.146 121.81 201.998 121.81 199.35C121.81 196.701 123.957 194.553 126.606 194.553C129.255 194.553 131.402 196.701 131.402 199.35C131.402 201.998 129.255 204.146 126.606 204.146Z" fill="#6E99D6"/>
<path d="M129.518 200.311L127.113 202.703C127.045 202.771 126.963 202.825 126.874 202.861C126.706 202.927 126.519 202.927 126.35 202.861H126.338C126.249 202.825 126.168 202.771 126.099 202.703L123.695 200.311C123.56 200.177 123.484 199.994 123.484 199.804C123.484 199.613 123.559 199.431 123.694 199.296C123.828 199.161 124.011 199.085 124.201 199.085C124.392 199.085 124.575 199.16 124.709 199.295L125.889 200.474V196.493C125.889 196.303 125.964 196.12 126.099 195.986C126.233 195.851 126.416 195.776 126.606 195.776C126.797 195.776 126.979 195.851 127.114 195.986C127.248 196.12 127.324 196.303 127.324 196.493V200.474L128.503 199.295C128.638 199.16 128.821 199.085 129.011 199.085C129.202 199.085 129.384 199.161 129.519 199.296C129.653 199.431 129.729 199.613 129.729 199.804C129.728 199.994 129.652 200.177 129.518 200.311Z" fill="white"/>
<path d="M139.842 209.947H159.144C159.711 209.947 160.17 210.406 160.17 210.973V214.054C160.17 214.621 159.711 215.081 159.144 215.081H139.842C139.275 215.081 138.815 214.621 138.815 214.054V210.973C138.815 210.406 139.275 209.947 139.842 209.947Z" fill="#D7E8F7"/>
<path d="M118.487 217.789H159.144C159.711 217.789 160.17 218.248 160.17 218.815V221.896C160.17 222.463 159.711 222.922 159.144 222.922H118.487C117.92 222.922 117.46 222.463 117.46 221.896V218.815C117.46 218.248 117.92 217.789 118.487 217.789Z" fill="#95B5E8"/>
<path d="M118.487 225.633H159.144C159.711 225.633 160.17 226.092 160.17 226.659V229.74C160.17 230.307 159.711 230.766 159.144 230.766H118.487C117.92 230.766 117.46 230.307 117.46 229.74V226.659C117.46 226.092 117.92 225.633 118.487 225.633Z" fill="#95B5E8"/>
<path d="M792.985 267.841C794.218 267.841 795.218 266.841 795.218 265.608C795.218 264.375 794.218 263.375 792.985 263.375C791.752 263.375 790.753 264.375 790.753 265.608C790.753 266.841 791.752 267.841 792.985 267.841Z" fill="#6E99D6"/>
<path d="M792.985 317.121C794.218 317.121 795.218 316.121 795.218 314.888C795.218 313.655 794.218 312.656 792.985 312.656C791.752 312.656 790.753 313.655 790.753 314.888C790.753 316.121 791.752 317.121 792.985 317.121Z" fill="#6E99D6"/>
<path d="M792.985 366.403C794.218 366.403 795.218 365.404 795.218 364.171C795.218 362.938 794.218 361.938 792.985 361.938C791.752 361.938 790.753 362.938 790.753 364.171C790.753 365.404 791.752 366.403 792.985 366.403Z" fill="#6E99D6"/>
<path d="M792.985 359.204C792.813 359.204 792.648 359.135 792.526 359.013C792.404 358.892 792.336 358.727 792.336 358.555V320.93C792.336 320.758 792.404 320.593 792.526 320.471C792.648 320.35 792.813 320.281 792.985 320.281C793.157 320.281 793.322 320.35 793.444 320.471C793.566 320.593 793.634 320.758 793.634 320.93V358.555C793.634 358.727 793.566 358.892 793.444 359.013C793.322 359.135 793.157 359.204 792.985 359.204Z" fill="#D7E8F7"/>
<path d="M792.985 309.487C792.813 309.487 792.648 309.418 792.526 309.296C792.404 309.175 792.336 309.01 792.336 308.838V271.215C792.336 271.043 792.404 270.878 792.526 270.756C792.648 270.635 792.813 270.566 792.985 270.566C793.157 270.566 793.322 270.635 793.444 270.756C793.566 270.878 793.634 271.043 793.634 271.215V308.838C793.634 309.01 793.566 309.175 793.444 309.296C793.322 309.418 793.157 309.487 792.985 309.487Z" fill="#D7E8F7"/>
<path d="M859.935 344.024C859.762 344.024 859.597 343.955 859.476 343.834C859.354 343.712 859.286 343.547 859.286 343.375V319.215C859.286 318.24 858.898 317.304 858.208 316.614C857.519 315.925 856.583 315.537 855.608 315.537H799.362C799.19 315.537 799.025 315.469 798.903 315.347C798.781 315.225 798.713 315.06 798.713 314.888C798.713 314.716 798.781 314.551 798.903 314.429C799.025 314.308 799.19 314.239 799.362 314.239H855.608C856.928 314.239 858.193 314.763 859.126 315.697C860.059 316.63 860.584 317.895 860.584 319.215V343.375C860.584 343.547 860.515 343.712 860.393 343.834C860.272 343.955 860.107 344.024 859.935 344.024Z" fill="#D7E8F7"/>
<path d="M825.664 479.704H830.855V381.25H825.664V479.704Z" fill="#6E99D6"/>
<path d="M881.732 474.08H890.327V417.479H881.732V474.08Z" fill="#6E99D6"/>
<path d="M899.524 376.25H908.419L900.445 423.489H891.55L899.524 376.25Z" fill="#6E99D6"/>
<path d="M861.114 425.868H910.948C911.235 425.868 911.467 425.636 911.467 425.349V421.63C911.467 421.343 911.235 421.111 910.948 421.111H861.114C860.827 421.111 860.595 421.343 860.595 421.63V425.349C860.595 425.636 860.827 425.868 861.114 425.868Z" fill="#95B5E8"/>
<path d="M860.411 421.109H911.653C913.087 421.109 914.249 419.947 914.249 418.513V415.826C914.249 414.392 913.087 413.23 911.653 413.23H860.411C858.977 413.23 857.815 414.392 857.815 415.826V418.513C857.815 419.947 858.977 421.109 860.411 421.109Z" fill="#B7CFE2"/>
<path d="M882.353 382.455C895.132 383.773 908.013 383.779 920.793 382.474C921.357 382.399 921.883 382.151 922.299 381.763C922.715 381.375 923 380.868 923.114 380.311L928.079 353.425C928.324 352.106 927.372 351.083 926.054 351.262C913.252 353.017 900.777 353.011 888.629 351.243C887.381 351.061 886.05 352.084 885.817 353.406L880.841 380.292C880.629 381.399 881.282 382.351 882.353 382.455Z" fill="#B7CFE2"/>
<path d="M926.673 351.262H929.319C930.502 351.262 931.281 352.24 931.05 353.447L926.119 380.201C925.903 381.406 924.756 382.383 923.573 382.383H920.811L926.673 351.262Z" fill="#95B5E8"/>
<path d="M862.96 479.642H909.103L890.328 474.08H881.733L862.96 479.642Z" fill="#6E99D6"/>
<path d="M867.916 456.933H904.147C904.992 456.933 905.676 456.249 905.676 455.404C905.676 454.559 904.992 453.874 904.147 453.874H867.916C867.071 453.874 866.386 454.559 866.386 455.404C866.386 456.249 867.071 456.933 867.916 456.933Z" fill="#B7CFE2"/>
<path d="M830.741 347.941L829.075 348.75L826.858 349.183L823.961 348.631L823.667 350.202C823.645 350.322 823.58 350.43 823.486 350.507C823.391 350.584 823.272 350.624 823.15 350.621C823.028 350.618 822.911 350.572 822.82 350.49C822.729 350.408 822.671 350.297 822.655 350.176L822.494 348.988L821.99 350.572C821.948 350.706 821.855 350.819 821.732 350.887C821.608 350.954 821.463 350.971 821.327 350.935C821.192 350.898 821.075 350.81 821.003 350.689C820.93 350.568 820.907 350.424 820.939 350.286L821.274 348.805L822.529 346.362L820.781 348.437L819.862 350.964C819.812 351.096 819.72 351.208 819.601 351.283C819.481 351.359 819.34 351.393 819.2 351.381C819.103 351.371 819.01 351.339 818.928 351.287C818.845 351.236 818.775 351.167 818.723 351.086C818.671 351.004 818.637 350.911 818.625 350.815C818.614 350.719 818.624 350.621 818.655 350.529L819.36 348.082L820.708 345.919L830.741 347.941Z" fill="#F49D98"/>
<path d="M829.879 343.556L830.745 347.941L821.265 346.027C820.913 345.956 820.546 346.028 820.246 346.226L817.724 347.896L816.026 350.708C815.978 350.79 815.913 350.86 815.836 350.915C815.759 350.969 815.671 351.006 815.578 351.024C815.456 351.049 815.329 351.039 815.212 350.997C815.095 350.954 814.992 350.88 814.914 350.783C814.836 350.686 814.786 350.57 814.77 350.446C814.754 350.323 814.772 350.197 814.823 350.083L816.303 346.73C816.364 346.592 816.461 346.472 816.584 346.384L820.361 343.688C820.649 343.483 820.996 343.376 821.35 343.383L829.879 343.556Z" fill="#FFD6D2"/>
<path d="M825.631 346.282L823.505 348.156L821.071 349.75C820.93 349.826 820.823 349.952 820.769 350.102C820.715 350.253 820.719 350.418 820.78 350.566C820.84 350.714 820.954 350.835 821.098 350.905C821.242 350.974 821.406 350.988 821.56 350.944L824.532 350.362L829.075 348.751L830.734 347.941L825.631 346.282Z" fill="#FFD6D2"/>
<path d="M830.157 344.991L830.737 347.941L829.075 348.751L824.532 350.364L821.566 350.946C821.194 349.899 823.206 350.064 823.206 350.064C825.022 349.574 826.698 348.664 828.097 347.407C828.188 347.329 828.275 347.247 828.359 347.169C829.054 346.527 829.659 345.795 830.157 344.991Z" fill="#F49D98"/>
<path d="M879.974 328.219L878.512 342.33L877.508 352.041L870.875 361.627C868.992 364.346 866.12 366.222 862.873 366.853C859.626 367.484 856.26 366.821 853.495 365.006L850.436 362.994H850.423L831.563 350.602L829.945 349.542C828.885 345.216 829.578 342.836 829.578 342.836L831.157 343.468L857.437 353.994L867.41 336.705C869.46 333.157 872.762 330.504 876.668 329.266L879.974 328.219Z" fill="#65BAAA"/>
<path d="M831.563 350.602L829.945 349.542C828.885 345.216 829.578 342.836 829.578 342.836L831.157 343.468C831.023 345.359 830.971 348.27 831.563 350.602Z" fill="#E8F1F9"/>
<path d="M878.511 342.33L877.507 352.041L870.875 361.627C868.991 364.346 866.119 366.222 862.872 366.853C859.625 367.484 856.26 366.821 853.494 365.006L850.436 362.994C850.816 363.085 859.971 365.304 863.601 362.994C867.309 360.627 877.507 340.51 877.507 340.51L878.511 342.33Z" fill="#3E9E8B"/>
<path d="M841.818 459.116L838.867 469.697L837.857 471.975L828.97 470.766L829.701 467.168L831.207 456.15L841.818 459.116Z" fill="#FFD6D2"/>
<path d="M816.165 474.586C815.836 474.869 815.601 475.247 815.494 475.667C815.466 475.779 815.45 475.894 815.445 476.009C815.406 476.474 815.525 476.937 815.782 477.326C816.039 477.714 816.419 478.005 816.862 478.151L818.203 478.584C820.378 479.297 822.653 479.659 824.942 479.654L839.652 479.628C839.979 479.628 840.302 479.554 840.596 479.411C840.89 479.268 841.147 479.06 841.349 478.803C841.552 478.546 841.693 478.247 841.763 477.927C841.833 477.608 841.829 477.277 841.753 476.959L841.536 476.068L840.706 472.606C840.429 471.461 839.78 470.44 838.86 469.703C836.186 473.128 831.812 470.086 831.812 470.086C831.877 468.115 829.694 467.174 829.694 467.174L820.476 472.894L816.799 474.218C816.567 474.302 816.352 474.426 816.165 474.586Z" fill="#D67636"/>
<path d="M815.447 476.003C815.408 476.467 815.527 476.931 815.784 477.32C816.041 477.708 816.421 477.999 816.864 478.145L818.205 478.577C820.38 479.291 822.655 479.652 824.944 479.648L839.654 479.622C839.981 479.622 840.304 479.547 840.598 479.404C840.892 479.261 841.149 479.054 841.351 478.797C841.554 478.54 841.695 478.24 841.765 477.921C841.835 477.602 841.831 477.271 841.755 476.953L841.538 476.061L840.316 475.904C839.617 475.814 838.907 475.922 838.266 476.217C837.625 476.511 837.08 476.979 836.692 477.567C836.55 477.783 836.358 477.962 836.132 478.089C835.906 478.216 835.653 478.287 835.394 478.296L825.404 478.705C825.124 478.716 824.845 478.664 824.588 478.551C824.331 478.439 824.102 478.269 823.92 478.056L823.838 477.961C823.673 477.766 823.47 477.608 823.24 477.496C823.011 477.384 822.761 477.321 822.505 477.312C821.071 477.262 817.904 477.028 815.447 476.003Z" fill="#C15316"/>
<path d="M830.153 463.854L839.767 466.474L841.818 459.116L831.207 456.15L830.153 463.854Z" fill="#F49D98"/>
<path d="M880.422 458.463L880.904 471.975L872.019 470.766L870.524 456.871L880.422 458.463Z" fill="#FFD6D2"/>
<path d="M858.063 474.586C857.734 474.869 857.501 475.247 857.395 475.667C857.367 475.78 857.35 475.894 857.343 476.009C857.305 476.474 857.424 476.938 857.681 477.326C857.939 477.715 858.319 478.005 858.762 478.151L860.101 478.584C862.276 479.297 864.551 479.658 866.84 479.654L881.55 479.628C881.877 479.628 882.2 479.554 882.494 479.411C882.788 479.268 883.046 479.06 883.248 478.803C883.45 478.546 883.591 478.247 883.661 477.927C883.731 477.608 883.728 477.277 883.651 476.959L883.435 476.068L882.602 472.606C882.326 471.461 881.678 470.44 880.759 469.703C878.085 473.128 873.711 470.086 873.711 470.086C873.773 468.115 871.593 467.174 871.593 467.174L862.39 472.888L858.712 474.212C858.475 474.296 858.255 474.423 858.063 474.586Z" fill="#D67636"/>
<path d="M857.341 476.003C857.303 476.468 857.422 476.931 857.679 477.32C857.937 477.708 858.317 477.999 858.76 478.145L860.099 478.577C862.274 479.291 864.549 479.652 866.838 479.648L881.549 479.622C881.875 479.622 882.198 479.547 882.492 479.404C882.786 479.261 883.044 479.054 883.246 478.797C883.448 478.54 883.589 478.24 883.659 477.921C883.729 477.602 883.726 477.271 883.649 476.953L883.433 476.061L882.208 475.904C881.509 475.814 880.799 475.923 880.159 476.217C879.518 476.511 878.973 476.979 878.585 477.567C878.443 477.784 878.25 477.963 878.025 478.09C877.799 478.217 877.546 478.287 877.287 478.296L867.297 478.705C867.016 478.716 866.737 478.663 866.48 478.551C866.223 478.438 865.995 478.269 865.813 478.056L865.733 477.961C865.568 477.766 865.364 477.607 865.134 477.495C864.904 477.384 864.653 477.321 864.398 477.312C862.961 477.262 859.794 477.028 857.341 476.003Z" fill="#C15316"/>
<path d="M871.446 465.444L880.733 467.168L880.422 458.463L870.524 456.871L871.446 465.444Z" fill="#F49D98"/>
<path d="M897.601 383.911L896.519 413.232H853.718L842.019 461.528C841.962 461.764 841.827 461.974 841.636 462.125C841.446 462.275 841.21 462.357 840.967 462.357H830.607C830.453 462.358 830.3 462.326 830.16 462.264C830.019 462.201 829.893 462.109 829.791 461.994C829.688 461.879 829.612 461.743 829.566 461.596C829.52 461.449 829.506 461.294 829.525 461.141L835.693 409.566C835.902 407.418 836.708 405.373 838.02 403.66C839.332 401.947 841.097 400.636 843.115 399.874L873.136 388.869L874.126 383.915L897.601 383.911Z" fill="#5A3C2A"/>
<g style="mix-blend-mode:overlay" opacity="0.3">
<path d="M886.894 396.343L896.512 408.638L895.236 413.232H853.717L853.356 412.813C853.176 412.605 853.04 412.363 852.956 412.101C852.871 411.839 852.841 411.563 852.867 411.289C852.892 411.015 852.973 410.749 853.104 410.507C853.235 410.265 853.413 410.052 853.629 409.881L872.789 394.663C873.751 393.988 874.859 393.552 876.023 393.391C877.187 393.231 878.372 393.35 879.48 393.739L886.894 396.343Z" fill="black"/>
</g>
<path d="M913.228 383.911L914.996 397.674C915.246 399.618 915.078 401.594 914.505 403.469C913.931 405.344 912.965 407.075 911.67 408.547C910.375 410.019 908.782 411.198 906.995 412.006C905.209 412.814 903.271 413.232 901.311 413.232H874.189L882.713 461.096C882.74 461.251 882.734 461.411 882.693 461.564C882.653 461.717 882.579 461.859 882.477 461.98C882.376 462.101 882.249 462.199 882.106 462.266C881.963 462.333 881.806 462.368 881.648 462.368H869.506C869.267 462.368 869.035 462.289 868.846 462.143C868.657 461.997 868.522 461.794 868.461 461.563L856.409 416.231C855.526 412.911 855.907 409.381 857.478 406.326C859.049 403.27 861.699 400.907 864.913 399.694L893.607 388.865L894.596 383.911H913.228Z" fill="#5A3C2A"/>
<path d="M856.087 415.623C855.976 415.622 855.869 415.582 855.786 415.509C855.702 415.436 855.647 415.336 855.63 415.227C855.173 411.995 855.827 408.704 857.483 405.892C859.14 403.079 861.702 400.913 864.751 399.746L878.473 394.565C878.586 394.528 878.709 394.536 878.817 394.588C878.924 394.639 879.007 394.73 879.049 394.842C879.091 394.953 879.089 395.076 879.042 395.186C878.996 395.296 878.909 395.383 878.799 395.43L865.078 400.609C862.224 401.702 859.826 403.731 858.276 406.364C856.726 408.997 856.116 412.078 856.545 415.104C856.554 415.164 856.551 415.225 856.536 415.284C856.521 415.343 856.495 415.398 856.459 415.447C856.422 415.495 856.377 415.536 856.324 415.567C856.272 415.598 856.214 415.619 856.154 415.627C856.131 415.628 856.109 415.626 856.087 415.623Z" fill="#2B160E"/>
<g style="mix-blend-mode:overlay" opacity="0.3">
<path d="M888.091 383.911L914.585 394.535L913.22 383.911H888.091Z" fill="black"/>
</g>
<path d="M872.258 385.89C872.332 386.26 872.44 386.622 872.58 386.972C872.941 387.912 873.512 388.757 874.25 389.442C874.987 390.127 875.872 390.635 876.835 390.927C889.242 394.68 902.165 392.83 909.811 391.03C911.024 390.747 912.154 390.184 913.111 389.387C914.069 388.589 914.827 387.58 915.325 386.438C915.478 386.093 915.605 385.737 915.706 385.373C915.978 384.388 916.061 383.36 915.948 382.345L915.749 380.584L915.641 379.597L915.121 374.899L915.013 373.914L914.488 369.213L914.379 368.229L913.86 363.53L913.75 362.546L913.229 357.841L913.118 356.857L910.044 329.199L902.323 326.97L899.472 326.144L889.826 325.194L885.61 326.492L879.974 328.223L875.178 346.414L874.313 357.185L874.235 358.18L873.856 362.918L873.772 363.913L873.391 368.653L873.311 369.646L872.93 374.382L872.85 375.377L872.47 380.106L872.39 381.105L872.154 384.049C872.103 384.665 872.138 385.284 872.258 385.89Z" fill="#65BAAA"/>
<g style="mix-blend-mode:overlay" opacity="0.5">
<path d="M874.232 358.178C879.221 359.232 884.832 359.608 890.325 359.608C899.298 359.608 907.973 358.598 913.226 357.841L913.115 356.856C904.694 358.074 887.322 359.963 874.31 357.183L874.232 358.178Z" fill="white"/>
<path d="M873.767 363.913C878.84 365.021 884.583 365.427 890.197 365.427C899.616 365.427 908.717 364.313 913.859 363.548L913.749 362.563C905.593 363.779 887.307 365.901 873.851 362.929L873.767 363.913Z" fill="white"/>
<path d="M873.306 369.646C878.463 370.81 884.328 371.221 890.067 371.221C899.967 371.221 909.513 369.988 914.487 369.226L914.379 368.242C906.591 369.445 887.303 371.829 873.386 368.653L873.306 369.646Z" fill="white"/>
<path d="M872.845 375.376C878.083 376.592 884.075 377.029 889.935 377.029C900.367 377.029 910.409 375.658 915.121 374.911L915.012 373.927C907.742 375.089 887.342 377.791 872.925 374.381L872.845 375.376Z" fill="white"/>
<path d="M872.384 381.105C877.695 382.381 883.817 382.836 889.805 382.836C900.838 382.836 911.439 381.308 915.748 380.601L915.64 379.615C909.087 380.696 887.43 383.772 872.464 380.11L872.384 381.105Z" fill="white"/>
<path d="M872.257 385.89C872.331 386.26 872.439 386.622 872.579 386.972C877.814 388.194 883.809 388.629 889.669 388.629C900.464 388.629 910.833 387.165 915.322 386.438C915.475 386.093 915.602 385.737 915.703 385.373C909.384 386.44 887.376 389.62 872.257 385.89Z" fill="white"/>
</g>
<path d="M885.611 326.49C885.789 329.413 886.074 334.343 894.061 334.568C900.767 334.754 902.202 329.495 902.325 326.972L899.472 326.148L889.828 325.198L885.611 326.49Z" fill="#E8F1F9"/>
<path d="M874.446 355.723H874.429C874.4 355.721 874.373 355.713 874.347 355.7C874.322 355.687 874.299 355.669 874.281 355.647C874.262 355.626 874.248 355.601 874.239 355.573C874.231 355.546 874.227 355.518 874.23 355.489L875.556 338.778C875.558 338.749 875.566 338.721 875.579 338.696C875.592 338.671 875.61 338.648 875.631 338.63C875.653 338.611 875.678 338.597 875.705 338.588C875.732 338.58 875.761 338.576 875.79 338.579C875.846 338.584 875.899 338.611 875.935 338.654C875.972 338.697 875.991 338.753 875.986 338.81L874.66 355.526C874.655 355.58 874.631 355.629 874.591 355.666C874.552 355.702 874.5 355.723 874.446 355.723Z" fill="#1B6D5D"/>
<path d="M899.318 323.128C899.318 323.128 906.053 313.642 905.592 306.133C905.131 298.625 899.801 300.338 899.801 300.338L893.224 303.416L894.522 315.684L899.318 323.128Z" fill="#492C1E"/>
<path d="M898.712 317.491L900.291 327.349V327.392C900.074 328.922 899.311 330.322 898.144 331.335C896.976 332.347 895.483 332.905 893.938 332.904C892.593 332.904 891.282 332.482 890.19 331.696C889.098 330.911 888.281 329.803 887.852 328.528L887.604 327.784V321.575L898.712 317.491Z" fill="#FFD6D2"/>
<path d="M894.473 324.736L887.598 327.784V321.575L894.473 324.736Z" fill="#F49D98"/>
<path d="M880.1 305.216C880.1 305.216 881.095 313.166 882.828 319.574C884.193 324.617 889.865 327.187 894.473 324.733C896.932 323.435 899.048 321.173 899.448 317.296C899.448 317.296 902.1 317.512 901.988 313.331C901.875 309.149 898.364 310.096 897.826 311.226L897.798 312.013C897.788 312.296 897.698 312.57 897.539 312.804C897.379 313.038 897.157 313.222 896.898 313.335C896.825 313.366 896.746 313.381 896.667 313.376C896.588 313.372 896.511 313.349 896.443 313.31C896.374 313.271 896.315 313.216 896.272 313.15C896.228 313.084 896.2 313.009 896.19 312.93L894.879 302.008L880.1 305.216Z" fill="#FFD6D2"/>
<path d="M889.847 318.131C889.902 318.124 889.953 318.099 889.992 318.06C890.031 318.021 890.056 317.97 890.063 317.915C890.071 317.849 890.052 317.783 890.012 317.73C889.972 317.678 889.913 317.643 889.847 317.633L887.467 317.385L887.316 312.149C887.313 312.082 887.284 312.019 887.235 311.973C887.186 311.927 887.121 311.902 887.054 311.903C886.988 311.907 886.925 311.937 886.879 311.985C886.834 312.034 886.808 312.098 886.808 312.165L886.966 317.623C886.967 317.683 886.989 317.74 887.029 317.785C887.068 317.83 887.123 317.859 887.182 317.867L889.778 318.14L889.847 318.131Z" fill="#F49D98"/>
<path d="M890.309 313.168C890.342 313.485 890.626 313.715 890.944 313.681C891.261 313.648 891.491 313.363 891.457 313.046L891.394 312.448C891.36 312.131 891.076 311.901 890.759 311.934C890.442 311.968 890.212 312.252 890.245 312.569L890.309 313.168Z" fill="#492C1E"/>
<path d="M883.847 314.224C883.88 314.541 884.165 314.771 884.482 314.738C884.799 314.704 885.029 314.42 884.995 314.102L884.932 313.504C884.899 313.187 884.614 312.957 884.297 312.991C883.98 313.024 883.75 313.309 883.783 313.626L883.847 314.224Z" fill="#492C1E"/>
<path d="M889.378 320.457C889.65 321.014 890.132 321.441 890.719 321.643C891.306 321.845 891.948 321.806 892.506 321.534C893.064 321.262 893.491 320.78 893.693 320.193C893.895 319.606 893.855 318.963 893.583 318.406L889.378 320.457Z" fill="white"/>
<path d="M888.687 310.986C888.742 310.979 888.794 310.956 888.835 310.919C890.699 309.188 892.651 310.116 892.729 310.157C892.789 310.187 892.859 310.191 892.923 310.17C892.987 310.148 893.04 310.103 893.07 310.042C893.085 310.013 893.094 309.98 893.096 309.947C893.098 309.914 893.094 309.88 893.083 309.849C893.073 309.817 893.056 309.788 893.034 309.763C893.012 309.738 892.986 309.718 892.956 309.703C892.21 309.384 891.387 309.293 890.59 309.444C889.794 309.594 889.06 309.978 888.482 310.547C888.458 310.57 888.439 310.598 888.427 310.629C888.414 310.66 888.407 310.693 888.407 310.726C888.407 310.759 888.414 310.793 888.427 310.823C888.439 310.854 888.458 310.882 888.482 310.906C888.508 310.933 888.54 310.955 888.576 310.969C888.611 310.982 888.649 310.988 888.687 310.986Z" fill="#492C1E"/>
<path d="M881.813 312.323C881.867 312.316 881.919 312.292 881.96 312.255C883.822 310.525 885.776 311.453 885.854 311.494C885.912 311.514 885.977 311.512 886.034 311.488C886.092 311.464 886.138 311.42 886.165 311.364C886.192 311.307 886.197 311.243 886.18 311.183C886.162 311.124 886.123 311.072 886.07 311.04C885.325 310.721 884.501 310.631 883.705 310.781C882.908 310.931 882.174 311.315 881.596 311.883C881.547 311.929 881.518 311.993 881.516 312.06C881.513 312.128 881.538 312.193 881.583 312.242C881.612 312.273 881.648 312.297 881.688 312.31C881.728 312.324 881.771 312.329 881.813 312.323Z" fill="#492C1E"/>
<path d="M894.269 304.783C894.269 304.783 887.466 311.769 879.598 310.408C878.939 310.291 878.316 310.025 877.774 309.633C877.233 309.24 876.787 308.73 876.471 308.141C876.155 307.551 875.976 306.898 875.948 306.23C875.92 305.561 876.043 304.895 876.309 304.282C877.993 300.388 881.748 295.529 889.806 297.45C889.806 297.45 896.671 294.095 899.797 300.336L894.269 304.783Z" fill="#492C1E"/>
<path d="M898.832 314.973C898.884 314.966 898.933 314.941 898.968 314.901C899.003 314.861 899.022 314.809 899.022 314.756C899.022 314.568 899.087 313.986 899.336 313.787C899.378 313.754 899.428 313.732 899.481 313.722C899.535 313.712 899.589 313.715 899.641 313.731C899.669 313.739 899.699 313.741 899.728 313.737C899.757 313.733 899.785 313.723 899.81 313.708C899.836 313.693 899.858 313.673 899.875 313.649C899.892 313.625 899.904 313.598 899.91 313.569C899.917 313.54 899.917 313.511 899.912 313.482C899.906 313.453 899.895 313.425 899.878 313.401C899.862 313.377 899.84 313.356 899.815 313.34C899.791 313.324 899.763 313.314 899.734 313.309C899.62 313.28 899.5 313.277 899.385 313.301C899.269 313.325 899.161 313.375 899.067 313.448C898.982 313.514 898.909 313.595 898.851 313.688C898.814 313.121 898.879 312.532 899.236 312.39C899.987 312.089 900.478 312.892 900.5 312.926C900.511 312.955 900.529 312.98 900.552 313.002C900.574 313.023 900.601 313.039 900.63 313.049C900.66 313.059 900.691 313.062 900.722 313.059C900.752 313.056 900.782 313.046 900.809 313.03C900.836 313.015 900.859 312.994 900.876 312.968C900.894 312.943 900.906 312.914 900.912 312.884C900.918 312.854 900.917 312.822 900.91 312.792C900.902 312.762 900.889 312.734 900.87 312.71C900.627 312.312 899.941 311.648 899.074 311.996C898.005 312.429 898.525 314.572 898.587 314.808C898.6 314.861 898.632 314.908 898.677 314.938C898.723 314.969 898.778 314.981 898.832 314.973Z" fill="#F49D98"/>
<path d="M863.647 365.555C863.93 366.479 864.218 367.262 864.478 367.902C864.72 368.5 865.166 368.994 865.735 369.297C866.305 369.601 866.963 369.694 867.595 369.562L874.288 368.166C875.101 367.991 875.85 367.595 876.452 367.022L877.068 366.431L878.407 366.152L877.284 360.156L857.382 360.616C857.294 360.618 857.207 360.639 857.127 360.677C857.048 360.715 856.977 360.769 856.92 360.837C856.863 360.905 856.822 360.984 856.798 361.069C856.774 361.154 856.769 361.243 856.783 361.33C856.805 361.472 856.876 361.601 856.983 361.697C857.089 361.792 857.226 361.847 857.369 361.854L862.844 362.431C862.907 362.747 862.821 362.327 862.844 362.431C863.061 363.513 863.32 364.471 863.576 365.322C863.597 365.402 863.621 365.48 863.647 365.555Z" fill="#FFD6D2"/>
<path d="M875.773 360.188L872.043 358.263C871.416 357.939 870.7 357.829 870.005 357.951L869.224 358.09C868.538 358.212 867.909 358.553 867.433 359.063L866.196 360.387L867.451 360.361L869.092 360.327L873.144 363.928L875.773 360.188Z" fill="#FFD6D2"/>
<path d="M865.514 368.562C865.551 368.535 865.578 368.496 865.591 368.452C865.604 368.408 865.603 368.361 865.588 368.318C864.617 365.304 865.002 361.663 865.006 361.627C865.012 361.567 864.993 361.507 864.955 361.46C864.917 361.414 864.862 361.385 864.802 361.379C864.742 361.373 864.682 361.392 864.635 361.43C864.589 361.468 864.56 361.523 864.554 361.583C864.537 361.737 864.154 365.356 865.155 368.461C865.163 368.489 865.177 368.516 865.196 368.539C865.215 368.562 865.238 368.581 865.264 368.594C865.291 368.608 865.32 368.616 865.349 368.618C865.379 368.62 865.409 368.616 865.437 368.606C865.465 368.596 865.491 368.581 865.514 368.562Z" fill="#F49D98"/>
<path d="M869.093 360.326L870.596 360.296L869.874 359.545L867.219 360.367L869.093 360.326Z" fill="#F49D98"/>
<path d="M867.198 369.614C867.332 369.608 867.465 369.59 867.596 369.562L874.289 368.166C875.103 367.993 875.852 367.596 876.452 367.02L877.071 366.431L878.41 366.152L877.287 360.156C877.287 360.156 876.794 367.409 867.198 369.614Z" fill="#F49D98"/>
<path d="M920.943 358.916C920.963 359.701 920.89 360.485 920.726 361.252C920.603 361.845 920.423 362.425 920.19 362.983C919.539 364.556 918.495 365.935 917.158 366.988C915.822 368.041 914.237 368.733 912.555 368.997C905.224 370.152 893.417 370.929 879.061 367.943C878.628 367.855 878.196 367.766 877.763 367.669C877.49 367.606 877.242 367.461 877.055 367.252C876.868 367.043 876.75 366.781 876.718 366.503L876.705 366.401L875.937 359.749L877.869 359.571L906.916 356.854L903.759 349.757C903.759 349.757 902.678 335.531 910.033 329.205L910.918 329.504C912.772 330.127 914.425 331.239 915.701 332.721C916.978 334.204 917.832 336.003 918.173 337.93C918.996 342.516 920.683 350.31 920.943 358.916Z" fill="#65BAAA"/>
<path d="M920.196 362.987C919.545 364.56 918.502 365.939 917.165 366.992C915.828 368.045 914.243 368.737 912.562 369.001C905.23 370.157 893.423 370.933 879.067 367.948C878.635 367.859 878.202 367.77 877.769 367.673C877.496 367.611 877.249 367.465 877.062 367.256C876.875 367.047 876.757 366.786 876.724 366.507L876.711 366.405C910.468 370.758 918.37 365.834 920.196 362.987Z" fill="#3E9E8B"/>
<path d="M879.068 367.948C878.635 367.859 878.202 367.77 877.77 367.673C877.496 367.61 877.249 367.465 877.062 367.256C876.875 367.047 876.757 366.785 876.725 366.507L875.944 359.753L877.876 359.576L879.068 367.948Z" fill="#E8F1F9"/>
<path d="M906.922 356.859L910.734 356.636L906.321 355.507L906.922 356.859Z" fill="#3E9E8B"/>
<path d="M891.128 358.449C891.07 358.452 891.014 358.431 890.972 358.393C890.929 358.354 890.904 358.301 890.901 358.243C890.898 358.186 890.918 358.13 890.956 358.087C890.995 358.044 891.049 358.019 891.106 358.016L906.602 356.67L903.573 349.849C903.562 349.823 903.556 349.795 903.555 349.767C903.554 349.739 903.559 349.71 903.569 349.684C903.58 349.657 903.595 349.633 903.615 349.613C903.634 349.592 903.658 349.575 903.684 349.564C903.71 349.552 903.738 349.546 903.766 349.545C903.795 349.545 903.823 349.55 903.849 349.56C903.876 349.57 903.9 349.586 903.921 349.605C903.941 349.625 903.958 349.648 903.969 349.674L907.123 356.77C907.139 356.8 907.147 356.834 907.147 356.868C907.147 356.903 907.139 356.936 907.123 356.967C907.106 356.997 907.082 357.022 907.053 357.041C907.024 357.06 906.991 357.072 906.957 357.075L891.165 358.446L891.128 358.449Z" fill="#1B6D5D"/>
<path d="M852.411 367.619H882.185C882.295 367.617 882.402 367.587 882.498 367.532C882.593 367.477 882.673 367.399 882.729 367.304C882.786 367.21 882.818 367.103 882.822 366.993C882.825 366.883 882.801 366.774 882.751 366.676L873.395 349.153C873.34 349.051 873.258 348.965 873.158 348.906C873.058 348.846 872.945 348.814 872.828 348.813H843.053C842.942 348.815 842.834 348.845 842.739 348.9C842.643 348.955 842.563 349.034 842.506 349.128C842.45 349.223 842.418 349.331 842.414 349.441C842.411 349.551 842.435 349.66 842.486 349.759L851.844 367.281C851.9 367.383 851.982 367.468 852.082 367.528C852.181 367.587 852.295 367.618 852.411 367.619Z" fill="#B7CFE2"/>
<path d="M850.925 367.619H880.703C880.813 367.617 880.92 367.587 881.016 367.532C881.111 367.477 881.191 367.399 881.247 367.304C881.304 367.21 881.336 367.103 881.34 366.993C881.344 366.883 881.319 366.774 881.27 366.676L871.911 349.153C871.856 349.051 871.774 348.965 871.674 348.906C871.574 348.846 871.46 348.814 871.344 348.813H841.568C841.458 348.815 841.351 348.846 841.255 348.901C841.16 348.956 841.08 349.035 841.024 349.129C840.967 349.224 840.936 349.331 840.932 349.441C840.929 349.551 840.953 349.661 841.004 349.759L850.36 367.281C850.416 367.383 850.497 367.468 850.597 367.527C850.696 367.586 850.809 367.618 850.925 367.619Z" fill="#D7E8F7"/>
<path d="M871.972 352.988H869.778C869.698 352.989 869.619 352.966 869.551 352.924C869.482 352.882 869.427 352.822 869.391 352.75L868.242 350.453C868.209 350.387 868.193 350.314 868.196 350.24C868.199 350.166 868.221 350.094 868.26 350.031C868.299 349.968 868.353 349.916 868.418 349.88C868.483 349.844 868.555 349.826 868.629 349.826H870.827C870.908 349.826 870.987 349.848 871.055 349.891C871.123 349.933 871.179 349.994 871.214 350.066L872.363 352.363C872.396 352.43 872.412 352.503 872.408 352.577C872.404 352.651 872.382 352.723 872.342 352.785C872.303 352.848 872.248 352.9 872.184 352.935C872.119 352.971 872.046 352.989 871.972 352.988Z" fill="#95B5E8"/>
<path d="M896.961 370.598H862.62V371.532H896.961V370.598Z" fill="#95B5E8"/>
<path d="M873.642 371.533H842.41L846.231 359.55H877.462L873.642 371.533Z" fill="#95B5E8"/>
<path d="M873.642 371.533H872.928L876.751 359.55H877.463L873.642 371.533Z" fill="#6E99D6"/>
<path d="M833.086 347.998L834.462 371.511H828.63L833.086 347.998Z" fill="#B7CFE2"/>
<path d="M816.011 371.511H831.747L833.086 347.998H818.159C817.938 347.997 817.725 348.081 817.564 348.233C817.404 348.385 817.307 348.592 817.294 348.813L816.011 371.511Z" fill="#D7E8F7"/>
<path d="M785.648 381.207H940.07C940.98 381.207 941.718 380.469 941.718 379.558V373.153C941.718 372.242 940.98 371.504 940.07 371.504H785.648C784.738 371.504 784 372.242 784 373.153V379.558C784 380.469 784.738 381.207 785.648 381.207Z" fill="#B7CFE2"/>
<path d="M892.131 381.207H940.28C941.23 381.207 942 380.437 942 379.487V373.224C942 372.274 941.23 371.504 940.28 371.504H892.131C891.182 371.504 890.412 372.274 890.412 373.224V379.487C890.412 380.437 891.182 381.207 892.131 381.207Z" fill="#95B5E8"/>
<path d="M932.125 479.704H937.317V381.25H932.125V479.704Z" fill="#95B5E8"/>
<path d="M895.215 479.704H900.407V381.25H895.215V479.704Z" fill="#95B5E8"/>
<path d="M788.156 479.704H793.348V381.25H788.156V479.704Z" fill="#95B5E8"/>
<path d="M932.125 383.244H937.317V381.252H932.125V383.244Z" fill="#6E99D6"/>
<path d="M895.215 383.244H900.407V381.252H895.215V383.244Z" fill="#6E99D6"/>
<path d="M788.156 383.244H793.348V381.252H788.156V383.244Z" fill="#6E99D6"/>
<path d="M802.023 227.102H847.715C848.832 227.102 849.738 228.007 849.738 229.124V235.198C849.738 236.315 848.832 237.221 847.715 237.221H802.023C800.905 237.221 800 236.315 800 235.198V229.124C800 228.007 800.905 227.102 802.023 227.102Z" fill="#BACFDF"/>
<path d="M802.806 148H863.629C865.033 148 866.171 149.009 866.171 150.253V219.258C866.171 220.502 865.033 221.511 863.629 221.511H802.806C801.403 221.511 800.265 220.502 800.265 219.258V150.253C800.265 149.009 801.403 148 802.806 148Z" fill="#BACFDF"/>
<path d="M840.583 162.867H831.604C831.382 162.867 831.165 162.926 830.974 163.038C830.784 163.151 830.627 163.312 830.52 163.506L829.719 164.958C829.611 165.151 829.454 165.312 829.264 165.425C829.073 165.537 828.856 165.596 828.635 165.596H818.147C817.819 165.596 817.504 165.727 817.272 165.958C817.04 166.19 816.909 166.505 816.909 166.833V183.645C816.909 183.974 817.039 184.289 817.271 184.521C817.504 184.754 817.819 184.884 818.147 184.884H840.583C840.912 184.884 841.227 184.754 841.459 184.521C841.692 184.289 841.822 183.974 841.822 183.645V164.106C841.822 163.777 841.692 163.462 841.459 163.23C841.227 162.997 840.912 162.867 840.583 162.867Z" fill="#95B5E8"/>
<path d="M844.697 162.298V178.583C844.697 178.891 844.574 179.187 844.357 179.404C844.139 179.622 843.843 179.745 843.535 179.745H826.945C826.637 179.745 826.342 179.622 826.124 179.404C825.906 179.187 825.784 178.891 825.784 178.583V158.281C825.784 157.973 825.906 157.678 826.124 157.46C826.342 157.242 826.637 157.12 826.945 157.12H839.77L844.697 162.298Z" fill="#D7E8F7"/>
<path d="M839.77 157.12V161.137C839.77 161.445 839.893 161.74 840.11 161.958C840.328 162.176 840.624 162.298 840.932 162.298H844.697L839.77 157.12Z" fill="white"/>
<path d="M841.903 166.107H828.575C828.393 166.107 828.246 165.96 828.246 165.778V164.793C828.246 164.611 828.393 164.464 828.575 164.464H841.903C842.084 164.464 842.232 164.611 842.232 164.793V165.778C842.232 165.96 842.084 166.107 841.903 166.107Z" fill="#D7E8F7"/>
<path d="M841.903 169.637H828.575C828.393 169.637 828.246 169.49 828.246 169.308V168.324C828.246 168.142 828.393 167.994 828.575 167.994H841.903C842.084 167.994 842.232 168.142 842.232 168.324V169.308C842.232 169.49 842.084 169.637 841.903 169.637Z" fill="#D7E8F7"/>
<path d="M835.006 173.17H828.478C828.35 173.17 828.246 173.066 828.246 172.938V171.759C828.246 171.631 828.35 171.527 828.478 171.527H835.006C835.135 171.527 835.239 171.631 835.239 171.759V172.938C835.239 173.066 835.135 173.17 835.006 173.17Z" fill="white"/>
<path d="M836.344 169.386H812.67C812.474 169.386 812.281 169.433 812.107 169.522C811.933 169.611 811.783 169.74 811.668 169.898C811.553 170.056 811.478 170.24 811.447 170.433C811.417 170.626 811.433 170.824 811.494 171.009L815.728 184.025C815.809 184.274 815.966 184.49 816.177 184.644C816.388 184.797 816.643 184.88 816.904 184.879H840.581C840.777 184.879 840.97 184.833 841.144 184.744C841.318 184.656 841.469 184.527 841.584 184.369C841.698 184.211 841.774 184.028 841.805 183.835C841.836 183.642 841.82 183.444 841.76 183.258L837.523 170.242C837.442 169.993 837.285 169.776 837.073 169.623C836.861 169.469 836.606 169.386 836.344 169.386Z" fill="white"/>
<path d="M819.508 172.198H811.881L810.935 169.294C810.874 169.108 810.858 168.91 810.888 168.717C810.919 168.523 810.995 168.34 811.11 168.181C811.225 168.023 811.375 167.894 811.55 167.805C811.724 167.716 811.917 167.67 812.113 167.67H817.134C817.396 167.671 817.65 167.754 817.862 167.907C818.074 168.061 818.231 168.278 818.312 168.527L819.508 172.198Z" fill="white"/>
<path d="M815.787 187.466C813.107 187.466 810.935 185.294 810.935 182.615C810.935 179.935 813.107 177.763 815.787 177.763C818.466 177.763 820.638 179.935 820.638 182.615C820.638 185.294 818.466 187.466 815.787 187.466Z" fill="#6E99D6"/>
<path d="M812.841 181.634L815.261 179.215C815.331 179.147 815.413 179.093 815.503 179.057C815.673 178.991 815.863 178.991 816.033 179.057C816.123 179.093 816.206 179.147 816.275 179.215L818.695 181.634C818.823 181.772 818.893 181.954 818.89 182.142C818.886 182.33 818.81 182.51 818.677 182.643C818.544 182.776 818.365 182.852 818.177 182.855C817.988 182.858 817.806 182.789 817.669 182.66L816.476 181.467V185.506C816.476 185.699 816.399 185.883 816.263 186.019C816.127 186.155 815.943 186.232 815.75 186.232C815.557 186.232 815.373 186.155 815.237 186.019C815.101 185.883 815.024 185.699 815.024 185.506V181.477L813.831 182.67C813.695 182.806 813.511 182.883 813.318 182.883C813.175 182.883 813.034 182.84 812.915 182.76C812.796 182.681 812.703 182.567 812.648 182.435C812.593 182.302 812.579 182.156 812.607 182.016C812.635 181.875 812.704 181.746 812.805 181.644L812.841 181.634Z" fill="white"/>
<path d="M829.175 193.334H848.7C849.273 193.334 849.738 193.799 849.738 194.372V197.489C849.738 198.062 849.273 198.527 848.7 198.527H829.175C828.601 198.527 828.137 198.062 828.137 197.489V194.372C828.137 193.799 828.601 193.334 829.175 193.334Z" fill="#D7E8F7"/>
<path d="M807.574 201.266H848.7C849.273 201.266 849.738 201.731 849.738 202.304V205.421C849.738 205.994 849.273 206.459 848.7 206.459H807.574C807 206.459 806.536 205.994 806.536 205.421V202.304C806.536 201.731 807 201.266 807.574 201.266Z" fill="#95B5E8"/>
<path d="M807.574 209.2H848.7C849.273 209.2 849.738 209.665 849.738 210.238V213.355C849.738 213.928 849.273 214.393 848.7 214.393H807.574C807 214.393 806.536 213.928 806.536 213.355V210.238C806.536 209.665 807 209.2 807.574 209.2Z" fill="#95B5E8"/>
<path d="M850.751 172.541C850.191 172.541 849.737 172.087 849.737 171.527C849.737 170.967 850.191 170.513 850.751 170.513C851.311 170.513 851.765 170.967 851.765 171.527C851.765 172.087 851.311 172.541 850.751 172.541Z" fill="white"/>
<path d="M843.802 233.175C843.242 233.175 842.788 232.721 842.788 232.161C842.788 231.601 843.242 231.147 843.802 231.147C844.362 231.147 844.816 231.601 844.816 232.161C844.816 232.721 844.362 233.175 843.802 233.175Z" fill="white"/>
<path d="M802.023 242.508H847.715C848.832 242.508 849.738 243.414 849.738 244.531V250.605C849.738 251.722 848.832 252.628 847.715 252.628H802.023C800.905 252.628 800 251.722 800 250.605V244.531C800 243.414 800.905 242.508 802.023 242.508Z" fill="#BACFDF"/>
<path d="M843.802 248.582C843.242 248.582 842.788 248.128 842.788 247.568C842.788 247.008 843.242 246.554 843.802 246.554C844.362 246.554 844.816 247.008 844.816 247.568C844.816 248.128 844.362 248.582 843.802 248.582Z" fill="white"/>
<path d="M802.023 257.915H847.715C848.832 257.915 849.738 258.82 849.738 259.938V266.011C849.738 267.129 848.832 268.034 847.715 268.034H802.023C800.905 268.034 800 267.129 800 266.011V259.938C800 258.82 800.905 257.915 802.023 257.915Z" fill="#BACFDF"/>
<path d="M843.802 263.988C843.242 263.988 842.788 263.535 842.788 262.975C842.788 262.415 843.242 261.961 843.802 261.961C844.362 261.961 844.816 262.415 844.816 262.975C844.816 263.535 844.362 263.988 843.802 263.988Z" fill="white"/>
<path d="M853.718 171.527H857.694C858.977 171.527 860.208 172.037 861.116 172.945C862.023 173.852 862.533 175.083 862.533 176.367V227.322C862.533 228.605 862.023 229.836 861.116 230.744C860.208 231.652 858.977 232.161 857.694 232.161H846.355" stroke="#95B5E8" stroke-width="2" stroke-linecap="round" stroke-linejoin="round"/>
<path d="M862.533 227.322V242.728C862.533 244.012 862.023 245.243 861.116 246.15C860.208 247.058 858.977 247.568 857.694 247.568H846.355" stroke="#95B5E8" stroke-width="2" stroke-linecap="round" stroke-linejoin="round"/>
<path d="M846.355 262.975H857.694C858.977 262.975 860.208 262.465 861.116 261.557C862.023 260.65 862.533 259.419 862.533 258.135V239.346" stroke="#95B5E8" stroke-width="2" stroke-linecap="round" stroke-linejoin="round"/>
<path d="M1 272.9C7.61458 278.874 24.9889 285.926 32.75 262.942C38.7031 245.312 16.875 252.983 24.8125 262.942C32.75 272.9 44.5938 286.841 56.5 272.9C68.4062 258.959 69 249 80.375 249C91.6079 249 80.375 272.9 88.3125 272.9C96.25 272.9 100.578 261.986 110.5 259.995C120.422 258.003 126.016 262.942 128 262.942" stroke="#6E99D6" stroke-width="0.75"/>
<path d="M160 422.243C165.26 427.053 179.078 432.731 185.25 414.225C189.984 400.03 172.625 406.207 178.937 414.225C185.25 422.243 194.669 433.467 204.138 422.243C213.607 411.018 214.079 403 223.125 403C232.058 403 223.125 422.243 229.437 422.243C235.75 422.243 239.192 413.456 247.083 411.852C254.973 410.249 259.422 414.225 261 414.225" stroke="#6E99D6" stroke-width="0.75"/>
<path d="M1107 250.243C1101.74 255.053 1087.92 260.731 1081.75 242.225C1077.02 228.03 1094.38 234.207 1088.06 242.225C1081.75 250.243 1072.33 261.467 1062.86 250.243C1053.39 239.018 1052.92 231 1043.88 231C1034.94 231 1043.88 250.243 1037.56 250.243C1031.25 250.243 1027.81 241.456 1019.92 239.852C1012.03 238.249 1007.58 242.225 1006 242.225" stroke="#6E99D6" stroke-width="0.75"/>
</svg>
