<svg width="221" height="481" viewBox="0 0 221 481" fill="none" xmlns="http://www.w3.org/2000/svg">
<line x1="993" y1="480.458" x2="61" y2="480.458" stroke="#95B5E8" stroke-width="0.5"/>
<path d="M831 139.5C808.5 94.5 749.5 89 708.5 120.5C647.311 167.51 564.86 54.6393 443.419 127.636C340.5 189.5 169.038 51.6513 177.5 113C183.5 156.5 364.965 72.2368 280 19.5C222 -16.5 127.5 -0.500061 86.4997 84C66.5 153 98.9998 181 117 189.5" stroke="#6E99D6" stroke-dasharray="2 2"/>
<path d="M113.146 168H164.489C165.674 168 166.635 168.961 166.635 170.146V235.854C166.635 237.039 165.674 238 164.489 238H113.146C111.961 238 111 237.039 111 235.854V170.146C111 168.961 111.961 168 113.146 168Z" fill="#BACFDF"/>
<path d="M151.121 179.827H142.234C142.016 179.827 141.801 179.885 141.612 179.996C141.424 180.108 141.269 180.267 141.163 180.458L140.371 181.894C140.265 182.085 140.109 182.244 139.921 182.355C139.733 182.466 139.518 182.525 139.299 182.525H128.929C128.604 182.525 128.293 182.654 128.063 182.884C127.833 183.114 127.704 183.425 127.704 183.75V200.369C127.704 200.529 127.736 200.689 127.798 200.837C127.859 200.986 127.949 201.121 128.063 201.235C128.177 201.348 128.312 201.439 128.46 201.5C128.609 201.562 128.768 201.593 128.929 201.593H151.121C151.282 201.593 151.442 201.562 151.59 201.5C151.739 201.439 151.874 201.348 151.987 201.235C152.101 201.121 152.191 200.986 152.253 200.837C152.315 200.689 152.346 200.529 152.346 200.369V181.052C152.346 180.727 152.217 180.415 151.987 180.186C151.758 179.956 151.446 179.827 151.121 179.827V179.827Z" fill="#95B5E8"/>
<path d="M155.188 179.265V195.364C155.188 195.515 155.158 195.664 155.101 195.804C155.043 195.943 154.958 196.069 154.852 196.176C154.745 196.283 154.618 196.367 154.479 196.425C154.34 196.483 154.191 196.512 154.04 196.512H137.639C137.488 196.512 137.339 196.483 137.2 196.425C137.06 196.367 136.934 196.283 136.827 196.176C136.72 196.069 136.636 195.943 136.578 195.804C136.52 195.664 136.491 195.515 136.491 195.364V175.294C136.491 175.143 136.52 174.994 136.578 174.854C136.636 174.715 136.72 174.588 136.827 174.482C136.934 174.375 137.06 174.291 137.2 174.233C137.339 174.175 137.488 174.146 137.639 174.146H150.318L155.188 179.265Z" fill="#D7E8F7"/>
<path d="M150.318 174.146V178.117C150.318 178.421 150.438 178.713 150.654 178.928C150.869 179.144 151.161 179.265 151.466 179.265H155.188L150.318 174.146Z" fill="white"/>
<path d="M152.425 183.03H139.249C139.069 183.03 138.924 182.884 138.924 182.705V181.731C138.924 181.551 139.069 181.406 139.249 181.406H152.425C152.605 181.406 152.751 181.551 152.751 181.731V182.705C152.751 182.884 152.605 183.03 152.425 183.03Z" fill="#D7E8F7"/>
<path d="M152.425 186.521H139.249C139.069 186.521 138.924 186.375 138.924 186.195V185.222C138.924 185.042 139.069 184.896 139.249 184.896H152.425C152.605 184.896 152.751 185.042 152.751 185.222V186.195C152.751 186.375 152.605 186.521 152.425 186.521Z" fill="#D7E8F7"/>
<path d="M145.608 190.013H139.153C139.027 190.013 138.924 189.91 138.924 189.783V188.618C138.924 188.491 139.027 188.389 139.153 188.389H145.608C145.734 188.389 145.837 188.491 145.837 188.618V189.783C145.837 189.91 145.734 190.013 145.608 190.013Z" fill="white"/>
<path d="M146.93 186.271H123.525C123.332 186.272 123.141 186.318 122.969 186.406C122.797 186.494 122.648 186.621 122.535 186.778C122.421 186.934 122.347 187.116 122.317 187.307C122.287 187.498 122.303 187.693 122.363 187.877L126.551 200.744C126.631 200.99 126.786 201.204 126.995 201.356C127.204 201.507 127.456 201.589 127.714 201.589H151.119C151.312 201.589 151.503 201.543 151.675 201.455C151.847 201.367 151.996 201.24 152.11 201.084C152.223 200.928 152.298 200.747 152.329 200.556C152.359 200.365 152.344 200.17 152.284 199.986L148.095 187.118C148.015 186.872 147.86 186.658 147.65 186.506C147.441 186.353 147.189 186.271 146.93 186.271Z" fill="white"/>
<path d="M130.274 189.056H122.734L121.798 186.185C121.738 186.002 121.723 185.806 121.753 185.615C121.783 185.424 121.858 185.242 121.971 185.086C122.085 184.929 122.234 184.802 122.407 184.714C122.579 184.626 122.77 184.58 122.963 184.58H127.939C128.198 184.581 128.45 184.663 128.659 184.815C128.868 184.967 129.024 185.181 129.104 185.427L130.274 189.056Z" fill="white"/>
<path d="M126.606 204.146C123.957 204.146 121.81 201.998 121.81 199.35C121.81 196.701 123.957 194.553 126.606 194.553C129.255 194.553 131.402 196.701 131.402 199.35C131.402 201.998 129.255 204.146 126.606 204.146Z" fill="#6E99D6"/>
<path d="M129.518 200.311L127.113 202.703C127.045 202.771 126.963 202.825 126.874 202.861V202.861C126.706 202.927 126.519 202.927 126.35 202.861H126.338C126.249 202.825 126.168 202.771 126.099 202.703L123.695 200.311C123.56 200.177 123.484 199.994 123.484 199.804C123.484 199.613 123.559 199.431 123.694 199.296C123.828 199.161 124.011 199.085 124.201 199.085C124.392 199.085 124.575 199.16 124.709 199.295L125.889 200.474V196.493C125.889 196.303 125.964 196.12 126.099 195.986C126.233 195.851 126.416 195.776 126.606 195.776C126.797 195.776 126.979 195.851 127.114 195.986C127.248 196.12 127.324 196.303 127.324 196.493V200.474L128.503 199.295C128.638 199.16 128.821 199.085 129.011 199.085C129.202 199.085 129.384 199.161 129.519 199.296C129.653 199.431 129.729 199.613 129.729 199.804C129.728 199.994 129.652 200.177 129.518 200.311V200.311Z" fill="white"/>
<path d="M139.842 209.947H159.144C159.711 209.947 160.17 210.406 160.17 210.973V214.054C160.17 214.621 159.711 215.081 159.144 215.081H139.842C139.275 215.081 138.815 214.621 138.815 214.054V210.973C138.815 210.406 139.275 209.947 139.842 209.947Z" fill="#D7E8F7"/>
<path d="M118.487 217.789H159.144C159.711 217.789 160.17 218.248 160.17 218.815V221.896C160.17 222.463 159.711 222.922 159.144 222.922H118.487C117.92 222.922 117.46 222.463 117.46 221.896V218.815C117.46 218.248 117.92 217.789 118.487 217.789Z" fill="#95B5E8"/>
<path d="M118.487 225.633H159.144C159.711 225.633 160.17 226.092 160.17 226.659V229.74C160.17 230.307 159.711 230.766 159.144 230.766H118.487C117.92 230.766 117.46 230.307 117.46 229.74V226.659C117.46 226.092 117.92 225.633 118.487 225.633Z" fill="#95B5E8"/>
<path d="M1 272.9C7.61458 278.874 24.9889 285.926 32.75 262.942C38.7031 245.312 16.875 252.983 24.8125 262.942C32.75 272.9 44.5938 286.841 56.5 272.9C68.4062 258.959 69 249 80.375 249C91.6079 249 80.375 272.9 88.3125 272.9C96.25 272.9 100.578 261.986 110.5 259.995C120.422 258.003 126.016 262.942 128 262.942" stroke="#6E99D6" stroke-width="0.75"/>
<path d="M160 422.243C165.26 427.053 179.078 432.731 185.25 414.225C189.984 400.03 172.625 406.207 178.937 414.225C185.25 422.243 194.669 433.467 204.138 422.243C213.607 411.018 214.079 403 223.125 403C232.058 403 223.125 422.243 229.437 422.243C235.75 422.243 239.192 413.456 247.083 411.852C254.973 410.249 259.422 414.225 261 414.225" stroke="#6E99D6" stroke-width="0.75"/>
</svg>
