<svg width="120" height="33" viewBox="0 0 120 33" fill="none" xmlns="http://www.w3.org/2000/svg">
<path d="M0.902344 17V4.63636H9.59553V7.34091H4.25888V9.46591H9.06428V12.1705H4.25888V17H0.902344ZM22.8074 10.8182C22.8074 12.1946 22.5397 13.3557 22.0044 14.3015C21.4692 15.2433 20.7467 15.9576 19.8372 16.4446C18.9276 16.9276 17.9134 17.169 16.7946 17.169C15.6677 17.169 14.6494 16.9255 13.7399 16.4386C12.8343 15.9476 12.1139 15.2312 11.5787 14.2894C11.0474 13.3436 10.7818 12.1866 10.7818 10.8182C10.7818 9.44176 11.0474 8.28267 11.5787 7.34091C12.1139 6.39512 12.8343 5.68075 13.7399 5.1978C14.6494 4.71082 15.6677 4.46733 16.7946 4.46733C17.9134 4.46733 18.9276 4.71082 19.8372 5.1978C20.7467 5.68075 21.4692 6.39512 22.0044 7.34091C22.5397 8.28267 22.8074 9.44176 22.8074 10.8182ZM19.3542 10.8182C19.3542 10.0777 19.2556 9.45384 19.0584 8.94673C18.8652 8.43561 18.5775 8.04924 18.1951 7.78764C17.8168 7.52202 17.35 7.3892 16.7946 7.3892C16.2392 7.3892 15.7703 7.52202 15.388 7.78764C15.0096 8.04924 14.7219 8.43561 14.5247 8.94673C14.3315 9.45384 14.2349 10.0777 14.2349 10.8182C14.2349 11.5587 14.3315 12.1845 14.5247 12.6957C14.7219 13.2028 15.0096 13.5891 15.388 13.8548C15.7703 14.1164 16.2392 14.2472 16.7946 14.2472C17.35 14.2472 17.8168 14.1164 18.1951 13.8548C18.5775 13.5891 18.8652 13.2028 19.0584 12.6957C19.2556 12.1845 19.3542 11.5587 19.3542 10.8182ZM31.6771 4.63636H35.0336V12.5568C35.0336 13.4986 34.8083 14.3136 34.3575 15.0018C33.9108 15.686 33.287 16.2152 32.4861 16.5895C31.6852 16.9598 30.7555 17.1449 29.697 17.1449C28.6305 17.1449 27.6968 16.9598 26.8959 16.5895C26.095 16.2152 25.4711 15.686 25.0244 15.0018C24.5817 14.3136 24.3604 13.4986 24.3604 12.5568V4.63636H27.7169V12.267C27.7169 12.6494 27.8014 12.9915 27.9704 13.2933C28.1395 13.5911 28.3729 13.8246 28.6707 13.9936C28.9726 14.1626 29.3147 14.2472 29.697 14.2472C30.0834 14.2472 30.4255 14.1626 30.7233 13.9936C31.0211 13.8246 31.2545 13.5911 31.4236 13.2933C31.5926 12.9915 31.6771 12.6494 31.6771 12.267V4.63636ZM36.6289 17V4.63636H41.9656C42.8832 4.63636 43.6861 4.80339 44.3743 5.13743C45.0625 5.47147 45.5978 5.95241 45.9801 6.58026C46.3625 7.2081 46.5536 7.9607 46.5536 8.83807C46.5536 9.72348 46.3564 10.4701 45.962 11.0778C45.5716 11.6855 45.0223 12.1443 44.3139 12.4542C43.6096 12.7641 42.7866 12.919 41.8448 12.919H38.6573V10.3111H41.1687C41.5631 10.3111 41.8991 10.2628 42.1768 10.1662C42.4586 10.0656 42.6739 9.9066 42.8228 9.68928C42.9757 9.47195 43.0522 9.18821 43.0522 8.83807C43.0522 8.4839 42.9757 8.19614 42.8228 7.97479C42.6739 7.74941 42.4586 7.5844 42.1768 7.47976C41.8991 7.37109 41.5631 7.31676 41.1687 7.31676H39.9854V17H36.6289ZM43.8732 11.3253L46.9641 17H43.3178L40.2994 11.3253H43.8732Z" fill="white"/>
<path d="M61.6939 8.5H60.559C60.4745 8.07741 60.3215 7.68703 60.1002 7.32883C59.8829 6.96662 59.6092 6.65069 59.2792 6.38104C58.9491 6.11139 58.5749 5.90211 58.1563 5.7532C57.7377 5.60428 57.285 5.52983 56.798 5.52983C56.0172 5.52983 55.3049 5.73307 54.6609 6.13956C54.021 6.54605 53.5079 7.1437 53.1215 7.93253C52.7392 8.71733 52.548 9.67921 52.548 10.8182C52.548 11.9652 52.7392 12.9311 53.1215 13.7159C53.5079 14.5007 54.021 15.0964 54.6609 15.5028C55.3049 15.9053 56.0172 16.1065 56.798 16.1065C57.285 16.1065 57.7377 16.0321 58.1563 15.8832C58.5749 15.7343 58.9491 15.527 59.2792 15.2614C59.6092 14.9917 59.8829 14.6758 60.1002 14.3136C60.3215 13.9513 60.4745 13.5589 60.559 13.1364H61.6939C61.5933 13.7038 61.4042 14.2331 61.1265 14.7241C60.8528 15.2111 60.5026 15.6377 60.076 16.0039C59.6535 16.3701 59.1665 16.6559 58.6151 16.8612C58.0637 17.0664 57.458 17.169 56.798 17.169C55.7596 17.169 54.838 16.9094 54.0331 16.3903C53.2281 15.8671 52.5963 15.1306 52.1375 14.1808C51.6827 13.2309 51.4553 12.1101 51.4553 10.8182C51.4553 9.52628 51.6827 8.40542 52.1375 7.45561C52.5963 6.5058 53.2281 5.77131 54.0331 5.25213C54.838 4.72893 55.7596 4.46733 56.798 4.46733C57.458 4.46733 58.0637 4.56996 58.6151 4.77521C59.1665 4.97644 59.6535 5.26219 60.076 5.63246C60.5026 5.9987 60.8528 6.42531 61.1265 6.91229C61.4042 7.39927 61.5933 7.9285 61.6939 8.5ZM74.4817 10.8182C74.4817 12.1061 74.2523 13.2269 73.7935 14.1808C73.3347 15.1306 72.7028 15.8671 71.8979 16.3903C71.097 16.9094 70.1753 17.169 69.1329 17.169C68.0906 17.169 67.1669 16.9094 66.362 16.3903C65.5611 15.8671 64.9312 15.1306 64.4724 14.1808C64.0177 13.2269 63.7903 12.1061 63.7903 10.8182C63.7903 9.5303 64.0177 8.41146 64.4724 7.46165C64.9312 6.50781 65.5631 5.77131 66.368 5.25213C67.173 4.72893 68.0946 4.46733 69.1329 4.46733C70.1753 4.46733 71.097 4.72893 71.8979 5.25213C72.7028 5.77131 73.3347 6.50781 73.7935 7.46165C74.2523 8.41146 74.4817 9.5303 74.4817 10.8182ZM73.3829 10.8182C73.3829 9.71141 73.1978 8.76361 72.8275 7.97479C72.4573 7.18194 71.9522 6.57623 71.3123 6.15767C70.6724 5.73911 69.9459 5.52983 69.1329 5.52983C68.324 5.52983 67.5996 5.73911 66.9597 6.15767C66.3197 6.57623 65.8126 7.17992 65.4383 7.96875C65.0681 8.75758 64.8829 9.70739 64.8829 10.8182C64.8829 11.925 65.0681 12.8728 65.4383 13.6616C65.8086 14.4504 66.3137 15.0561 66.9536 15.4787C67.5935 15.8973 68.32 16.1065 69.1329 16.1065C69.9459 16.1065 70.6724 15.8973 71.3123 15.4787C71.9562 15.0601 72.4633 14.4564 72.8336 13.6676C73.2038 12.8748 73.387 11.925 73.3829 10.8182ZM77.2119 17V4.63636H78.3408V15.9858H84.2328V17H77.2119ZM96.4289 10.8182C96.4289 12.1061 96.1995 13.2269 95.7407 14.1808C95.2819 15.1306 94.6501 15.8671 93.8451 16.3903C93.0442 16.9094 92.1226 17.169 91.0802 17.169C90.0378 17.169 89.1142 16.9094 88.3093 16.3903C87.5084 15.8671 86.8785 15.1306 86.4197 14.1808C85.9649 13.2269 85.7375 12.1061 85.7375 10.8182C85.7375 9.5303 85.9649 8.41146 86.4197 7.46165C86.8785 6.50781 87.5104 5.77131 88.3153 5.25213C89.1202 4.72893 90.0419 4.46733 91.0802 4.46733C92.1226 4.46733 93.0442 4.72893 93.8451 5.25213C94.6501 5.77131 95.2819 6.50781 95.7407 7.46165C96.1995 8.41146 96.4289 9.5303 96.4289 10.8182ZM95.3302 10.8182C95.3302 9.71141 95.1451 8.76361 94.7748 7.97479C94.4045 7.18194 93.8995 6.57623 93.2595 6.15767C92.6196 5.73911 91.8932 5.52983 91.0802 5.52983C90.2713 5.52983 89.5468 5.73911 88.9069 6.15767C88.267 6.57623 87.7599 7.17992 87.3856 7.96875C87.0153 8.75758 86.8302 9.70739 86.8302 10.8182C86.8302 11.925 87.0153 12.8728 87.3856 13.6616C87.7559 14.4504 88.261 15.0561 88.9009 15.4787C89.5408 15.8973 90.2672 16.1065 91.0802 16.1065C91.8932 16.1065 92.6196 15.8973 93.2595 15.4787C93.9035 15.0601 94.4106 14.4564 94.7809 13.6676C95.1511 12.8748 95.3342 11.925 95.3302 10.8182ZM99.1591 17V4.63636H103.15C104.027 4.63636 104.759 4.79534 105.347 5.11328C105.939 5.4272 106.383 5.86387 106.681 6.42329C106.983 6.97869 107.134 7.6166 107.134 8.337C107.134 9.05741 106.983 9.6933 106.681 10.2447C106.383 10.796 105.941 11.2267 105.353 11.5366C104.765 11.8465 104.037 12.0014 103.168 12.0014H99.7689V10.9691H103.137C103.781 10.9691 104.317 10.8625 104.743 10.6491C105.174 10.4358 105.494 10.132 105.703 9.73757C105.916 9.34316 106.023 8.8763 106.023 8.337C106.023 7.7977 105.916 7.32682 105.703 6.92436C105.49 6.51787 105.168 6.20395 104.737 5.9826C104.311 5.76124 103.771 5.65057 103.119 5.65057H100.288V17H99.1591ZM104.61 11.4219L107.653 17H106.349L103.337 11.4219H104.61ZM116.597 7.72727C116.528 7.03906 116.225 6.49171 115.685 6.08523C115.146 5.67874 114.468 5.4755 113.651 5.4755C113.075 5.4755 112.568 5.5741 112.129 5.77131C111.695 5.96851 111.353 6.24219 111.103 6.59233C110.858 6.93845 110.735 7.33286 110.735 7.77557C110.735 8.10156 110.805 8.38731 110.946 8.63281C111.087 8.87831 111.276 9.08961 111.514 9.26669C111.755 9.43975 112.021 9.58866 112.311 9.71342C112.604 9.83819 112.9 9.94283 113.198 10.0273L114.502 10.4016C114.896 10.5103 115.291 10.6491 115.685 10.8182C116.08 10.9872 116.44 11.2005 116.766 11.4581C117.096 11.7116 117.359 12.0236 117.557 12.3938C117.758 12.7601 117.859 13.2008 117.859 13.7159C117.859 14.3759 117.687 14.9696 117.345 15.4968C117.003 16.024 116.512 16.4426 115.872 16.7525C115.232 17.0584 114.466 17.2113 113.572 17.2113C112.731 17.2113 112.001 17.0724 111.381 16.7947C110.761 16.513 110.274 16.1246 109.92 15.6296C109.566 15.1346 109.367 14.5611 109.322 13.9091H110.481C110.522 14.3961 110.683 14.8086 110.964 15.1467C111.246 15.4847 111.612 15.7423 112.063 15.9194C112.514 16.0924 113.017 16.179 113.572 16.179C114.188 16.179 114.735 16.0763 115.214 15.8711C115.697 15.6618 116.076 15.372 116.349 15.0018C116.627 14.6275 116.766 14.1928 116.766 13.6978C116.766 13.2792 116.657 12.9291 116.44 12.6474C116.223 12.3616 115.919 12.1222 115.528 11.929C115.142 11.7358 114.693 11.5647 114.182 11.4158L112.703 10.9812C111.733 10.6914 110.98 10.291 110.445 9.77983C109.91 9.2687 109.642 8.61671 109.642 7.82386C109.642 7.1598 109.819 6.57623 110.174 6.07315C110.532 5.56605 111.015 5.17164 111.622 4.88991C112.234 4.60417 112.92 4.46129 113.681 4.46129C114.45 4.46129 115.13 4.60215 115.721 4.88388C116.313 5.1656 116.782 5.55398 117.128 6.049C117.478 6.54001 117.665 7.09943 117.689 7.72727H116.597Z" fill="white"/>
<path d="M0.425071 25.5955V24.4545H5.80078V25.5955H3.79688V31H2.42898V25.5955H0.425071ZM12.8061 31V24.4545H17.2166V25.5955H14.19V27.1552H16.9897V28.2962H14.19V29.859H17.2294V31H12.8061ZM30.212 26.7461H28.8122C28.7866 26.565 28.7344 26.4041 28.6556 26.2635C28.5767 26.1207 28.4755 25.9993 28.3519 25.8991C28.2284 25.799 28.0856 25.7223 27.9237 25.669C27.7639 25.6158 27.5902 25.5891 27.4027 25.5891C27.064 25.5891 26.7689 25.6733 26.5174 25.8416C26.266 26.0078 26.0711 26.2507 25.9326 26.5703C25.7941 26.8878 25.7248 27.2734 25.7248 27.7273C25.7248 28.1939 25.7941 28.5859 25.9326 28.9034C26.0732 29.2209 26.2692 29.4606 26.5206 29.6225C26.772 29.7844 27.0629 29.8654 27.3931 29.8654C27.5785 29.8654 27.75 29.8409 27.9077 29.7919C28.0675 29.7429 28.2092 29.6715 28.3328 29.5778C28.4564 29.4819 28.5586 29.3658 28.6396 29.2294C28.7227 29.093 28.7802 28.9375 28.8122 28.7628L30.212 28.7692C30.1758 29.0696 30.0853 29.3594 29.9404 29.6385C29.7976 29.9155 29.6048 30.1637 29.3619 30.3832C29.1211 30.6005 28.8335 30.7731 28.499 30.9009C28.1666 31.0266 27.7905 31.0895 27.3708 31.0895C26.787 31.0895 26.2649 30.9574 25.8047 30.6932C25.3466 30.429 24.9844 30.0465 24.7181 29.5458C24.4539 29.0451 24.3218 28.4389 24.3218 27.7273C24.3218 27.0135 24.456 26.4062 24.7245 25.9055C24.9929 25.4048 25.3573 25.0234 25.8175 24.7614C26.2777 24.4972 26.7955 24.3651 27.3708 24.3651C27.75 24.3651 28.1016 24.4183 28.4255 24.5249C28.7515 24.6314 29.0402 24.7869 29.2916 24.9915C29.543 25.1939 29.7475 25.4421 29.9052 25.7362C30.065 26.0302 30.1673 26.3668 30.212 26.7461ZM37.3244 31V24.4545H38.7083V27.1552H41.5176V24.4545H42.8983V31H41.5176V28.2962H38.7083V31H37.3244ZM55.634 24.4545V31H54.4387L51.5911 26.8803H51.5431V31H50.1592V24.4545H51.3737L54.199 28.571H54.2565V24.4545H55.634ZM68.9123 27.7273C68.9123 28.4411 68.777 29.0483 68.5064 29.549C68.238 30.0497 67.8715 30.4322 67.407 30.6964C66.9446 30.9585 66.4248 31.0895 65.8473 31.0895C65.2657 31.0895 64.7436 30.9574 64.2813 30.6932C63.8189 30.429 63.4535 30.0465 63.185 29.5458C62.9166 29.0451 62.7823 28.4389 62.7823 27.7273C62.7823 27.0135 62.9166 26.4062 63.185 25.9055C63.4535 25.4048 63.8189 25.0234 64.2813 24.7614C64.7436 24.4972 65.2657 24.3651 65.8473 24.3651C66.4248 24.3651 66.9446 24.4972 67.407 24.7614C67.8715 25.0234 68.238 25.4048 68.5064 25.9055C68.777 26.4062 68.9123 27.0135 68.9123 27.7273ZM67.5093 27.7273C67.5093 27.2649 67.44 26.875 67.3015 26.5575C67.1652 26.2401 66.9723 25.9993 66.723 25.8352C66.4738 25.6712 66.1819 25.5891 65.8473 25.5891C65.5128 25.5891 65.2209 25.6712 64.9716 25.8352C64.7223 25.9993 64.5284 26.2401 64.3899 26.5575C64.2536 26.875 64.1854 27.2649 64.1854 27.7273C64.1854 28.1896 64.2536 28.5795 64.3899 28.897C64.5284 29.2145 64.7223 29.4553 64.9716 29.6193C65.2209 29.7834 65.5128 29.8654 65.8473 29.8654C66.1819 29.8654 66.4738 29.7834 66.723 29.6193C66.9723 29.4553 67.1652 29.2145 67.3015 28.897C67.44 28.5795 67.5093 28.1896 67.5093 27.7273ZM76.0574 31V24.4545H77.4413V29.859H80.2474V31H76.0574ZM93.0439 27.7273C93.0439 28.4411 92.9086 29.0483 92.638 29.549C92.3696 30.0497 92.0031 30.4322 91.5386 30.6964C91.0762 30.9585 90.5563 31.0895 89.9789 31.0895C89.3973 31.0895 88.8752 30.9574 88.4129 30.6932C87.9505 30.429 87.5851 30.0465 87.3166 29.5458C87.0482 29.0451 86.9139 28.4389 86.9139 27.7273C86.9139 27.0135 87.0482 26.4062 87.3166 25.9055C87.5851 25.4048 87.9505 25.0234 88.4129 24.7614C88.8752 24.4972 89.3973 24.3651 89.9789 24.3651C90.5563 24.3651 91.0762 24.4972 91.5386 24.7614C92.0031 25.0234 92.3696 25.4048 92.638 25.9055C92.9086 26.4062 93.0439 27.0135 93.0439 27.7273ZM91.6409 27.7273C91.6409 27.2649 91.5716 26.875 91.4331 26.5575C91.2968 26.2401 91.1039 25.9993 90.8546 25.8352C90.6054 25.6712 90.3135 25.5891 89.9789 25.5891C89.6444 25.5891 89.3525 25.6712 89.1032 25.8352C88.8539 25.9993 88.66 26.2401 88.5215 26.5575C88.3852 26.875 88.317 27.2649 88.317 27.7273C88.317 28.1896 88.3852 28.5795 88.5215 28.897C88.66 29.2145 88.8539 29.4553 89.1032 29.6193C89.3525 29.7834 89.6444 29.8654 89.9789 29.8654C90.3135 29.8654 90.6054 29.7834 90.8546 29.6193C91.1039 29.4553 91.2968 29.2145 91.4331 28.897C91.5716 28.5795 91.6409 28.1896 91.6409 27.7273ZM104.529 26.5703C104.485 26.4148 104.422 26.2773 104.341 26.158C104.26 26.0366 104.161 25.9343 104.043 25.8512C103.928 25.766 103.796 25.701 103.647 25.6562C103.5 25.6115 103.337 25.5891 103.158 25.5891C102.824 25.5891 102.53 25.6722 102.276 25.8384C102.025 26.0046 101.829 26.2464 101.688 26.5639C101.547 26.8793 101.477 27.2649 101.477 27.7209C101.477 28.1768 101.546 28.5646 101.685 28.8842C101.823 29.2038 102.019 29.4478 102.273 29.6161C102.526 29.7823 102.826 29.8654 103.171 29.8654C103.484 29.8654 103.752 29.81 103.973 29.6992C104.197 29.5863 104.367 29.4276 104.485 29.223C104.604 29.0185 104.663 28.7766 104.663 28.4975L104.945 28.5391H103.257V27.4972H105.996V28.3217C105.996 28.897 105.875 29.3913 105.632 29.8047C105.389 30.2159 105.054 30.5334 104.628 30.7571C104.202 30.9787 103.714 31.0895 103.165 31.0895C102.551 31.0895 102.012 30.9542 101.547 30.6836C101.083 30.4109 100.721 30.0241 100.461 29.5234C100.203 29.0206 100.074 28.424 100.074 27.7337C100.074 27.2031 100.151 26.7301 100.304 26.3146C100.46 25.897 100.677 25.5433 100.956 25.2536C101.235 24.9638 101.56 24.7433 101.931 24.592C102.302 24.4407 102.703 24.3651 103.136 24.3651C103.507 24.3651 103.852 24.4194 104.171 24.5281C104.491 24.6346 104.774 24.7859 105.021 24.9819C105.271 25.1779 105.474 25.4112 105.632 25.6818C105.79 25.9503 105.891 26.2464 105.935 26.5703H104.529ZM112.509 24.4545H114.059L115.551 27.2734H115.615L117.108 24.4545H118.658L116.27 28.6861V31H114.896V28.6861L112.509 24.4545Z" fill="white"/>
</svg>
