<svg width="139" height="39" viewBox="0 0 139 39" fill="none" xmlns="http://www.w3.org/2000/svg">
<path d="M16.4248 14.9204L25.039 -7.53403e-05L33.6536 14.9204H16.4248Z" fill="#FFD540"/>
<path d="M25.0393 5.43594e-05L20.2485 8.29761L15.458 5.43594e-05H25.0393Z" fill="#F04E37"/>
<path d="M0 8.34563L8.61455 23.2661L17.2288 8.34563H0Z" fill="#00B4D6"/>
<path d="M8.61475 23.2661L13.4056 14.9686L18.1961 23.2661H8.61475Z" fill="#8CC63F"/>
<path d="M28.3646 21.364V23.2757H33.016V26.1112H28.3646V29.6797H24.605V18.5285H33.6685V21.364H28.3646Z" fill="#00B4D6"/>
<path d="M49.6306 28.549C48.6746 27.6252 48.1968 26.329 48.1968 24.6618V18.5288H59.0615V24.6618C59.0615 26.329 58.5837 27.6252 57.6276 28.549C56.672 29.4728 55.3392 29.9348 53.6286 29.9348C51.9191 29.9348 50.5866 29.4728 49.6306 28.549Z" fill="#FFD540"/>
<path d="M65.5606 26.8764H64.5418V29.6799H60.7822V18.5288H66.1499C67.1802 18.5288 68.0774 18.699 68.8424 19.0385C69.6073 19.3787 70.1966 19.8669 70.6107 20.5039C71.0244 21.1413 71.2319 21.8847 71.2319 22.7343C71.2319 23.5308 71.0516 24.2262 70.6899 24.8209C70.3289 25.416 69.8085 25.8884 69.1291 26.239L71.4707 29.6799H67.4569L65.5606 26.8764Z" fill="#F04E37"/>
<path d="M75.7367 29.0435C74.8485 28.5546 74.1524 27.8763 73.6477 27.0093C73.142 26.1426 72.8892 25.1725 72.8892 24.0982C72.8892 23.0237 73.142 22.0536 73.6477 21.1865C74.1524 20.3195 74.8522 19.6415 75.7451 19.1519C76.639 18.663 77.6387 18.4179 78.7448 18.4179C79.5742 18.4179 80.3398 18.5566 81.0423 18.8333C81.7435 19.1096 82.3388 19.5143 82.8291 20.0455L82.0789 20.7953C81.2065 19.9125 80.1061 19.4716 78.776 19.4716C77.8939 19.4716 77.091 19.6734 76.367 20.0774C75.6444 20.4817 75.0776 21.0348 74.6689 21.7366C74.2589 22.4391 74.054 23.2258 74.054 24.0982C74.054 24.97 74.2589 25.7567 74.6689 26.4592C75.0776 27.1607 75.6444 27.7144 76.367 28.1184C77.091 28.5227 77.8939 28.7249 78.776 28.7249C80.1169 28.7249 81.2173 28.2779 82.0789 27.3844L82.8291 28.1342C82.3388 28.6661 81.7408 29.0727 81.0336 29.3545C80.3267 29.6369 79.5584 29.7776 78.728 29.7776C77.6219 29.7776 76.6249 29.5331 75.7367 29.0435Z" fill="white"/>
<path d="M92.3853 28.1261C93.0971 27.7275 93.6556 27.1745 94.0605 26.467C94.4645 25.7598 94.666 24.97 94.666 24.0982C94.666 23.2258 94.4645 22.4364 94.0605 21.7289C93.6556 21.0217 93.0971 20.4686 92.3853 20.0697C91.672 19.6704 90.8752 19.4716 89.992 19.4716C89.1085 19.4716 88.3093 19.6704 87.5914 20.0697C86.8735 20.4686 86.309 21.0217 85.9003 21.7289C85.4907 22.4364 85.2855 23.2258 85.2855 24.0982C85.2855 24.97 85.4907 25.7598 85.9003 26.467C86.309 27.1745 86.8735 27.7275 87.5914 28.1261C88.3093 28.5251 89.1085 28.7249 89.992 28.7249C90.8752 28.7249 91.672 28.5251 92.3853 28.1261ZM86.985 29.0358C86.086 28.5408 85.3839 27.8632 84.8792 27.0012C84.3735 26.1396 84.1206 25.1725 84.1206 24.0982C84.1206 23.0237 84.3735 22.0559 84.8792 21.1943C85.3839 20.3326 86.086 19.655 86.985 19.16C87.8839 18.6657 88.8859 18.4179 89.992 18.4179C91.0981 18.4179 92.0951 18.663 92.9833 19.1519C93.8712 19.6415 94.5713 20.3195 95.0817 21.1865C95.5921 22.0536 95.8477 23.0237 95.8477 24.0982C95.8477 25.1725 95.5921 26.1426 95.0817 27.0093C94.5713 27.8763 93.8712 28.5546 92.9833 29.0435C92.0951 29.5331 91.0981 29.7776 89.992 29.7776C88.8859 29.7776 87.8839 29.5301 86.985 29.0358Z" fill="white"/>
<path d="M97.8579 18.5138H99.0382V28.6606H105.292V29.6814H97.8579V18.5138Z" fill="white"/>
<path d="M114.305 28.1261C115.017 27.7275 115.575 27.1745 115.98 26.467C116.384 25.7598 116.586 24.97 116.586 24.0982C116.586 23.2258 116.384 22.4364 115.98 21.7289C115.575 21.0217 115.017 20.4686 114.305 20.0697C113.592 19.6704 112.795 19.4716 111.912 19.4716C111.028 19.4716 110.229 19.6704 109.511 20.0697C108.793 20.4686 108.229 21.0217 107.82 21.7289C107.411 22.4364 107.205 23.2258 107.205 24.0982C107.205 24.97 107.411 25.7598 107.82 26.467C108.229 27.1745 108.793 27.7275 109.511 28.1261C110.229 28.5251 111.028 28.7249 111.912 28.7249C112.795 28.7249 113.592 28.5251 114.305 28.1261ZM108.905 29.0358C108.006 28.5408 107.304 27.8632 106.799 27.0012C106.294 26.1396 106.041 25.1725 106.041 24.0982C106.041 23.0237 106.294 22.0559 106.799 21.1943C107.304 20.3326 108.006 19.655 108.905 19.16C109.804 18.6657 110.806 18.4179 111.912 18.4179C113.018 18.4179 114.015 18.663 114.903 19.1519C115.791 19.6415 116.491 20.3195 117.002 21.1865C117.512 22.0536 117.768 23.0237 117.768 24.0982C117.768 25.1725 117.512 26.1426 117.002 27.0093C116.491 27.8763 115.791 28.5546 114.903 29.0435C114.015 29.5331 113.018 29.7776 111.912 29.7776C110.806 29.7776 109.804 29.5301 108.905 29.0358Z" fill="white"/>
<path d="M126.461 24.4008C127.046 23.9119 127.338 23.2258 127.338 22.343C127.338 21.4394 127.046 20.745 126.461 20.2614C125.876 19.7772 125.031 19.5351 123.925 19.5351H120.958V25.1349H123.925C125.031 25.1349 125.876 24.8904 126.461 24.4008ZM127.403 29.6819L124.85 26.0925C124.563 26.1241 124.266 26.1399 123.956 26.1399H120.958V29.6819H119.777V18.5139H123.956C125.381 18.5139 126.498 18.8544 127.307 19.5351C128.115 20.2158 128.52 21.152 128.52 22.343C128.52 23.2154 128.298 23.9522 127.857 24.5526C127.416 25.1533 126.786 25.5872 125.967 25.8528L128.695 29.6819H127.403Z" fill="white"/>
<path d="M132.325 29.3784C131.564 29.1128 130.976 28.7619 130.562 28.3257L131.025 27.416C131.428 27.8203 131.966 28.1477 132.635 28.3976C133.305 28.6474 133.997 28.772 134.71 28.772C135.709 28.772 136.46 28.5886 136.959 28.2219C137.459 27.8552 137.708 27.3787 137.708 26.7941C137.708 26.3475 137.573 25.9912 137.302 25.7249C137.031 25.4597 136.698 25.2545 136.305 25.1108C135.912 24.9677 135.364 24.8106 134.662 24.6403C133.822 24.4278 133.152 24.2226 132.652 24.0261C132.151 23.8297 131.723 23.5288 131.367 23.1249C131.01 22.7206 130.833 22.1729 130.833 21.4811C130.833 20.918 130.981 20.4046 131.28 19.9418C131.577 19.4794 132.035 19.1094 132.652 18.8334C133.268 18.5563 134.034 18.418 134.948 18.418C135.587 18.418 136.211 18.5063 136.824 18.6816C137.435 18.8572 137.964 19.0993 138.411 19.4072L138.012 20.3488C137.544 20.0402 137.045 19.8089 136.512 19.6547C135.98 19.5006 135.459 19.4234 134.948 19.4234C133.97 19.4234 133.233 19.6124 132.739 19.9899C132.245 20.3673 131.998 20.8539 131.998 21.4496C131.998 21.8958 132.133 22.2555 132.404 22.5265C132.676 22.7978 133.015 23.0053 133.425 23.1484C133.835 23.2921 134.385 23.4492 135.076 23.6195C135.895 23.8213 136.558 24.0208 137.062 24.2172C137.568 24.4143 137.996 24.7122 138.347 25.1108C138.698 25.5097 138.873 26.0497 138.873 26.7303C138.873 27.2941 138.722 27.8072 138.419 28.2699C138.116 28.7327 137.651 29.099 137.023 29.3707C136.395 29.6417 135.624 29.7773 134.71 29.7773C133.881 29.7773 133.085 29.6444 132.325 29.3784Z" fill="white"/>
<path d="M46.5765 24.2315C46.5765 27.5153 43.9143 30.1775 40.6305 30.1775C37.3468 30.1775 34.6846 27.5153 34.6846 24.2315C34.6846 20.9478 37.3468 18.2856 40.6305 18.2856C43.9143 18.2856 46.5765 20.9478 46.5765 24.2315Z" fill="#8CC63F"/>
<path d="M26.2507 33.8956H24.6328V32.9423H29.0388V33.8956H27.4206V37.998H26.2507V33.8956Z" fill="white"/>
<path d="M40.6603 37.0589V37.9978H36.7456V32.942H40.5666V33.8809H37.9085V34.9786H40.256V35.889H37.9085V37.0589H40.6603Z" fill="white"/>
<path d="M49.3896 37.7487C48.9732 37.5247 48.6455 37.2141 48.4071 36.8172C48.1687 36.4196 48.0498 35.971 48.0498 35.47C48.0498 34.9693 48.1687 34.52 48.4071 34.1227C48.6455 33.7255 48.9732 33.4149 49.3896 33.1912C49.806 32.9673 50.2745 32.8551 50.7946 32.8551C51.2325 32.8551 51.6287 32.9323 51.9827 33.0865C52.3363 33.2406 52.6338 33.4619 52.8745 33.751L52.1237 34.4444C51.7815 34.0495 51.3577 33.8521 50.852 33.8521C50.5391 33.8521 50.26 33.9206 50.0142 34.0579C49.7688 34.1949 49.5773 34.3863 49.44 34.6321C49.303 34.8776 49.2342 35.157 49.2342 35.47C49.2342 35.7829 49.303 36.0623 49.44 36.3078C49.5773 36.5532 49.7688 36.7446 50.0142 36.882C50.26 37.0193 50.5391 37.0878 50.852 37.0878C51.3577 37.0878 51.7815 36.888 52.1237 36.4884L52.8745 37.1818C52.6338 37.4757 52.3353 37.6993 51.979 37.8534C51.6224 38.0076 51.2254 38.0845 50.7872 38.0845C50.2718 38.0845 49.806 37.9727 49.3896 37.7487Z" fill="white"/>
<path d="M65.0885 32.9419V37.998H63.9186V35.9248H61.6214V37.998H60.4512V32.9419H61.6214V34.9356H63.9186V32.9419H65.0885Z" fill="white"/>
<path d="M77.4254 32.9419V37.998H76.4647L73.9439 34.9282V37.998H72.7881V32.9419H73.7562L76.27 36.0118V32.9419H77.4254Z" fill="white"/>
<path d="M88.5264 36.8819C88.7672 36.7445 88.9559 36.5531 89.0932 36.3077C89.2306 36.0622 89.2994 35.7828 89.2994 35.4699C89.2994 35.1569 89.2306 34.8775 89.0932 34.632C88.9559 34.3862 88.7672 34.1952 88.5264 34.0578C88.2853 33.9205 88.0157 33.852 87.7175 33.852C87.4186 33.852 87.149 33.9205 86.9085 34.0578C86.6678 34.1952 86.4784 34.3862 86.3414 34.632C86.2044 34.8775 86.1355 35.1569 86.1355 35.4699C86.1355 35.7828 86.2044 36.0622 86.3414 36.3077C86.4784 36.5531 86.6678 36.7445 86.9085 36.8819C87.149 37.0192 87.4186 37.0877 87.7175 37.0877C88.0157 37.0877 88.2853 37.0192 88.5264 36.8819ZM86.2981 37.7449C85.8766 37.5186 85.5469 37.2069 85.3085 36.8097C85.07 36.4124 84.9512 35.9658 84.9512 35.4699C84.9512 34.9739 85.07 34.5273 85.3085 34.13C85.5469 33.7328 85.8766 33.4208 86.2981 33.1948C86.7195 32.9685 87.1923 32.855 87.7175 32.855C88.242 32.855 88.7141 32.9685 89.1332 33.1948C89.5523 33.4208 89.8817 33.7328 90.1228 34.13C90.3636 34.5273 90.4838 34.9739 90.4838 35.4699C90.4838 35.9658 90.3636 36.4124 90.1228 36.8097C89.8817 37.2069 89.5523 37.5186 89.1332 37.7449C88.7141 37.9716 88.242 38.0847 87.7175 38.0847C87.1923 38.0847 86.7195 37.9716 86.2981 37.7449Z" fill="white"/>
<path d="M98.1543 32.9419H99.3242V37.0444H101.859V37.998H98.1543V32.9419Z" fill="white"/>
<path d="M112.477 36.8819C112.718 36.7445 112.907 36.5531 113.044 36.3077C113.181 36.0622 113.25 35.7828 113.25 35.4699C113.25 35.1569 113.181 34.8775 113.044 34.632C112.907 34.3862 112.718 34.1952 112.477 34.0578C112.236 33.9205 111.966 33.852 111.668 33.852C111.369 33.852 111.1 33.9205 110.859 34.0578C110.618 34.1952 110.429 34.3862 110.292 34.632C110.155 34.8775 110.086 35.1569 110.086 35.4699C110.086 35.7828 110.155 36.0622 110.292 36.3077C110.429 36.5531 110.618 36.7445 110.859 36.8819C111.1 37.0192 111.369 37.0877 111.668 37.0877C111.966 37.0877 112.236 37.0192 112.477 36.8819ZM110.249 37.7449C109.827 37.5186 109.498 37.2069 109.259 36.8097C109.021 36.4124 108.902 35.9658 108.902 35.4699C108.902 34.9739 109.021 34.5273 109.259 34.13C109.498 33.7328 109.827 33.4208 110.249 33.1948C110.67 32.9685 111.143 32.855 111.668 32.855C112.193 32.855 112.665 32.9685 113.084 33.1948C113.503 33.4208 113.832 33.7328 114.073 34.13C114.314 34.5273 114.434 34.9739 114.434 35.4699C114.434 35.9658 114.314 36.4124 114.073 36.8097C113.832 37.2069 113.503 37.5186 113.084 37.7449C112.665 37.9716 112.193 38.0847 111.668 38.0847C111.143 38.0847 110.67 37.9716 110.249 37.7449Z" fill="white"/>
<path d="M125.666 35.3904H126.735V37.4418C126.461 37.6489 126.143 37.8078 125.782 37.9183C125.421 38.0291 125.057 38.0845 124.691 38.0845C124.166 38.0845 123.694 37.9727 123.276 37.7487C122.857 37.5247 122.528 37.2141 122.289 36.8172C122.051 36.4196 121.932 35.971 121.932 35.47C121.932 34.9693 122.051 34.52 122.289 34.1227C122.528 33.7255 122.859 33.4149 123.283 33.1912C123.706 32.9673 124.183 32.8551 124.713 32.8551C125.156 32.8551 125.558 32.93 125.919 33.0791C126.28 33.2285 126.584 33.4451 126.829 33.7292L126.078 34.4226C125.717 34.0421 125.281 33.8517 124.771 33.8517C124.448 33.8517 124.161 33.9196 123.911 34.0542C123.66 34.1889 123.466 34.3793 123.326 34.6248C123.186 34.8706 123.116 35.1523 123.116 35.47C123.116 35.7829 123.186 36.062 123.326 36.3078C123.466 36.5532 123.659 36.7446 123.908 36.882C124.155 37.0193 124.439 37.0878 124.756 37.0878C125.093 37.0878 125.397 37.0156 125.666 36.8712V35.3904Z" fill="white"/>
<path d="M137.035 36.2067V37.9978H135.865V36.1922L133.908 32.942H135.15L136.5 35.1882L137.851 32.942H139L137.035 36.2067Z" fill="white"/>
</svg>
