<svg width="11" height="14" viewBox="0 0 11 14" fill="none" xmlns="http://www.w3.org/2000/svg">
<path d="M10.375 5.91602C10.375 9.70768 5.5 12.9577 5.5 12.9577C5.5 12.9577 0.625 9.70768 0.625 5.91602C0.625 4.62309 1.13861 3.38311 2.05285 2.46887C2.96709 1.55463 4.20707 1.04102 5.5 1.04102C6.79293 1.04102 8.03291 1.55463 8.94715 2.46887C9.86139 3.38311 10.375 4.62309 10.375 5.91602Z" stroke="#667085" stroke-linecap="round" stroke-linejoin="round"/>
<path d="M5.5 7.54102C6.39746 7.54102 7.125 6.81348 7.125 5.91602C7.125 5.01855 6.39746 4.29102 5.5 4.29102C4.60254 4.29102 3.875 5.01855 3.875 5.91602C3.875 6.81348 4.60254 7.54102 5.5 7.54102Z" stroke="#667085" stroke-linecap="round" stroke-linejoin="round"/>
</svg>
