<svg width="13" height="14" viewBox="0 0 13 14" fill="none" xmlns="http://www.w3.org/2000/svg">
<path d="M12.3036 10.6872H11.875V6.40947C11.875 3.86908 10.0125 1.7698 7.58929 1.42052V0.720165C7.58929 0.322274 7.26964 0 6.875 0C6.48036 0 6.16071 0.322274 6.16071 0.720165V1.42052C3.7375 1.7698 1.875 3.86908 1.875 6.40947V10.6872H1.44643C1.13036 10.6872 0.875 10.9447 0.875 11.2634V11.8395C0.875 11.9187 0.939286 11.9835 1.01786 11.9835H4.875C4.875 13.0962 5.77143 14 6.875 14C7.97857 14 8.875 13.0962 8.875 11.9835H12.7321C12.8107 11.9835 12.875 11.9187 12.875 11.8395V11.2634C12.875 10.9447 12.6196 10.6872 12.3036 10.6872ZM6.875 12.8477C6.40179 12.8477 6.01786 12.4606 6.01786 11.9835H7.73214C7.73214 12.4606 7.34821 12.8477 6.875 12.8477ZM3.16071 10.6872V6.40947C3.16071 5.40844 3.54643 4.46862 4.24821 3.76106C4.95 3.0535 5.88214 2.66461 6.875 2.66461C7.86786 2.66461 8.8 3.0535 9.50179 3.76106C10.2036 4.46862 10.5893 5.40844 10.5893 6.40947V10.6872H3.16071Z" fill="#777C8C"/>
</svg>
