<svg width="32" height="33" viewBox="0 0 32 33" fill="none" xmlns="http://www.w3.org/2000/svg">
<rect y="0.5" width="32" height="32" rx="4.10256" fill="#72C2EF"/>
<path d="M23.5974 11.1821C23.7233 11.314 23.7946 11.492 23.7946 11.6788V25.2327C23.7946 25.6217 23.4946 25.936 23.1233 25.936H9.69672C9.32539 25.936 9.02539 25.6217 9.02539 25.2327V6.94695C9.02539 6.55794 9.32539 6.24365 9.69672 6.24365H18.6065C18.7848 6.24365 18.9569 6.31838 19.0827 6.45025L23.5974 11.1821ZM22.2464 12.0019L18.2981 7.86563V12.0019H22.2464Z" fill="white"/>
<path d="M19.8436 18.8248C19.4309 18.81 18.9921 18.8447 18.4938 18.9126C17.8332 18.468 17.3884 17.8574 17.0726 16.9603L17.1016 16.8304L17.1354 16.6768C17.2523 16.1391 17.3151 15.7468 17.3338 15.3512C17.3479 15.0525 17.3327 14.777 17.2841 14.5217C17.1943 13.9704 16.8369 13.648 16.3864 13.6282C15.9664 13.6095 15.5803 13.8654 15.4817 14.2619C15.321 14.9031 15.4151 15.7468 15.7557 17.1857C15.3218 18.3141 14.7485 19.6371 14.3638 20.3749C13.8503 20.6638 13.4504 20.9265 13.1144 21.2178C12.6712 21.6024 12.3945 21.9977 12.3184 22.4129C12.2814 22.6054 12.3371 22.8569 12.4641 23.063C12.6082 23.2967 12.8251 23.4485 13.0853 23.4705C13.7418 23.5259 14.5487 22.7875 15.4395 21.1199C15.529 21.0873 15.6236 21.0529 15.7391 21.0102L16.0626 20.891C16.2673 20.8156 16.4158 20.7617 16.5626 20.7098C17.1987 20.4838 17.6799 20.3411 18.1176 20.2599C18.8782 20.7041 19.7574 20.9953 20.3495 20.9953C20.8383 20.9953 21.1686 20.719 21.2879 20.2839C21.3926 19.9019 21.3097 19.4589 21.0846 19.2139C20.8519 18.9645 20.424 18.8453 19.8436 18.8248ZM13.1018 22.6333V22.6226L13.1054 22.6125C13.1452 22.5003 13.1962 22.3933 13.2576 22.2934C13.374 22.0983 13.5341 21.893 13.7326 21.6745C13.8391 21.5573 13.95 21.4432 14.0803 21.315C14.1093 21.2866 14.2953 21.106 14.3301 21.0704L14.6337 20.762L14.413 21.1454C14.0781 21.7279 13.7752 22.1472 13.5159 22.4206C13.4205 22.5215 13.3365 22.5956 13.2685 22.6433C13.2461 22.6597 13.2223 22.6738 13.1975 22.6855C13.1864 22.6905 13.1766 22.6935 13.1668 22.6944C13.1565 22.6958 13.146 22.6943 13.1364 22.6899C13.1261 22.6852 13.1174 22.6774 13.1113 22.6673C13.1051 22.6572 13.1018 22.6454 13.1018 22.6333ZM16.5256 16.1599L16.4641 16.2785L16.4261 16.1486C16.3418 15.8571 16.2798 15.4179 16.2627 15.0217C16.2431 14.5709 16.276 14.3005 16.4065 14.3005C16.5897 14.3005 16.6737 14.6207 16.6803 15.1027C16.6863 15.5262 16.6254 15.9668 16.5256 16.1599ZM16.3676 17.8936L16.4092 17.7735L16.466 17.8862C16.7838 18.5161 17.1963 19.0416 17.6497 19.4079L17.7476 19.4867L17.6282 19.5134C17.1843 19.6137 16.7708 19.7643 16.2053 20.0131C16.2643 19.987 15.6176 20.2759 15.4539 20.3444L15.3112 20.404L15.3873 20.2593C15.7231 19.6217 16.0335 18.8559 16.3676 17.8936ZM20.6526 20.1552C20.4389 20.2471 19.979 20.165 19.1691 19.7877L18.9636 19.6923L19.1865 19.6745C19.8199 19.6232 20.2685 19.6611 20.53 19.7655C20.6415 19.81 20.7157 19.866 20.7486 19.9301C20.7659 19.9604 20.7717 19.9969 20.7648 20.0318C20.7579 20.0667 20.7388 20.0974 20.7116 20.1172C20.6943 20.1338 20.6743 20.1467 20.6526 20.1552Z" fill="#72C2EF" stroke="#72C2EF" stroke-width="0.246154"/>
</svg>
