<svg width="13" height="14" viewBox="0 0 13 14" fill="none" xmlns="http://www.w3.org/2000/svg">
<path d="M12 2.20953V5.8762M12 5.8762H8.69934M12 5.8762L9.45299 3.21176C8.69417 2.36826 7.70913 1.82159 6.6463 1.65412C5.58347 1.48665 4.50043 1.70746 3.5604 2.28326C2.62036 2.85906 1.87425 3.75867 1.4345 4.84652C0.994747 5.93437 0.885181 7.15152 1.12231 8.31456C1.35944 9.47761 1.93042 10.5235 2.7492 11.2947C3.56799 12.0659 4.59022 12.5206 5.66185 12.5902C6.73349 12.6599 7.79647 12.3407 8.69062 11.6808C9.58477 11.021 9.45299 10.898 10.2812 9.84961" stroke="#667085" stroke-width="1.5" stroke-linecap="round" stroke-linejoin="round"/>
</svg>
