<svg width="24" height="25" viewBox="0 0 24 25" fill="none" xmlns="http://www.w3.org/2000/svg">
<path d="M19 13.5C19.5523 13.5 20 13.0523 20 12.5C20 11.9477 19.5523 11.5 19 11.5V13.5ZM5 11.5C4.44772 11.5 4 11.9477 4 12.5C4 13.0523 4.44772 13.5 5 13.5L5 11.5ZM19 11.5L5 11.5L5 13.5L19 13.5V11.5Z" fill="#4E5461"/>
<path d="M10.2929 19.2071C10.6834 19.5976 11.3166 19.5976 11.7071 19.2071C12.0976 18.8166 12.0976 18.1834 11.7071 17.7929L10.2929 19.2071ZM5 12.5L4.29289 11.7929C4.10536 11.9804 4 12.2348 4 12.5C4 12.7652 4.10536 13.0196 4.29289 13.2071L5 12.5ZM11.7071 7.20711C12.0976 6.81658 12.0976 6.18342 11.7071 5.79289C11.3166 5.40237 10.6834 5.40237 10.2929 5.79289L11.7071 7.20711ZM11.7071 17.7929L5.70711 11.7929L4.29289 13.2071L10.2929 19.2071L11.7071 17.7929ZM5.70711 13.2071L11.7071 7.20711L10.2929 5.79289L4.29289 11.7929L5.70711 13.2071Z" fill="#4E5461"/>
</svg>
