<svg width="7" height="12" viewBox="0 0 7 12" fill="none" xmlns="http://www.w3.org/2000/svg">
<path d="M1.4714 11.1379C1.21105 11.3983 0.788945 11.3983 0.528595 11.1379C0.268246 10.8776 0.268246 10.4554 0.528595 10.1951L1.4714 11.1379ZM5.66667 5.99984L6.13807 5.52843C6.39842 5.78878 6.39842 6.21089 6.13807 6.47124L5.66667 5.99984ZM0.528595 1.80457C0.268246 1.54423 0.268246 1.12212 0.528595 0.861766C0.788945 0.601416 1.21105 0.601416 1.4714 0.861766L0.528595 1.80457ZM0.528595 10.1951L5.19526 5.52843L6.13807 6.47124L1.4714 11.1379L0.528595 10.1951ZM5.19526 6.47124L0.528595 1.80457L1.4714 0.861766L6.13807 5.52843L5.19526 6.47124Z" fill="#898989"/>
</svg>
