<svg width="7" height="12" viewBox="0 0 7 12" fill="none" xmlns="http://www.w3.org/2000/svg">
<path d="M1.9714 11.1379C1.71105 11.3983 1.28895 11.3983 1.0286 11.1379C0.768246 10.8776 0.768246 10.4554 1.0286 10.1951L1.9714 11.1379ZM6.16667 5.99984L6.63807 5.52843C6.89842 5.78878 6.89842 6.21089 6.63807 6.47124L6.16667 5.99984ZM1.0286 1.80457C0.768246 1.54423 0.768246 1.12212 1.0286 0.861766C1.28895 0.601416 1.71105 0.601416 1.9714 0.861766L1.0286 1.80457ZM1.0286 10.1951L5.69526 5.52843L6.63807 6.47124L1.9714 11.1379L1.0286 10.1951ZM5.69526 6.47124L1.0286 1.80457L1.9714 0.861766L6.63807 5.52843L5.69526 6.47124Z" fill="#587DDB"/>
</svg>
